<svg width="640" height="460" viewBox="0 0 640 460" fill="none" xmlns="http://www.w3.org/2000/svg">
<rect width="640" height="460" fill="#5EABF1"/>
<path d="M59.6924 104.84C56.1924 104.84 53.3458 104.187 51.1524 102.88C49.0058 101.527 47.4424 99.6367 46.4624 97.21C45.4824 94.7367 44.9924 91.8667 44.9924 88.6V86.64H54.6524C54.6524 86.8733 54.6524 87.2 54.6524 87.62C54.6524 87.9933 54.6524 88.3667 54.6524 88.74C54.6991 91.3533 55.0724 93.3367 55.7724 94.69C56.4724 96.0433 57.8258 96.72 59.8324 96.72C61.2791 96.72 62.3524 96.37 63.0524 95.67C63.7991 94.97 64.2891 93.9667 64.5224 92.66C64.8024 91.3067 64.9424 89.6967 64.9424 87.83C64.9424 84.9367 64.4058 82.65 63.3324 80.97C62.3058 79.2433 60.2291 78.31 57.1024 78.17C56.9624 78.1233 56.7291 78.1 56.4024 78.1C56.1224 78.1 55.7958 78.1 55.4224 78.1C55.0491 78.1 54.6991 78.1 54.3724 78.1V71.24C54.6524 71.24 54.9324 71.24 55.2124 71.24C55.4924 71.24 55.7724 71.24 56.0524 71.24C56.3791 71.24 56.6358 71.24 56.8224 71.24C59.9958 71.1 62.1424 70.26 63.2624 68.72C64.3824 67.18 64.9424 64.94 64.9424 62C64.9424 59.62 64.5224 57.7533 63.6824 56.4C62.8891 55.0467 61.4424 54.37 59.3424 54.37C57.3824 54.37 55.9824 55.07 55.1424 56.47C54.3491 57.87 53.8824 59.7133 53.7424 62C53.7424 62.1867 53.7424 62.5367 53.7424 63.05C53.7424 63.5167 53.7424 64.0067 53.7424 64.52H44.0824V61.79C44.0824 58.57 44.6891 55.84 45.9024 53.6C47.1158 51.3133 48.8424 49.5867 51.0824 48.42C53.3691 47.2067 56.0991 46.6 59.2724 46.6C62.4924 46.6 65.2224 47.2067 67.4624 48.42C69.7491 49.5867 71.4991 51.29 72.7124 53.53C73.9258 55.7233 74.5324 58.43 74.5324 61.65C74.5324 65.01 73.8091 67.7867 72.3624 69.98C70.9624 72.1733 69.1891 73.5733 67.0424 74.18C68.4891 74.74 69.7724 75.58 70.8924 76.7C72.0591 77.7733 72.9458 79.22 73.5524 81.04C74.2058 82.8133 74.5324 85.03 74.5324 87.69C74.5324 91.0967 74.0424 94.1067 73.0624 96.72C72.0824 99.2867 70.4958 101.293 68.3024 102.74C66.1558 104.14 63.2858 104.84 59.6924 104.84ZM78.4459 114.64V98.05C79.9392 97.1633 81.2459 96.0667 82.3659 94.76C83.5325 93.4067 84.5359 91.75 85.3759 89.79C86.2159 87.83 86.8692 85.4733 87.3359 82.72C87.8492 79.9667 88.1525 76.7 88.2459 72.92L88.9459 63.54H109.316V97.84H114.706V114.64H107.846L107.146 104H86.0759L85.4459 114.64H78.4459ZM88.3859 97.84H100.426V69.63H96.1559L95.6659 75.09C95.5725 78.7767 95.3159 81.9033 94.8959 84.47C94.4759 87.0367 93.9392 89.1833 93.2859 90.91C92.6325 92.6367 91.8859 94.0367 91.0459 95.11C90.2059 96.1833 89.3192 97.0933 88.3859 97.84ZM131.837 104.63C128.804 104.63 126.331 104.07 124.417 102.95C122.504 101.783 121.081 100.103 120.147 97.91C119.261 95.67 118.817 92.9867 118.817 89.86V77.68C118.817 74.46 119.261 71.7533 120.147 69.56C121.081 67.3667 122.504 65.71 124.417 64.59C126.377 63.47 128.851 62.91 131.837 62.91C135.057 62.91 137.554 63.5167 139.327 64.73C141.147 65.9433 142.431 67.7167 143.177 70.05C143.971 72.3367 144.367 75.1367 144.367 78.45V84.19H128.267V92.17C128.267 93.4767 128.384 94.55 128.617 95.39C128.897 96.23 129.317 96.8367 129.877 97.21C130.437 97.5833 131.114 97.77 131.907 97.77C132.747 97.77 133.424 97.5833 133.937 97.21C134.451 96.79 134.824 96.2067 135.057 95.46C135.291 94.6667 135.407 93.6867 135.407 92.52V89.16H144.297V91.89C144.297 95.9967 143.271 99.1467 141.217 101.34C139.164 103.533 136.037 104.63 131.837 104.63ZM128.267 79.5H135.407V75.65C135.407 74.25 135.291 73.13 135.057 72.29C134.824 71.4033 134.451 70.7733 133.937 70.4C133.424 69.98 132.701 69.77 131.767 69.77C130.927 69.77 130.251 69.98 129.737 70.4C129.224 70.82 128.851 71.52 128.617 72.5C128.384 73.48 128.267 74.88 128.267 76.7V79.5ZM163.008 104.63C159.881 104.63 157.361 104.047 155.448 102.88C153.581 101.667 152.204 99.9633 151.318 97.77C150.478 95.53 150.058 92.8933 150.058 89.86V77.68C150.058 74.5533 150.478 71.8933 151.318 69.7C152.204 67.5067 153.604 65.8267 155.518 64.66C157.431 63.4933 159.928 62.91 163.008 62.91C165.901 62.91 168.258 63.3767 170.078 64.31C171.944 65.1967 173.298 66.5733 174.138 68.44C174.978 70.26 175.398 72.57 175.398 75.37V78.73H166.438V75.16C166.438 73.76 166.321 72.6633 166.088 71.87C165.901 71.03 165.551 70.4467 165.038 70.12C164.524 69.7467 163.848 69.56 163.008 69.56C162.168 69.56 161.491 69.7933 160.978 70.26C160.464 70.68 160.091 71.38 159.858 72.36C159.671 73.34 159.578 74.6933 159.578 76.42V91.26C159.578 93.8733 159.858 95.6467 160.418 96.58C160.978 97.4667 161.864 97.91 163.078 97.91C164.011 97.91 164.711 97.7 165.177 97.28C165.691 96.86 166.018 96.2533 166.158 95.46C166.344 94.62 166.438 93.6167 166.438 92.45V88.11H175.398V91.96C175.398 94.6667 174.954 96.9767 174.068 98.89C173.228 100.803 171.874 102.25 170.008 103.23C168.188 104.163 165.854 104.63 163.008 104.63ZM181.658 104V63.54H191.178V79.99C191.271 79.99 191.364 79.99 191.458 79.99C191.551 79.99 191.644 79.99 191.738 79.99C191.831 79.99 191.901 79.99 191.948 79.99C194.748 80.0367 197.151 80.2467 199.158 80.62C201.211 80.9467 202.891 81.5533 204.198 82.44C205.551 83.3267 206.554 84.54 207.208 86.08C207.861 87.5733 208.188 89.51 208.188 91.89C208.188 94.0833 207.884 95.95 207.278 97.49C206.718 99.03 205.761 100.29 204.408 101.27C203.101 102.203 201.374 102.903 199.228 103.37C197.128 103.79 194.584 104 191.598 104H181.658ZM191.178 98.54H191.528C193.581 98.54 195.191 98.3533 196.358 97.98C197.524 97.56 198.341 96.8833 198.808 95.95C199.321 94.97 199.578 93.64 199.578 91.96C199.578 90.3733 199.344 89.1367 198.878 88.25C198.411 87.3167 197.594 86.64 196.428 86.22C195.308 85.8 193.744 85.59 191.738 85.59C191.691 85.59 191.598 85.59 191.458 85.59C191.364 85.59 191.271 85.59 191.178 85.59V98.54ZM228.085 114.64V98.05C229.578 97.1633 230.885 96.0667 232.005 94.76C233.171 93.4067 234.175 91.75 235.015 89.79C235.855 87.83 236.508 85.4733 236.975 82.72C237.488 79.9667 237.791 76.7 237.885 72.92L238.585 63.54H258.955V97.84H264.345V114.64H257.485L256.785 104H235.715L235.085 114.64H228.085ZM238.025 97.84H250.065V69.63H245.795L245.305 75.09C245.211 78.7767 244.955 81.9033 244.535 84.47C244.115 87.0367 243.578 89.1833 242.925 90.91C242.271 92.6367 241.525 94.0367 240.685 95.11C239.845 96.1833 238.958 97.0933 238.025 97.84ZM280.724 104.63C277.784 104.63 275.357 104.093 273.444 103.02C271.531 101.9 270.084 100.29 269.104 98.19C268.171 96.09 267.704 93.5467 267.704 90.56V76.98C267.704 73.9933 268.171 71.45 269.104 69.35C270.084 67.25 271.531 65.6633 273.444 64.59C275.357 63.47 277.784 62.91 280.724 62.91C283.664 62.91 286.091 63.47 288.004 64.59C289.964 65.6633 291.411 67.25 292.344 69.35C293.324 71.45 293.814 73.9933 293.814 76.98V90.56C293.814 93.5467 293.324 96.09 292.344 98.19C291.411 100.29 289.964 101.9 288.004 103.02C286.091 104.093 283.664 104.63 280.724 104.63ZM280.794 98.05C281.867 98.05 282.661 97.7467 283.174 97.14C283.687 96.5333 284.014 95.7167 284.154 94.69C284.294 93.6167 284.364 92.45 284.364 91.19V76.35C284.364 75.09 284.294 73.9467 284.154 72.92C284.014 71.8933 283.687 71.0767 283.174 70.47C282.661 69.8167 281.867 69.49 280.794 69.49C279.721 69.49 278.927 69.8167 278.414 70.47C277.901 71.0767 277.551 71.8933 277.364 72.92C277.224 73.9467 277.154 75.09 277.154 76.35V91.19C277.154 92.45 277.224 93.6167 277.364 94.69C277.551 95.7167 277.901 96.5333 278.414 97.14C278.927 97.7467 279.721 98.05 280.794 98.05ZM297.261 104.42V97.49C298.708 97.49 299.874 97.2333 300.761 96.72C301.648 96.2067 302.348 95.3433 302.861 94.13C303.374 92.87 303.771 91.19 304.051 89.09C304.331 86.9433 304.588 84.26 304.821 81.04L305.941 63.54H329.461V104H319.941V70.26H314.131L313.291 82.16C313.011 86.5933 312.591 90.2567 312.031 93.15C311.518 96.0433 310.724 98.3067 309.651 99.94C308.624 101.573 307.224 102.74 305.451 103.44C303.678 104.093 301.414 104.42 298.661 104.42H297.261ZM333.545 104L342.575 83.49L334.105 63.54H342.645L350.135 82.86H350.835V63.54H358.675V82.86H359.375L367.075 63.54H375.685L366.935 83.49L376.175 104H367.985L359.375 84.33H358.675V104H350.835V84.33H350.065L341.735 104H333.545ZM380.242 104V63.54H389.762V79.85H397.952V63.54H407.472V104H397.952V86.57H389.762V104H380.242ZM422.603 104.63C420.783 104.63 419.22 104.163 417.913 103.23C416.606 102.25 415.603 101.037 414.903 99.59C414.203 98.0967 413.853 96.5567 413.853 94.97C413.853 92.45 414.32 90.3267 415.253 88.6C416.186 86.8733 417.423 85.4267 418.963 84.26C420.503 83.0933 422.253 82.09 424.213 81.25C426.173 80.3633 428.156 79.57 430.163 78.87V75.37C430.163 74.2033 430.07 73.2233 429.883 72.43C429.743 71.6367 429.44 71.03 428.973 70.61C428.553 70.19 427.876 69.98 426.943 69.98C426.15 69.98 425.496 70.1667 424.983 70.54C424.516 70.9133 424.166 71.45 423.933 72.15C423.746 72.8033 423.63 73.5733 423.583 74.46L423.443 76.91L414.413 76.56C414.553 71.8933 415.696 68.4633 417.843 66.27C420.036 64.03 423.35 62.91 427.783 62.91C431.843 62.91 434.783 64.03 436.603 66.27C438.47 68.51 439.403 71.5433 439.403 75.37V94.06C439.403 95.5533 439.426 96.9067 439.473 98.12C439.566 99.3333 439.66 100.43 439.753 101.41C439.893 102.39 440.01 103.253 440.103 104H431.563C431.423 103.067 431.236 102.017 431.003 100.85C430.816 99.6367 430.676 98.75 430.583 98.19C430.116 99.8233 429.23 101.317 427.923 102.67C426.616 103.977 424.843 104.63 422.603 104.63ZM426.103 97.56C426.71 97.56 427.27 97.42 427.783 97.14C428.343 96.8133 428.833 96.44 429.253 96.02C429.673 95.6 429.976 95.2267 430.163 94.9V83.63C429.136 84.2367 428.156 84.8433 427.223 85.45C426.336 86.0567 425.543 86.7333 424.843 87.48C424.19 88.18 423.676 88.95 423.303 89.79C422.976 90.63 422.813 91.61 422.813 92.73C422.813 94.2233 423.093 95.4133 423.653 96.3C424.26 97.14 425.076 97.56 426.103 97.56ZM475.755 104.63C472.675 104.583 470.202 103.977 468.335 102.81C466.515 101.643 465.185 99.94 464.345 97.7C463.552 95.46 463.155 92.73 463.155 89.51V66.34C463.155 62.7 463.482 59.76 464.135 57.52C464.835 55.28 465.815 53.53 467.075 52.27C468.335 51.01 469.898 50.03 471.765 49.33C473.632 48.5833 475.405 48.0467 477.085 47.72C478.812 47.3467 480.468 46.95 482.055 46.53C483.642 46.0633 485.182 45.3633 486.675 44.43L487.655 52.2C486.208 52.9933 484.668 53.5767 483.035 53.95C481.402 54.3233 479.792 54.65 478.205 54.93C476.665 55.21 475.218 55.6533 473.865 56.26C472.558 56.82 471.578 57.7533 470.925 59.06C470.318 60.3667 470.015 62.1633 470.015 64.45V69.21C470.622 68.5567 471.392 67.9733 472.325 67.46C473.305 66.9467 474.378 66.55 475.545 66.27C476.758 65.99 477.995 65.85 479.255 65.85C481.355 65.85 483.128 66.3167 484.575 67.25C486.068 68.1367 487.188 69.6533 487.935 71.8C488.728 73.9 489.125 76.7933 489.125 80.48V89.3C489.125 93.5 488.565 96.72 487.445 98.96C486.325 101.153 484.762 102.647 482.755 103.44C480.748 104.233 478.415 104.63 475.755 104.63ZM476.315 98.19C477.295 98.19 478.042 97.9567 478.555 97.49C479.068 96.9767 479.418 96.1367 479.605 94.97C479.838 93.7567 479.955 92.03 479.955 89.79V78.31C479.955 76.6767 479.862 75.3933 479.675 74.46C479.488 73.48 479.162 72.78 478.695 72.36C478.228 71.8933 477.575 71.66 476.735 71.66C476.268 71.66 475.778 71.7767 475.265 72.01C474.752 72.2433 474.262 72.6167 473.795 73.13C473.375 73.6433 472.932 74.32 472.465 75.16V89.44C472.465 91.68 472.582 93.43 472.815 94.69C473.048 95.95 473.445 96.86 474.005 97.42C474.565 97.9333 475.335 98.19 476.315 98.19ZM495.701 104V63.54H505.221V79.99C505.314 79.99 505.407 79.99 505.501 79.99C505.594 79.99 505.687 79.99 505.781 79.99C505.874 79.99 505.944 79.99 505.991 79.99C508.791 80.0367 511.194 80.2467 513.201 80.62C515.254 80.9933 516.934 81.6233 518.241 82.51C519.594 83.3967 520.597 84.61 521.251 86.15C521.904 87.6433 522.231 89.58 522.231 91.96C522.231 94.1533 521.927 96.02 521.321 97.56C520.761 99.0533 519.804 100.29 518.451 101.27C517.144 102.203 515.417 102.903 513.271 103.37C511.171 103.79 508.627 104 505.641 104H495.701ZM505.221 98.54H505.571C507.624 98.54 509.234 98.3533 510.401 97.98C511.567 97.56 512.384 96.8833 512.851 95.95C513.364 94.97 513.621 93.64 513.621 91.96C513.621 90.3733 513.387 89.1367 512.921 88.25C512.454 87.3167 511.637 86.64 510.471 86.22C509.351 85.8 507.787 85.59 505.781 85.59C505.734 85.59 505.641 85.59 505.501 85.59C505.407 85.59 505.314 85.59 505.221 85.59V98.54ZM526.711 104V63.54H536.231V104H526.711ZM548.244 104V70.19H540.824V63.54H565.184V70.19H557.694V104H548.244ZM569.802 104V63.54H579.322V79.99C579.415 79.99 579.509 79.99 579.602 79.99C579.695 79.99 579.789 79.99 579.882 79.99C579.975 79.99 580.045 79.99 580.092 79.99C582.892 80.0367 585.295 80.2467 587.302 80.62C589.355 80.9467 591.035 81.5533 592.342 82.44C593.695 83.3267 594.699 84.54 595.352 86.08C596.005 87.5733 596.332 89.51 596.332 91.89C596.332 94.0833 596.029 95.95 595.422 97.49C594.862 99.03 593.905 100.29 592.552 101.27C591.245 102.203 589.519 102.903 587.372 103.37C585.272 103.79 582.729 104 579.742 104H569.802ZM579.322 98.54H579.672C581.725 98.54 583.335 98.3533 584.502 97.98C585.669 97.56 586.485 96.8833 586.952 95.95C587.465 94.97 587.722 93.64 587.722 91.96C587.722 90.3733 587.489 89.1367 587.022 88.25C586.555 87.3167 585.739 86.64 584.572 86.22C583.452 85.8 581.889 85.59 579.882 85.59C579.835 85.59 579.742 85.59 579.602 85.59C579.509 85.59 579.415 85.59 579.322 85.59V98.54ZM62.1774 208.63C59.0508 208.63 56.5308 208.047 54.6174 206.88C52.7508 205.667 51.3741 203.963 50.4874 201.77C49.6474 199.53 49.2274 196.893 49.2274 193.86V181.68C49.2274 178.553 49.6474 175.893 50.4874 173.7C51.3741 171.507 52.7741 169.827 54.6874 168.66C56.6008 167.493 59.0974 166.91 62.1774 166.91C65.0708 166.91 67.4274 167.377 69.2474 168.31C71.1141 169.197 72.4674 170.573 73.3074 172.44C74.1474 174.26 74.5674 176.57 74.5674 179.37V182.73H65.6074V179.16C65.6074 177.76 65.4908 176.663 65.2574 175.87C65.0708 175.03 64.7208 174.447 64.2074 174.12C63.6941 173.747 63.0174 173.56 62.1774 173.56C61.3374 173.56 60.6608 173.793 60.1474 174.26C59.6341 174.68 59.2608 175.38 59.0274 176.36C58.8408 177.34 58.7474 178.693 58.7474 180.42V195.26C58.7474 197.873 59.0274 199.647 59.5874 200.58C60.1474 201.467 61.0341 201.91 62.2474 201.91C63.1808 201.91 63.8808 201.7 64.3474 201.28C64.8608 200.86 65.1874 200.253 65.3274 199.46C65.5141 198.62 65.6074 197.617 65.6074 196.45V192.11H74.5674V195.96C74.5674 198.667 74.1241 200.977 73.2374 202.89C72.3974 204.803 71.0441 206.25 69.1774 207.23C67.3574 208.163 65.0241 208.63 62.1774 208.63ZM85.5875 208V174.19H78.1675V167.54H102.528V174.19H95.0375V208H85.5875ZM107.146 208V167.54H114.916V191.9L126.256 167.54H133.676V208H125.906V183.64L114.776 208H107.146ZM138.394 208.42V201.49C139.84 201.49 141.007 201.233 141.894 200.72C142.78 200.207 143.48 199.343 143.994 198.13C144.507 196.87 144.904 195.19 145.184 193.09C145.464 190.943 145.72 188.26 145.954 185.04L147.074 167.54H170.594V208H161.074V174.26H155.264L154.424 186.16C154.144 190.593 153.724 194.257 153.164 197.15C152.65 200.043 151.857 202.307 150.784 203.94C149.757 205.573 148.357 206.74 146.584 207.44C144.81 208.093 142.547 208.42 139.794 208.42H138.394ZM177.898 208V167.54H187.418V183.99C187.511 183.99 187.604 183.99 187.698 183.99C187.791 183.99 187.884 183.99 187.978 183.99C188.071 183.99 188.141 183.99 188.188 183.99C190.988 184.037 193.391 184.247 195.398 184.62C197.451 184.947 199.131 185.553 200.438 186.44C201.791 187.327 202.794 188.54 203.448 190.08C204.101 191.573 204.428 193.51 204.428 195.89C204.428 198.083 204.124 199.95 203.518 201.49C202.958 203.03 202.001 204.29 200.648 205.27C199.341 206.203 197.614 206.903 195.468 207.37C193.368 207.79 190.824 208 187.838 208H177.898ZM187.418 202.54H187.768C189.821 202.54 191.431 202.353 192.598 201.98C193.764 201.56 194.581 200.883 195.048 199.95C195.561 198.97 195.818 197.64 195.818 195.96C195.818 194.373 195.584 193.137 195.118 192.25C194.651 191.317 193.834 190.64 192.668 190.22C191.548 189.8 189.984 189.59 187.978 189.59C187.931 189.59 187.838 189.59 187.698 189.59C187.604 189.59 187.511 189.59 187.418 189.59V202.54ZM209.753 208V167.54H219.273V183.85H227.463V167.54H236.983V208H227.463V190.57H219.273V208H209.753ZM252.115 208.63C250.295 208.63 248.731 208.163 247.425 207.23C246.118 206.25 245.115 205.037 244.415 203.59C243.715 202.097 243.365 200.557 243.365 198.97C243.365 196.45 243.831 194.327 244.765 192.6C245.698 190.873 246.935 189.427 248.475 188.26C250.015 187.093 251.765 186.09 253.725 185.25C255.685 184.363 257.668 183.57 259.675 182.87V179.37C259.675 178.203 259.581 177.223 259.395 176.43C259.255 175.637 258.951 175.03 258.485 174.61C258.065 174.19 257.388 173.98 256.455 173.98C255.661 173.98 255.008 174.167 254.495 174.54C254.028 174.913 253.678 175.45 253.445 176.15C253.258 176.803 253.141 177.573 253.095 178.46L252.955 180.91L243.925 180.56C244.065 175.893 245.208 172.463 247.355 170.27C249.548 168.03 252.861 166.91 257.295 166.91C261.355 166.91 264.295 168.03 266.115 170.27C267.981 172.51 268.915 175.543 268.915 179.37V198.06C268.915 199.553 268.938 200.907 268.985 202.12C269.078 203.333 269.171 204.43 269.265 205.41C269.405 206.39 269.521 207.253 269.615 208H261.075C260.935 207.067 260.748 206.017 260.515 204.85C260.328 203.637 260.188 202.75 260.095 202.19C259.628 203.823 258.741 205.317 257.435 206.67C256.128 207.977 254.355 208.63 252.115 208.63ZM255.615 201.56C256.221 201.56 256.781 201.42 257.295 201.14C257.855 200.813 258.345 200.44 258.765 200.02C259.185 199.6 259.488 199.227 259.675 198.9V187.63C258.648 188.237 257.668 188.843 256.735 189.45C255.848 190.057 255.055 190.733 254.355 191.48C253.701 192.18 253.188 192.95 252.815 193.79C252.488 194.63 252.325 195.61 252.325 196.73C252.325 198.223 252.605 199.413 253.165 200.3C253.771 201.14 254.588 201.56 255.615 201.56ZM273.265 208L280.195 191.06C278.982 190.5 277.978 189.707 277.185 188.68C276.438 187.607 275.878 186.347 275.505 184.9C275.132 183.407 274.945 181.773 274.945 180C274.945 177.993 275.202 176.22 275.715 174.68C276.275 173.14 277.162 171.857 278.375 170.83C279.588 169.757 281.175 168.94 283.135 168.38C285.095 167.82 287.475 167.54 290.275 167.54H301.825V208H292.445V192.81C291.978 192.81 291.395 192.81 290.695 192.81C289.995 192.763 289.412 192.717 288.945 192.67L283.345 208H273.265ZM291.745 187.28C291.838 187.28 291.955 187.28 292.095 187.28C292.282 187.28 292.398 187.28 292.445 187.28V172.93C292.398 172.93 292.282 172.93 292.095 172.93C291.955 172.93 291.862 172.93 291.815 172.93C289.855 172.93 288.245 173.187 286.985 173.7C285.772 174.167 284.885 174.913 284.325 175.94C283.812 176.967 283.555 178.297 283.555 179.93C283.555 182.403 284.185 184.247 285.445 185.46C286.752 186.627 288.852 187.233 291.745 187.28ZM326.169 208V167.54H335.689V184.06H337.579L344.439 167.54H354.519L346.329 186.86L354.659 208H344.719L337.579 189.59H335.689V208H326.169ZM366.48 208.63C364.66 208.63 363.097 208.163 361.79 207.23C360.483 206.25 359.48 205.037 358.78 203.59C358.08 202.097 357.73 200.557 357.73 198.97C357.73 196.45 358.197 194.327 359.13 192.6C360.063 190.873 361.3 189.427 362.84 188.26C364.38 187.093 366.13 186.09 368.09 185.25C370.05 184.363 372.033 183.57 374.04 182.87V179.37C374.04 178.203 373.947 177.223 373.76 176.43C373.62 175.637 373.317 175.03 372.85 174.61C372.43 174.19 371.753 173.98 370.82 173.98C370.027 173.98 369.373 174.167 368.86 174.54C368.393 174.913 368.043 175.45 367.81 176.15C367.623 176.803 367.507 177.573 367.46 178.46L367.32 180.91L358.29 180.56C358.43 175.893 359.573 172.463 361.72 170.27C363.913 168.03 367.227 166.91 371.66 166.91C375.72 166.91 378.66 168.03 380.48 170.27C382.347 172.51 383.28 175.543 383.28 179.37V198.06C383.28 199.553 383.303 200.907 383.35 202.12C383.443 203.333 383.537 204.43 383.63 205.41C383.77 206.39 383.887 207.253 383.98 208H375.44C375.3 207.067 375.113 206.017 374.88 204.85C374.693 203.637 374.553 202.75 374.46 202.19C373.993 203.823 373.107 205.317 371.8 206.67C370.493 207.977 368.72 208.63 366.48 208.63ZM369.98 201.56C370.587 201.56 371.147 201.42 371.66 201.14C372.22 200.813 372.71 200.44 373.13 200.02C373.55 199.6 373.853 199.227 374.04 198.9V187.63C373.013 188.237 372.033 188.843 371.1 189.45C370.213 190.057 369.42 190.733 368.72 191.48C368.067 192.18 367.553 192.95 367.18 193.79C366.853 194.63 366.69 195.61 366.69 196.73C366.69 198.223 366.97 199.413 367.53 200.3C368.137 201.14 368.953 201.56 369.98 201.56ZM390.29 221.3V167.54H399.81V170.62C400.977 169.5 402.26 168.613 403.66 167.96C405.06 167.26 406.53 166.91 408.07 166.91C409.89 166.91 411.384 167.33 412.55 168.17C413.717 169.01 414.627 170.13 415.28 171.53C415.934 172.883 416.377 174.353 416.61 175.94C416.89 177.48 417.03 178.973 417.03 180.42V194.14C417.03 196.8 416.704 199.227 416.05 201.42C415.444 203.613 414.44 205.363 413.04 206.67C411.687 207.977 409.867 208.63 407.58 208.63C406.134 208.63 404.757 208.28 403.45 207.58C402.19 206.88 400.977 205.993 399.81 204.92V221.3H390.29ZM404.01 201.98C405.037 201.98 405.784 201.653 406.25 201C406.764 200.3 407.09 199.39 407.23 198.27C407.417 197.103 407.51 195.843 407.51 194.49V180C407.51 178.74 407.417 177.62 407.23 176.64C407.044 175.613 406.694 174.797 406.18 174.19C405.667 173.583 404.92 173.28 403.94 173.28C403.194 173.28 402.447 173.467 401.7 173.84C401 174.167 400.37 174.563 399.81 175.03V200.58C400.417 201 401.07 201.35 401.77 201.63C402.47 201.863 403.217 201.98 404.01 201.98ZM428.341 208V174.19H420.921V167.54H445.281V174.19H437.791V208H428.341ZM449.9 208V167.54H457.67V191.9L469.01 167.54H476.43V208H468.66V183.64L457.53 208H449.9ZM483.738 208V167.54H493.258V183.85H501.448V167.54H510.968V208H501.448V190.57H493.258V208H483.738ZM518.259 208V167.54H527.779V184.06H529.669L536.529 167.54H546.609L538.419 186.86L546.749 208H536.809L529.669 189.59H527.779V208H518.259ZM558.57 208.63C556.75 208.63 555.187 208.163 553.88 207.23C552.573 206.25 551.57 205.037 550.87 203.59C550.17 202.097 549.82 200.557 549.82 198.97C549.82 196.45 550.287 194.327 551.22 192.6C552.153 190.873 553.39 189.427 554.93 188.26C556.47 187.093 558.22 186.09 560.18 185.25C562.14 184.363 564.123 183.57 566.13 182.87V179.37C566.13 178.203 566.037 177.223 565.85 176.43C565.71 175.637 565.407 175.03 564.94 174.61C564.52 174.19 563.843 173.98 562.91 173.98C562.117 173.98 561.463 174.167 560.95 174.54C560.483 174.913 560.133 175.45 559.9 176.15C559.713 176.803 559.597 177.573 559.55 178.46L559.41 180.91L550.38 180.56C550.52 175.893 551.663 172.463 553.81 170.27C556.003 168.03 559.317 166.91 563.75 166.91C567.81 166.91 570.75 168.03 572.57 170.27C574.437 172.51 575.37 175.543 575.37 179.37V198.06C575.37 199.553 575.393 200.907 575.44 202.12C575.533 203.333 575.627 204.43 575.72 205.41C575.86 206.39 575.977 207.253 576.07 208H567.53C567.39 207.067 567.203 206.017 566.97 204.85C566.783 203.637 566.643 202.75 566.55 202.19C566.083 203.823 565.197 205.317 563.89 206.67C562.583 207.977 560.81 208.63 558.57 208.63ZM562.07 201.56C562.677 201.56 563.237 201.42 563.75 201.14C564.31 200.813 564.8 200.44 565.22 200.02C565.64 199.6 565.943 199.227 566.13 198.9V187.63C565.103 188.237 564.123 188.843 563.19 189.45C562.303 190.057 561.51 190.733 560.81 191.48C560.157 192.18 559.643 192.95 559.27 193.79C558.943 194.63 558.78 195.61 558.78 196.73C558.78 198.223 559.06 199.413 559.62 200.3C560.227 201.14 561.043 201.56 562.07 201.56ZM583.15 217.52L582.17 214.02C583.43 213.647 584.504 212.97 585.39 211.99C586.277 211.057 586.72 209.727 586.72 208H581.68V198.55H590.99V207.16C590.99 210.147 590.337 212.48 589.03 214.16C587.724 215.887 585.764 217.007 583.15 217.52ZM89.7484 312V271.54H99.2684V287.85H107.458V271.54H116.978V312H107.458V294.57H99.2684V312H89.7484ZM136.52 312.63C133.58 312.63 131.153 312.093 129.24 311.02C127.327 309.9 125.88 308.29 124.9 306.19C123.967 304.09 123.5 301.547 123.5 298.56V284.98C123.5 281.993 123.967 279.45 124.9 277.35C125.88 275.25 127.327 273.663 129.24 272.59C131.153 271.47 133.58 270.91 136.52 270.91C139.46 270.91 141.887 271.47 143.8 272.59C145.76 273.663 147.207 275.25 148.14 277.35C149.12 279.45 149.61 281.993 149.61 284.98V298.56C149.61 301.547 149.12 304.09 148.14 306.19C147.207 308.29 145.76 309.9 143.8 311.02C141.887 312.093 139.46 312.63 136.52 312.63ZM136.59 306.05C137.663 306.05 138.457 305.747 138.97 305.14C139.483 304.533 139.81 303.717 139.95 302.69C140.09 301.617 140.16 300.45 140.16 299.19V284.35C140.16 283.09 140.09 281.947 139.95 280.92C139.81 279.893 139.483 279.077 138.97 278.47C138.457 277.817 137.663 277.49 136.59 277.49C135.517 277.49 134.723 277.817 134.21 278.47C133.697 279.077 133.347 279.893 133.16 280.92C133.02 281.947 132.95 283.09 132.95 284.35V299.19C132.95 300.45 133.02 301.617 133.16 302.69C133.347 303.717 133.697 304.533 134.21 305.14C134.723 305.747 135.517 306.05 136.59 306.05ZM173.007 312L173.287 271.54H180.357L188.897 293.59L197.577 271.54H204.577L204.857 312H197.227V289.32L190.437 306.82H187.567L180.707 289.39V312H173.007ZM212.043 312V271.54H221.563V287.99C221.657 287.99 221.75 287.99 221.843 287.99C221.937 287.99 222.03 287.99 222.123 287.99C222.217 287.99 222.287 287.99 222.333 287.99C225.133 288.037 227.537 288.247 229.543 288.62C231.597 288.993 233.277 289.623 234.583 290.51C235.937 291.397 236.94 292.61 237.593 294.15C238.247 295.643 238.573 297.58 238.573 299.96C238.573 302.153 238.27 304.02 237.663 305.56C237.103 307.053 236.147 308.29 234.793 309.27C233.487 310.203 231.76 310.903 229.613 311.37C227.513 311.79 224.97 312 221.983 312H212.043ZM221.563 306.54H221.913C223.967 306.54 225.577 306.353 226.743 305.98C227.91 305.56 228.727 304.883 229.193 303.95C229.707 302.97 229.963 301.64 229.963 299.96C229.963 298.373 229.73 297.137 229.263 296.25C228.797 295.317 227.98 294.64 226.813 294.22C225.693 293.8 224.13 293.59 222.123 293.59C222.077 293.59 221.983 293.59 221.843 293.59C221.75 293.59 221.657 293.59 221.563 293.59V306.54ZM243.053 312V271.54H252.573V312H243.053ZM287.698 312.77C285.365 312.77 283.428 312.443 281.888 311.79C280.348 311.137 279.111 310.203 278.178 308.99C277.291 307.777 276.661 306.33 276.288 304.65C275.961 302.97 275.798 301.103 275.798 299.05H283.568C283.568 301.523 283.918 303.32 284.618 304.44C285.365 305.56 286.461 306.12 287.908 306.12C289.075 306.12 289.938 305.84 290.498 305.28C291.058 304.72 291.431 303.95 291.618 302.97C291.805 301.99 291.898 300.893 291.898 299.68C291.898 298.14 291.641 296.95 291.128 296.11C290.661 295.27 289.845 294.71 288.678 294.43C287.558 294.103 285.995 293.94 283.988 293.94V288.27C287.021 288.27 289.028 287.85 290.008 287.01C290.988 286.17 291.478 284.723 291.478 282.67C291.478 280.99 291.128 279.73 290.428 278.89C289.775 278.05 288.795 277.63 287.488 277.63C286.041 277.63 284.968 278.05 284.268 278.89C283.568 279.73 283.218 281.34 283.218 283.72H275.518C275.518 280.967 275.915 278.657 276.708 276.79C277.548 274.877 278.878 273.43 280.698 272.45C282.518 271.423 284.921 270.91 287.908 270.91C290.755 270.91 293.065 271.423 294.838 272.45C296.611 273.43 297.895 274.76 298.688 276.44C299.528 278.12 299.948 279.963 299.948 281.97C299.948 284.023 299.621 285.68 298.968 286.94C298.361 288.2 297.568 289.133 296.588 289.74C295.608 290.347 294.605 290.767 293.578 291C294.698 291.327 295.748 291.793 296.728 292.4C297.708 292.96 298.501 293.893 299.108 295.2C299.761 296.507 300.088 298.397 300.088 300.87C300.088 304.51 299.085 307.403 297.078 309.55C295.118 311.697 291.991 312.77 287.698 312.77ZM313.672 312.63C311.852 312.63 310.289 312.163 308.982 311.23C307.676 310.25 306.672 309.037 305.972 307.59C305.272 306.097 304.922 304.557 304.922 302.97C304.922 300.45 305.389 298.327 306.322 296.6C307.256 294.873 308.492 293.427 310.032 292.26C311.572 291.093 313.322 290.09 315.282 289.25C317.242 288.363 319.226 287.57 321.232 286.87V283.37C321.232 282.203 321.139 281.223 320.952 280.43C320.812 279.637 320.509 279.03 320.042 278.61C319.622 278.19 318.946 277.98 318.012 277.98C317.219 277.98 316.566 278.167 316.052 278.54C315.586 278.913 315.236 279.45 315.002 280.15C314.816 280.803 314.699 281.573 314.652 282.46L314.512 284.91L305.482 284.56C305.622 279.893 306.766 276.463 308.912 274.27C311.106 272.03 314.419 270.91 318.852 270.91C322.912 270.91 325.852 272.03 327.672 274.27C329.539 276.51 330.472 279.543 330.472 283.37V302.06C330.472 303.553 330.496 304.907 330.542 306.12C330.636 307.333 330.729 308.43 330.822 309.41C330.962 310.39 331.079 311.253 331.172 312H322.632C322.492 311.067 322.306 310.017 322.072 308.85C321.886 307.637 321.746 306.75 321.652 306.19C321.186 307.823 320.299 309.317 318.992 310.67C317.686 311.977 315.912 312.63 313.672 312.63ZM317.172 305.56C317.779 305.56 318.339 305.42 318.852 305.14C319.412 304.813 319.902 304.44 320.322 304.02C320.742 303.6 321.046 303.227 321.232 302.9V291.63C320.206 292.237 319.226 292.843 318.292 293.45C317.406 294.057 316.612 294.733 315.912 295.48C315.259 296.18 314.746 296.95 314.372 297.79C314.046 298.63 313.882 299.61 313.882 300.73C313.882 302.223 314.162 303.413 314.722 304.3C315.329 305.14 316.146 305.56 317.172 305.56ZM349.803 312.63C346.723 312.583 344.249 311.977 342.383 310.81C340.563 309.643 339.233 307.94 338.393 305.7C337.599 303.46 337.203 300.73 337.203 297.51V274.34C337.203 270.7 337.529 267.76 338.183 265.52C338.883 263.28 339.863 261.53 341.123 260.27C342.383 259.01 343.946 258.03 345.813 257.33C347.679 256.583 349.453 256.047 351.133 255.72C352.859 255.347 354.516 254.95 356.103 254.53C357.689 254.063 359.229 253.363 360.723 252.43L361.703 260.2C360.256 260.993 358.716 261.577 357.083 261.95C355.449 262.323 353.839 262.65 352.253 262.93C350.713 263.21 349.266 263.653 347.913 264.26C346.606 264.82 345.626 265.753 344.973 267.06C344.366 268.367 344.063 270.163 344.063 272.45V277.21C344.669 276.557 345.439 275.973 346.373 275.46C347.353 274.947 348.426 274.55 349.593 274.27C350.806 273.99 352.043 273.85 353.303 273.85C355.403 273.85 357.176 274.317 358.623 275.25C360.116 276.137 361.236 277.653 361.983 279.8C362.776 281.9 363.173 284.793 363.173 288.48V297.3C363.173 301.5 362.613 304.72 361.493 306.96C360.373 309.153 358.809 310.647 356.803 311.44C354.796 312.233 352.463 312.63 349.803 312.63ZM350.363 306.19C351.343 306.19 352.089 305.957 352.603 305.49C353.116 304.977 353.466 304.137 353.653 302.97C353.886 301.757 354.003 300.03 354.003 297.79V286.31C354.003 284.677 353.909 283.393 353.723 282.46C353.536 281.48 353.209 280.78 352.743 280.36C352.276 279.893 351.623 279.66 350.783 279.66C350.316 279.66 349.826 279.777 349.313 280.01C348.799 280.243 348.309 280.617 347.843 281.13C347.423 281.643 346.979 282.32 346.513 283.16V297.44C346.513 299.68 346.629 301.43 346.863 302.69C347.096 303.95 347.493 304.86 348.053 305.42C348.613 305.933 349.383 306.19 350.363 306.19ZM369.748 312V271.54H377.518V295.9L388.858 271.54H396.278V312H388.508V287.64L377.378 312H369.748ZM400.996 312.42V305.49C402.443 305.49 403.61 305.233 404.496 304.72C405.383 304.207 406.083 303.343 406.596 302.13C407.11 300.87 407.506 299.19 407.786 297.09C408.066 294.943 408.323 292.26 408.556 289.04L409.676 271.54H433.196V312H423.676V278.26H417.866L417.026 290.16C416.746 294.593 416.326 298.257 415.766 301.15C415.253 304.043 414.46 306.307 413.386 307.94C412.36 309.573 410.96 310.74 409.186 311.44C407.413 312.093 405.15 312.42 402.396 312.42H400.996ZM440.5 312V271.54H448.27V295.9L459.61 271.54H467.03V312H459.26V287.64L448.13 312H440.5ZM491.36 312V271.54H500.88V287.85H509.07V271.54H518.59V312H509.07V294.57H500.88V312H491.36ZM533.721 312.63C531.901 312.63 530.338 312.163 529.031 311.23C527.725 310.25 526.721 309.037 526.021 307.59C525.321 306.097 524.971 304.557 524.971 302.97C524.971 300.45 525.438 298.327 526.371 296.6C527.305 294.873 528.541 293.427 530.081 292.26C531.621 291.093 533.371 290.09 535.331 289.25C537.291 288.363 539.275 287.57 541.281 286.87V283.37C541.281 282.203 541.188 281.223 541.001 280.43C540.861 279.637 540.558 279.03 540.091 278.61C539.671 278.19 538.995 277.98 538.061 277.98C537.268 277.98 536.615 278.167 536.101 278.54C535.635 278.913 535.285 279.45 535.051 280.15C534.865 280.803 534.748 281.573 534.701 282.46L534.561 284.91L525.531 284.56C525.671 279.893 526.815 276.463 528.961 274.27C531.155 272.03 534.468 270.91 538.901 270.91C542.961 270.91 545.901 272.03 547.721 274.27C549.588 276.51 550.521 279.543 550.521 283.37V302.06C550.521 303.553 550.545 304.907 550.591 306.12C550.685 307.333 550.778 308.43 550.871 309.41C551.011 310.39 551.128 311.253 551.221 312H542.681C542.541 311.067 542.355 310.017 542.121 308.85C541.935 307.637 541.795 306.75 541.701 306.19C541.235 307.823 540.348 309.317 539.041 310.67C537.735 311.977 535.961 312.63 533.721 312.63ZM537.221 305.56C537.828 305.56 538.388 305.42 538.901 305.14C539.461 304.813 539.951 304.44 540.371 304.02C540.791 303.6 541.095 303.227 541.281 302.9V291.63C540.255 292.237 539.275 292.843 538.341 293.45C537.455 294.057 536.661 294.733 535.961 295.48C535.308 296.18 534.795 296.95 534.421 297.79C534.095 298.63 533.931 299.61 533.931 300.73C533.931 302.223 534.211 303.413 534.771 304.3C535.378 305.14 536.195 305.56 537.221 305.56ZM184.324 416V375.54H193.844V392.06H195.734L202.594 375.54H212.674L204.484 394.86L212.814 416H202.874L195.734 397.59H193.844V416H184.324ZM229.113 416.63C226.173 416.63 223.746 416.093 221.833 415.02C219.919 413.9 218.473 412.29 217.493 410.19C216.559 408.09 216.093 405.547 216.093 402.56V388.98C216.093 385.993 216.559 383.45 217.493 381.35C218.473 379.25 219.919 377.663 221.833 376.59C223.746 375.47 226.173 374.91 229.113 374.91C232.053 374.91 234.479 375.47 236.393 376.59C238.353 377.663 239.799 379.25 240.733 381.35C241.713 383.45 242.203 385.993 242.203 388.98V402.56C242.203 405.547 241.713 408.09 240.733 410.19C239.799 412.29 238.353 413.9 236.393 415.02C234.479 416.093 232.053 416.63 229.113 416.63ZM229.183 410.05C230.256 410.05 231.049 409.747 231.563 409.14C232.076 408.533 232.403 407.717 232.543 406.69C232.683 405.617 232.753 404.45 232.753 403.19V388.35C232.753 387.09 232.683 385.947 232.543 384.92C232.403 383.893 232.076 383.077 231.563 382.47C231.049 381.817 230.256 381.49 229.183 381.49C228.109 381.49 227.316 381.817 226.803 382.47C226.289 383.077 225.939 383.893 225.753 384.92C225.613 385.947 225.543 387.09 225.543 388.35V403.19C225.543 404.45 225.613 405.617 225.753 406.69C225.939 407.717 226.289 408.533 226.803 409.14C227.316 409.747 228.109 410.05 229.183 410.05ZM248.718 416V375.54H258.238V391.85H266.428V375.54H275.948V416H266.428V398.57H258.238V416H248.718ZM288 416V382.19H280.58V375.54H304.94V382.19H297.45V416H288ZM321.193 416.63C318.159 416.63 315.686 416.07 313.773 414.95C311.859 413.783 310.436 412.103 309.503 409.91C308.616 407.67 308.173 404.987 308.173 401.86V389.68C308.173 386.46 308.616 383.753 309.503 381.56C310.436 379.367 311.859 377.71 313.773 376.59C315.733 375.47 318.206 374.91 321.193 374.91C324.413 374.91 326.909 375.517 328.683 376.73C330.503 377.943 331.786 379.717 332.533 382.05C333.326 384.337 333.723 387.137 333.723 390.45V396.19H317.623V404.17C317.623 405.477 317.739 406.55 317.973 407.39C318.253 408.23 318.673 408.837 319.233 409.21C319.793 409.583 320.469 409.77 321.263 409.77C322.103 409.77 322.779 409.583 323.293 409.21C323.806 408.79 324.179 408.207 324.413 407.46C324.646 406.667 324.763 405.687 324.763 404.52V401.16H333.653V403.89C333.653 407.997 332.626 411.147 330.573 413.34C328.519 415.533 325.393 416.63 321.193 416.63ZM317.623 391.5H324.763V387.65C324.763 386.25 324.646 385.13 324.413 384.29C324.179 383.403 323.806 382.773 323.293 382.4C322.779 381.98 322.056 381.77 321.123 381.77C320.283 381.77 319.606 381.98 319.093 382.4C318.579 382.82 318.206 383.52 317.973 384.5C317.739 385.48 317.623 386.88 317.623 388.7V391.5ZM340.183 416V375.54H349.703V391.85H357.893V375.54H367.413V416H357.893V398.57H349.703V416H340.183ZM379.464 416V382.19H372.044V375.54H396.404V382.19H388.914V416H379.464ZM399.623 429.02V422.44C401.069 422.44 402.213 421.717 403.053 420.27C403.939 418.823 404.593 416.817 405.013 414.25C405.433 411.637 405.713 408.603 405.853 405.15C405.993 401.697 406.063 397.963 406.063 393.95C406.063 389.937 405.993 386.203 405.853 382.75C405.713 379.25 405.433 376.217 405.013 373.65C404.639 371.037 404.009 369.007 403.123 367.56C402.283 366.067 401.116 365.297 399.623 365.25V358.74C402.516 358.74 404.896 359.37 406.763 360.63C408.676 361.843 410.193 363.593 411.313 365.88C412.433 368.12 413.249 370.733 413.763 373.72C414.276 376.66 414.603 379.857 414.743 383.31C414.883 386.717 414.953 390.263 414.953 393.95C414.953 397.45 414.883 400.903 414.743 404.31C414.603 407.717 414.276 410.913 413.763 413.9C413.249 416.887 412.433 419.5 411.313 421.74C410.193 424.027 408.676 425.8 406.763 427.06C404.896 428.367 402.516 429.02 399.623 429.02ZM420.267 429.02V422.44C421.714 422.44 422.857 421.717 423.697 420.27C424.584 418.823 425.237 416.817 425.657 414.25C426.077 411.637 426.357 408.603 426.497 405.15C426.637 401.697 426.707 397.963 426.707 393.95C426.707 389.937 426.637 386.203 426.497 382.75C426.357 379.25 426.077 376.217 425.657 373.65C425.284 371.037 424.654 369.007 423.767 367.56C422.927 366.067 421.761 365.297 420.267 365.25V358.74C423.161 358.74 425.541 359.37 427.407 360.63C429.321 361.843 430.837 363.593 431.957 365.88C433.077 368.12 433.894 370.733 434.407 373.72C434.921 376.66 435.247 379.857 435.387 383.31C435.527 386.717 435.597 390.263 435.597 393.95C435.597 397.45 435.527 400.903 435.387 404.31C435.247 407.717 434.921 410.913 434.407 413.9C433.894 416.887 433.077 419.5 431.957 421.74C430.837 424.027 429.321 425.8 427.407 427.06C425.541 428.367 423.161 429.02 420.267 429.02ZM440.912 429.02V422.44C442.359 422.44 443.502 421.717 444.342 420.27C445.229 418.823 445.882 416.817 446.302 414.25C446.722 411.637 447.002 408.603 447.142 405.15C447.282 401.697 447.352 397.963 447.352 393.95C447.352 389.937 447.282 386.203 447.142 382.75C447.002 379.25 446.722 376.217 446.302 373.65C445.929 371.037 445.299 369.007 444.412 367.56C443.572 366.067 442.405 365.297 440.912 365.25V358.74C443.805 358.74 446.185 359.37 448.052 360.63C449.965 361.843 451.482 363.593 452.602 365.88C453.722 368.12 454.539 370.733 455.052 373.72C455.565 376.66 455.892 379.857 456.032 383.31C456.172 386.717 456.242 390.263 456.242 393.95C456.242 397.45 456.172 400.903 456.032 404.31C455.892 407.717 455.565 410.913 455.052 413.9C454.539 416.887 453.722 419.5 452.602 421.74C451.482 424.027 449.965 425.8 448.052 427.06C446.185 428.367 443.805 429.02 440.912 429.02Z" fill="#0B0A0A"/>
</svg>
