<svg width="298" height="488" viewBox="0 0 298 488" fill="none" xmlns="http://www.w3.org/2000/svg">
<rect width="298" height="488" fill="white"/>
<path d="M177.018 414.606C154.56 423.418 128.66 425.862 106.702 415.78C84.7449 405.699 68.4265 381.089 72.4236 356.861C73.9409 347.663 78.1657 338.709 77.0866 329.444C75.8604 318.913 68.0561 310.401 65.1429 300.221C62.3622 290.505 64.3107 279.822 68.8905 270.853C73.4704 261.884 80.4944 254.447 88.0717 247.932C100.051 237.632 114.067 229.156 129.544 226.675C145.02 224.194 162.092 228.505 172.616 240.368C188.87 258.691 186.543 289.922 205.273 305.589C213.77 312.697 225.238 315.202 233.844 322.171C241.964 328.745 246.923 339.209 246.933 349.785C246.962 383.441 202.644 404.549 177.018 414.606Z" fill="#C0E6E4"/>
<path d="M151.897 456C172.588 456 189.361 451.979 189.361 447.019C189.361 442.059 172.588 438.038 151.897 438.038C131.206 438.038 114.433 442.059 114.433 447.019C114.433 451.979 131.206 456 151.897 456Z" fill="#B8C9DE" stroke="white" stroke-miterlimit="10"/>
<path d="M165.924 271.93C165.315 267.796 165.102 262.905 161.618 260.292C156.218 256.243 148.203 259.206 142.297 260.24C137.019 261.163 136.441 267.28 135.849 271.747C135.449 274.763 135.587 278.299 134.685 281.203C133.768 284.158 131.743 286.488 131.025 289.607C129.555 295.998 131.094 303.14 135.059 308.309C139.52 314.124 146.443 317.476 153.518 318.456C157.37 318.988 160.665 319.15 164.515 319.969C168.684 320.856 173.029 321.017 177.2 320.049C183.392 318.611 189.143 314.474 191.688 308.537C194.232 302.601 193.024 294.94 188.166 290.768C184.402 287.536 179.245 286.737 174.714 284.781C169.434 282.502 167.205 278.791 166.159 273.341C166.071 272.884 165.995 272.413 165.924 271.93Z" fill="#3537A6"/>
<path d="M188.113 371.482C190.545 370.045 190.538 365.765 190.538 365.765C189.461 359.737 188.37 353.632 186.679 347.749C185.392 343.272 183.648 339.408 182.635 334.733C181.236 328.279 179.836 321.825 178.437 315.37C177.533 311.201 177.639 308.444 173.969 306.066C169.879 303.416 164.251 302.6 159.549 303.344C165.75 309.815 166.043 320.226 167.91 328.598C169.134 334.084 170.542 339.536 172.227 344.895C173.851 350.06 176.397 354.774 178.189 359.812L181.522 369.184C181.522 369.184 181.728 369.74 182.09 370.408C182.657 371.632 185.68 372.919 188.113 371.482Z" fill="#00367D"/>
<path d="M174.469 248.976L174.211 248.803C174.374 248.94 174.469 248.976 174.469 248.976Z" fill="#E2B4BD"/>
<path d="M150.907 401.805C149.719 401.663 148.527 401.513 147.338 401.407C148.324 401.495 149.09 395.463 149.043 394.726C148.919 392.757 148 390.705 147.615 388.724C146.601 383.505 145.776 378.252 144.842 373.019L163.781 368.84L167.394 373.326C174.991 375.973 182.563 378.698 190.115 381.475C196.135 383.69 202.144 385.939 208.107 388.307C210.227 389.148 213.844 389.877 215.151 391.922C216.555 394.119 216.35 398.735 216.195 401.173C216.011 404.073 215.099 407.021 213.131 409.122C209.538 412.955 205.809 411.712 201.562 410.64C196.652 409.401 191.346 409.05 186.346 408.246C180.636 407.326 174.927 406.394 169.221 405.438C169.221 405.438 161.047 402.811 161.025 402.804C158.826 402.097 156.585 402.296 154.326 402.146C153.192 402.07 152.051 401.941 150.907 401.805Z" fill="#002657"/>
<path d="M148.565 401.278C149.223 401.145 149.888 401.024 150.566 400.922C150.776 398.487 151.081 396.159 151.52 393.759C151.961 391.352 152.917 388.556 152.917 386.113C153.696 381.855 154.475 377.596 155.254 373.338L136.332 369.076L132.701 373.545C125.153 376.138 117.63 378.808 110.126 381.53C99.7971 385.277 83.0733 387.685 84.1255 402.365C84.3285 405.199 85.4907 409.061 87.7046 410.979C89.6301 412.647 91.2087 411.837 93.5166 411.425C99.0464 410.439 104.649 409.774 110.2 408.912C117.05 407.849 123.897 406.766 130.738 405.649C130.738 405.649 138.894 403.068 138.945 403.052C140.954 402.416 143.025 402.518 145.045 402.058C146.226 401.789 147.385 401.515 148.565 401.278Z" fill="#002657"/>
<path d="M155.639 305.918L154.496 307.392C152.121 310.474 148.099 310.234 145.965 306.895L144.417 304.46C144.691 300.77 145.019 297.152 145.243 294.779C145.402 293.093 145.511 292.037 145.511 292.037L150.025 292.579L153.998 292.037C153.998 292.037 154.578 295.801 155.087 300.228C155.3 302.082 155.503 304.058 155.639 305.918Z" fill="#DDAFB8"/>
<path d="M155.087 300.228C152.608 300.278 150.102 299.497 148.11 297.989C146.961 297.124 145.993 296.018 145.243 294.779C145.402 293.093 145.511 292.037 145.511 292.037L150.025 292.579L153.998 292.037C153.998 292.037 154.578 295.801 155.087 300.228Z" fill="#DD96A9"/>
<path d="M139.274 303.686L143.709 303.615L161.176 303.686C161.176 303.686 168.869 308 166.998 313.941C165.127 319.883 145.843 325.717 145.843 325.717L136.64 321.155C136.64 321.155 134.769 318.609 134.457 316.594C134.145 314.578 133.521 313.411 134.145 312.031C134.769 310.652 135.925 305.257 135.925 305.257L139.274 303.686Z" fill="#00367D"/>
<path d="M134.694 266.457C134.694 266.457 132.926 270.816 135.118 273.054C137.311 275.292 138.188 280.662 138.188 280.662C138.188 280.662 143.013 267.684 143.013 267.236C143.013 266.789 134.694 266.457 134.694 266.457Z" fill="#3537A6"/>
<path d="M162.609 278.492C161.728 278.314 160.916 278.559 160.29 279.041V266.553L145.458 262.474L136.912 264.283L138.509 274.443C139.538 280.905 138.178 288.986 144.486 293.023C147.292 294.819 152.403 295.649 155.289 293.473C157.777 291.598 159.036 287.527 160.289 284.734C160.289 284.734 160.506 284.421 161.164 284.421C162.954 284.421 164.372 282.967 164.03 281.079C163.818 279.904 163.757 278.722 162.609 278.492Z" fill="#DDAFB8"/>
<path d="M161.518 279.922C161.518 279.922 160.289 282.01 161.108 283.264C161.928 284.517 162.337 282.428 161.928 282.01C161.518 281.593 161.518 282.01 162.337 281.593C163.156 281.175 161.518 279.922 161.518 279.922Z" fill="#D891A4"/>
<path d="M160.406 277.055C161.849 277.236 163.214 277.139 164.223 276.573C167.011 275.009 166.697 269.903 165.978 267.126C165.131 263.853 162.783 260.603 159.688 259.187C143.474 251.551 131.832 266.799 134.326 270.617C136.777 274.37 145.153 265.102 146.713 263.205C149.503 267.064 148.956 271.467 153.542 274.531C155.052 275.54 157.852 276.733 160.406 277.055Z" fill="#3537A6"/>
<path d="M159.806 273.281C161.976 274.897 163.942 276.242 164.668 277.033C165.06 273.118 166.956 267.016 164.224 263.56C163.117 262.16 161.753 261.324 160.189 260.588C156.619 258.907 152.307 256.863 148.253 257.148C140.536 257.691 137.812 265.739 137.424 272.343C143.557 272.605 149.675 268.828 152.297 263.163C150.883 266.219 155.708 270.231 159.806 273.281Z" fill="#3537A6"/>
<path d="M182.155 370.783C182.461 371.128 182.817 371.477 183.203 371.751C184.354 372.569 220.27 390.027 220.27 390.027L222.26 385.846C222.26 385.846 193.493 366.341 191.916 365.312C190.652 364.486 189.917 364.308 189.571 364.278L189.327 364.284C189.327 364.284 185.997 362.625 183.798 364.783C181.6 366.941 181.324 369.472 181.931 370.523C181.979 370.607 182.06 370.694 182.155 370.783Z" fill="#E2B4BD"/>
<path d="M214.324 379.782C214.324 379.782 210.512 382.009 209.339 386.806C209.339 386.806 183.486 374.699 181.594 369.13C179.701 363.562 183.824 359.284 183.824 359.284H189.432L214.324 379.782Z" fill="#00367D"/>
<path d="M222.703 389.279C222.703 389.279 226.357 387.226 228.068 386.637C229.78 386.047 239.037 382.729 240.321 382.42C241.605 382.111 242.171 380.546 242.171 380.546C242.171 380.546 246.335 379.511 246.15 378.558C245.965 377.605 244.524 377.57 243.655 377.825C242.786 378.08 241.476 378.575 241.476 378.575C241.476 378.575 240.242 378.248 239.801 378.355C239.24 378.492 234.944 379.222 234.816 379.631C235.108 378.699 234.643 377.697 234.065 376.915C233.665 376.374 233.122 375.84 232.457 375.845C231.637 375.851 231.065 376.648 230.633 377.36C230.865 377.993 231.098 378.626 231.33 379.259C231.374 379.38 231.419 379.502 231.448 379.628C231.595 380.273 231.273 381 230.7 381.311C230.254 381.554 224.368 381.011 224.402 382.351C224.95 380.648 226.395 379.276 228.1 378.841C228.786 378.665 229.528 378.624 230.125 378.238C230.471 378.015 231.57 375.659 231.081 375.748C230.047 375.938 229.013 376.128 227.979 376.317C224.749 376.91 222.165 377.914 220.402 380.837C219.129 382.949 218.412 384.757 219.012 387.199C219.097 387.546 219.772 390.288 220.603 390.002C220.619 389.996 222.703 389.279 222.703 389.279Z" fill="#E2B4BD"/>
<path d="M231.772 383.088L231.649 382.728L235.759 381.269C237.296 380.901 240.241 380.191 240.527 380.093C240.888 379.968 241.499 379.412 241.512 379.24C241.52 379.049 241.375 378.768 241.318 378.675L241.635 378.473C241.662 378.517 241.9 378.913 241.886 379.255C241.869 379.675 241.045 380.317 240.646 380.454C240.273 380.582 236.043 381.591 235.863 381.634L231.772 383.088Z" fill="#E4A183"/>
<path d="M242.094 380.369L234.162 383.502L234.297 383.858L242.229 380.724L242.094 380.369Z" fill="#E4A183"/>
<path d="M114.69 371.482C112.257 370.045 112.265 365.765 112.265 365.765C113.342 359.737 114.433 353.632 116.124 347.749C117.411 343.272 119.154 339.408 120.168 334.733C121.567 328.279 122.967 321.825 124.366 315.37C125.27 311.201 125.164 308.443 128.835 306.066C132.899 303.433 136.514 303.242 141.172 303.502C138.984 307.138 137.244 312.695 137.029 317.029C136.887 319.918 131.907 346.356 124.614 359.813L121.281 369.184C121.281 369.184 121.075 369.74 120.713 370.409C120.145 371.632 117.123 372.919 114.69 371.482Z" fill="#00367D"/>
<path d="M121.18 369.716C120.89 370.076 120.552 370.443 120.18 370.736C119.07 371.611 84.0467 390.865 84.0467 390.865L81.8569 386.79C81.8569 386.79 109.64 365.854 111.165 364.746C112.388 363.857 113.114 363.642 113.457 363.595L113.701 363.589C113.701 363.589 116.947 361.764 119.247 363.808C121.547 365.852 121.946 368.366 121.391 369.446C121.347 369.531 121.27 369.622 121.18 369.716Z" fill="#E2B4BD"/>
<path d="M81.58 390.241C81.58 390.241 77.8308 388.375 76.093 387.873C74.3551 387.372 64.9481 384.525 63.6502 384.281C62.3529 384.037 61.7116 382.503 61.7116 382.503C61.7116 382.503 57.5027 381.68 57.6417 380.719C57.7801 379.757 59.2176 379.65 60.098 379.861C60.9784 380.071 62.3102 380.499 62.3102 380.499C62.3102 380.499 63.5271 380.11 63.9731 380.195C64.5399 380.303 68.8664 380.815 69.0142 381.217C68.6771 380.301 69.093 379.275 69.6314 378.466C70.0051 377.905 70.5222 377.345 71.1859 377.316C72.0056 377.28 72.6151 378.047 73.0813 378.736C72.88 379.38 72.6786 380.024 72.4778 380.668C72.4395 380.791 72.4006 380.915 72.3777 381.043C72.2611 381.695 72.619 382.404 73.2061 382.686C73.6635 382.906 79.5155 382.066 79.5462 383.407C78.9158 381.733 77.4062 380.436 75.6826 380.087C74.9888 379.947 74.2463 379.943 73.6307 379.588C73.2745 379.383 72.0625 377.085 72.5549 377.149C73.5973 377.287 74.6391 377.424 75.6809 377.561C78.9355 377.989 81.5653 378.861 83.4678 381.691C84.8423 383.736 85.6466 385.506 85.1657 387.975C85.0973 388.325 84.5567 391.099 83.7129 390.855C83.697 390.851 81.58 390.241 81.58 390.241Z" fill="#E2B4BD"/>
<path d="M72.2223 384.517L68.0462 383.268C67.8832 383.239 63.6092 382.444 63.2295 382.335C62.8251 382.217 61.9704 381.618 61.9338 381.199C61.9037 380.859 62.1214 380.451 62.1466 380.406L62.4727 380.591C62.4207 380.686 62.2894 380.976 62.3064 381.165C62.3272 381.336 62.9641 381.861 63.3323 381.967C63.6218 382.051 66.599 382.612 68.1327 382.896L72.3273 384.15L72.2223 384.517Z" fill="#E4A183"/>
<path d="M61.7665 382.314L61.6492 382.676L69.725 385.398L69.8422 385.036L61.7665 382.314Z" fill="#E4A183"/>
<path d="M124.741 373.492C124.615 374.349 124.581 375.212 124.693 376.078C125.061 378.928 126.9 380.333 129.426 380.848C131.872 381.348 134.357 382.269 136.912 382.322C142.792 382.444 153.679 383.459 159.549 383.088C163.501 382.839 173.993 382.136 173.981 376.296C173.973 372.738 171.918 368.397 171.37 364.785C170.821 361.169 170.518 357.513 170.464 353.855C170.346 345.98 172.47 338.635 172.953 330.854C173.216 326.611 172.695 322.321 171.444 318.267C170.496 315.201 169.841 311.73 168.175 308.986C167.255 307.471 164.082 305.248 163.707 308.581C163.389 311.4 165.54 313.529 163.047 316.205C159.027 320.519 150.224 321.085 150.224 321.085C150.224 321.085 141.422 320.519 137.401 316.205C134.825 313.441 138.791 305.058 137.157 304.362C134.731 303.333 132.536 310.27 132.009 311.777C130.239 316.845 128.64 321.051 129.076 326.59C129.364 330.244 130.193 333.807 130.912 337.389C131.558 340.612 130.949 343.81 130.604 347.089C129.823 354.489 128.274 361.806 125.985 368.873C125.496 370.383 124.968 371.928 124.741 373.492Z" fill="#00367D"/>
<path d="M152.351 403.332C149.682 403.949 147.726 404.205 144.488 403.515C141.049 402.763 137.019 405.259 134.198 406.946C132.427 408.006 130.687 409.268 128.775 410.017C126.738 410.816 124.571 411.37 122.489 412.04C121.984 412.203 121.469 412.37 121.043 412.691C120.617 413.011 120.287 413.517 120.314 414.056C120.354 414.871 121.199 415.448 121.998 415.472C122.797 415.496 123.549 415.119 124.263 414.752C123.794 414.897 123.312 415.047 122.929 415.359C122.546 415.672 122.28 416.187 122.4 416.672C122.562 417.332 123.367 417.64 124.016 417.487C124.665 417.333 125.186 416.855 125.675 416.394C124.101 416.162 124.545 417.639 125.132 418.23C126.038 419.142 128.276 418.969 129.417 418.915C135.655 418.619 140.649 416.658 146.359 414.514C149.157 413.463 151.533 412.183 154.509 412.095C159.22 411.956 163.94 411.974 168.652 411.914C177.885 411.796 187.118 411.678 196.351 411.559C200.756 411.503 205.393 411.383 209.179 409.084C212.964 406.785 215.389 401.501 213.127 397.643C211.819 395.413 209.272 394.182 206.744 393.866C204.216 393.55 201.664 394.019 199.158 394.488C189.154 396.358 179.15 398.227 169.146 400.097C164.167 401.028 159.059 401.703 154.138 402.901C153.498 403.058 152.909 403.202 152.351 403.332Z" fill="#DD96A9"/>
<path d="M142.88 416.064C142.231 416.322 134.371 418.004 136.039 411.715C137.707 405.427 144.173 402.803 143.575 402.937C142.978 403.069 140.947 401.99 136.039 404.234C129.73 407.119 122.049 408.288 119.367 415.697C118.933 416.894 119.001 418.368 119.861 419.295C120.948 420.464 122.771 420.351 124.337 420.152C130.862 419.32 136.899 418.953 142.88 416.064Z" fill="#002657"/>
<path d="M150.786 401.532C150.208 401.605 149.631 401.679 149.053 401.753C149.496 405.985 149.938 410.218 150.381 414.45C152.561 414.416 154.74 414.383 156.919 414.349C158.048 414.332 159.99 415.715 161.223 415.983C162.914 416.349 164.667 416.433 166.385 416.242C169.458 415.899 171.699 414.387 174.747 414.626C178.882 414.95 182.993 415.802 187.132 416.179C196.628 417.042 209.767 418.192 217.763 411.688C228.966 402.576 218.28 388.778 211.255 388.164C204.964 387.615 197.694 389.597 191.929 391.826C184.244 394.798 174.204 394.153 166.025 394.899C163.723 395.109 161.38 395.328 159.241 396.22C157.102 397.113 155.156 398.796 154.504 401.058C153.265 401.216 152.025 401.374 150.786 401.532Z" fill="#00367D"/>
<path d="M142.629 404.196C143.702 402.853 145.429 401.678 147.01 402.309C148.576 402.933 149.072 404.949 149.052 406.663C149.016 409.745 146.877 418.507 142.327 416.823C137.728 415.122 140.548 406.802 142.629 404.196Z" fill="#002657"/>
<path d="M148.111 404.147C150.779 404.765 152.736 405.02 155.974 404.33C159.413 403.578 163.443 406.074 166.264 407.762C169.525 409.712 173.936 411.413 176.073 414.798C176.934 416.161 177.183 418.062 176.241 419.368C175.351 420.601 173.708 420.963 172.208 421.032C168.862 421.186 166.354 420.034 163.335 418.942C160.228 417.818 157.197 416.491 154.104 415.33C151.306 414.279 148.93 412.998 145.954 412.911C141.243 412.773 136.523 412.791 131.811 412.73C122.578 412.612 113.345 412.494 104.112 412.376C99.7068 412.319 95.0695 412.199 91.2842 409.9C87.4988 407.601 85.0743 402.317 87.3363 398.459C88.644 396.229 91.1911 394.998 93.7191 394.682C96.247 394.366 98.799 394.836 101.305 395.304C111.309 397.174 121.313 399.043 131.317 400.913C136.296 401.844 141.404 402.519 146.325 403.718C146.963 403.872 147.553 404.017 148.111 404.147Z" fill="#E2B4BD"/>
<path d="M143.966 401.268C145.141 401.948 146.389 402.612 146.719 402.475C144.188 403.523 142.148 405.738 141.281 408.381C140.414 411.023 140.734 414.046 142.136 416.438C137.31 416.358 132.501 416.017 127.727 416.222C120.63 416.527 113.525 416.492 106.423 416.642C98.3624 416.812 89.9015 417.162 83.1718 411.688C71.9689 402.576 82.6552 388.778 89.6804 388.164C96.2191 387.594 103.497 389.919 109.819 391.305C114.766 392.389 119.274 393.869 124.373 394.642C128.442 395.259 131.956 395.957 135.835 397.463C137.839 398.24 139.819 399.085 141.769 399.995C142.095 400.146 143.006 400.712 143.966 401.268Z" fill="#00367D"/>
<path d="M149.041 337.791L159.289 304.195L141.172 303.502L149.041 337.791Z" fill="white"/>
<path d="M149.106 359.009L147.128 373.611H151.549L149.106 359.009Z" fill="white"/>
<path d="M88.4492 380.368C88.4492 380.368 92.262 382.595 93.4346 387.392C93.4346 387.392 119.287 375.285 121.18 369.716C123.072 364.148 118.949 359.87 118.949 359.87H113.341L88.4492 380.368Z" fill="#00367D"/>
<path d="M141.172 303.502C141.172 303.502 141.369 311.691 150.028 311.691C158.686 311.691 159.549 303.344 159.549 303.344L141.172 303.502Z" fill="#DDAFB8"/>
<path d="M141.172 303.502L133.877 310.361L149.041 337.791L141.172 303.502Z" fill="#002657"/>
<path d="M159.715 303.502L167.432 309.627L149.1 337.599L159.715 303.502Z" fill="#002657"/>
<path d="M149.041 343.966C149.881 343.966 150.562 343.271 150.562 342.414C150.562 341.556 149.881 340.862 149.041 340.862C148.201 340.862 147.52 341.556 147.52 342.414C147.52 343.271 148.201 343.966 149.041 343.966Z" fill="#002657"/>
<path d="M149.041 356.179C149.881 356.179 150.562 355.484 150.562 354.627C150.562 353.769 149.881 353.075 149.041 353.075C148.201 353.075 147.52 353.769 147.52 354.627C147.52 355.484 148.201 356.179 149.041 356.179Z" fill="#002657"/>
<path d="M159.55 417.484C161.601 418.297 165.7 418.419 166.694 415.892C168.191 412.082 165.079 407.557 161.777 406.093C158.834 404.788 155.755 405.016 152.648 404.813C154.481 402.505 159.161 402.135 161.698 402.93C165.375 404.082 168.277 407.025 171.51 409.021C173.552 410.283 175.607 411.553 177.394 413.167C178.979 414.599 186.788 425.498 180.51 423.829C176.806 422.844 173.166 421.816 169.412 421.193C165.726 420.582 162.965 418.841 159.55 417.484Z" fill="#002657"/>
<path d="M146.689 373.631L144.926 384.775H153.751L151.843 373.631H146.689Z" fill="#002657"/>
<path d="M171.138 364.408L159.381 368.705L160.692 371.967L171.816 368.705L171.138 364.408Z" fill="#002657"/>
<path d="M127.172 363.499C127.201 363.381 139.173 367.119 139.173 367.119L137.808 371.299L125.92 368.188L127.172 363.499Z" fill="#002657"/>
<path d="M101.735 300.369L104.212 304.99L108.741 307.517L104.212 310.045L101.735 314.666L99.2581 310.045L94.7292 307.517L99.2581 304.99L101.735 300.369Z" fill="#DEAD6D"/>
<path d="M207.977 342.188L210.106 346.16L213.999 348.333L210.106 350.505L207.977 354.478L205.848 350.505L201.955 348.333L205.848 346.16L207.977 342.188Z" fill="#DEAD6D"/>
<path d="M185.844 273.875L187.359 276.703L190.131 278.25L187.359 279.797L185.844 282.625L184.328 279.797L181.556 278.25L184.328 276.703L185.844 273.875Z" fill="#DEAD6D"/>
<path d="M75.7586 419.627L77.2749 422.455L80.0463 424.002L77.2749 425.549L75.7586 428.377L74.243 425.549L71.4715 424.002L74.243 422.455L75.7586 419.627Z" fill="#DEAD6D"/>
<path d="M216.305 423.143L217.821 425.971L220.592 427.518L217.821 429.064L216.305 431.892L214.79 429.064L212.018 427.518L214.79 425.971L216.305 423.143Z" fill="#DEAD6D"/>
<path d="M68.6111 292.736L33 309.007L52.9619 354.495L88.573 338.224L68.6111 292.736Z" fill="#A3B1C7"/>
<path d="M82.3191 303.827L45.28 316.348L60.6409 363.66L97.6801 351.139L82.3191 303.827Z" fill="#B8C8E0"/>
<path d="M82.1504 321.786L66.4121 327.105L67.1823 329.478L82.9206 324.159L82.1504 321.786Z" fill="white"/>
<path d="M75.283 315.924L59.5442 321.243L60.3145 323.616L76.0533 318.297L75.283 315.924Z" fill="white"/>
<path d="M62.5311 328.416L55.9093 330.654L56.6799 333.028L63.3017 330.789L62.5311 328.416Z" fill="white"/>
<path d="M60.7633 334.578L57.5355 335.669L58.306 338.042L61.5337 336.951L60.7633 334.578Z" fill="white"/>
<path d="M74.1401 330.056L64.1581 333.43L64.9287 335.804L74.9107 332.429L74.1401 330.056Z" fill="white"/>
<path d="M83.7894 326.794L78.5322 328.571L79.3027 330.944L84.5598 329.167L83.7894 326.794Z" fill="white"/>
<path d="M69.6794 337.127L59.165 340.681L59.9354 343.054L70.4498 339.5L69.6794 337.127Z" fill="white"/>
<path d="M85.4063 331.812L73.0614 335.984L73.8318 338.357L86.1766 334.185L85.4063 331.812Z" fill="white"/>
<path d="M64.6065 344.405L60.7799 345.698L61.5501 348.071L65.3767 346.778L64.6065 344.405Z" fill="white"/>
<path d="M78.481 339.716L67.3007 343.494L68.0709 345.867L79.2512 342.089L78.481 339.716Z" fill="white"/>
<path d="M87.0331 336.825L81.6761 338.636L82.4463 341.009L87.8032 339.198L87.0331 336.825Z" fill="white"/>
<path d="M73.3198 347.024L62.406 350.712L63.1762 353.085L74.09 349.397L73.3198 347.024Z" fill="white"/>
<path d="M88.6594 341.84L77.0137 345.776L77.7839 348.148L89.4296 344.213L88.6594 341.84Z" fill="white"/>
<path d="M223.242 262.409L228.174 261.305L262.341 269.428L250.56 303.341L218.518 276.008L223.242 262.409Z" fill="#60A3A1"/>
<path d="M262.764 276.709L223.232 262.41L205.329 313.943L244.862 328.243L262.764 276.709Z" fill="#81C0BE"/>
<path d="M259.36 296.783L252.76 297.008L258.371 280.854L263 286.303L259.36 296.783Z" fill="#81C0BE"/>
<path d="M250.884 281.005L229.177 273.153L224.264 287.297L245.971 295.149L250.884 281.005Z" fill="white"/>
<path d="M248.107 346.19L240.614 335.862C240.019 335.042 238.885 334.869 238.082 335.476L218.224 350.477C217.421 351.084 217.251 352.241 217.847 353.061L225.34 363.389C225.934 364.208 227.068 364.381 227.871 363.774L247.729 348.773C248.533 348.166 248.702 347.009 248.107 346.19Z" fill="#002657"/>
<path d="M218.43 351.439L238.923 335.958C239.14 335.794 239.446 335.841 239.607 336.063L247.625 347.114C247.786 347.335 247.74 347.648 247.523 347.812L227.03 363.293C226.813 363.457 226.506 363.41 226.345 363.188L218.328 352.137C218.167 351.915 218.213 351.602 218.43 351.439Z" fill="#B8C8E0"/>
<path d="M239.473 350.611C238.167 351.598 236.522 351.783 235.106 351.248C234.282 350.946 233.538 350.397 232.976 349.622C232.418 348.854 232.117 347.962 232.074 347.069C231.99 345.537 232.644 343.985 233.949 342.999C236.008 341.443 238.912 341.886 240.437 343.987C241.966 346.093 241.532 349.056 239.473 350.611Z" fill="white"/>
<path d="M225.153 354.814C224.248 355.498 222.972 355.303 222.303 354.38C221.633 353.458 221.824 352.156 222.728 351.473C223.632 350.789 224.908 350.984 225.578 351.906C226.247 352.829 226.057 354.131 225.153 354.814Z" fill="white"/>
<path d="M228.37 359.249C227.465 359.933 226.189 359.738 225.52 358.815C224.85 357.892 225.041 356.59 225.945 355.908C226.85 355.225 228.126 355.418 228.795 356.341C229.465 357.264 229.274 358.566 228.37 359.249Z" fill="white"/>
<path d="M238.325 347.415C237.685 347.898 236.783 347.76 236.309 347.108C235.836 346.455 235.971 345.534 236.61 345.051C237.249 344.568 238.152 344.706 238.625 345.358C239.099 346.011 238.964 346.931 238.325 347.415Z" fill="#81C0BE"/>
<path d="M235.553 350.91L235.486 350.961C234.662 350.659 233.918 350.11 233.356 349.335C232.799 348.567 232.497 347.675 232.454 346.782L232.521 346.731C233.653 345.875 235.25 346.124 236.085 347.274C236.923 348.43 236.686 350.054 235.553 350.91Z" fill="#81C0BE"/>
<path d="M241.918 338.512C241.982 338.639 241.221 339.802 241.221 339.802L244.622 344.534L246.499 344.504C246.499 344.504 241.763 338.208 241.918 338.512Z" fill="#002657"/>
<path d="M242.138 352.584L244.546 350.784L244.9 351.408L242.555 353.191L242.138 352.584Z" fill="#002657"/>
<path d="M109.694 250.118L100.385 269.31C99.9011 270.308 98.7164 270.716 97.7386 270.222L70.0702 256.249C69.0924 255.756 68.6919 254.546 69.1762 253.548L78.4847 234.357C78.9684 233.359 80.1536 232.95 81.1314 233.444L108.8 247.417C109.778 247.911 110.178 249.12 109.694 250.118Z" fill="#002657"/>
<path d="M72.9002 245.87C73.8611 246.254 103.718 262.44 103.718 262.44" stroke="white" stroke-miterlimit="10"/>
<path d="M87.7686 249.536L91.8106 251.51" stroke="white" stroke-miterlimit="10"/>
<path d="M142.665 283.828C144.977 283.828 146.851 281.916 146.851 279.557C146.851 277.198 144.977 275.286 142.665 275.286C140.353 275.286 138.479 277.198 138.479 279.557C138.479 281.916 140.353 283.828 142.665 283.828Z" stroke="white" stroke-miterlimit="10"/>
<path d="M153.227 283.828C155.539 283.828 157.413 281.916 157.413 279.557C157.413 277.198 155.539 275.286 153.227 275.286C150.915 275.286 149.041 277.198 149.041 279.557C149.041 281.916 150.915 283.828 153.227 283.828Z" stroke="white" stroke-miterlimit="10"/>
<path d="M157.412 279.557L160.827 278.25" stroke="white" stroke-miterlimit="10" stroke-linecap="round" stroke-linejoin="round"/>
<path d="M146.85 279.557H149.041" stroke="white" stroke-miterlimit="10"/>
<rect x="105" y="178" width="1" height="1" fill="#D9D9D9"/>
<rect x="104" y="178" width="1" height="1" fill="#D9D9D9"/>
<path d="M119.166 38L116.76 25.0664L112.33 38.2734H111.633L107.271 25.0664L104.92 38H102.309L106.205 17.9844H107.408L112.057 32.5723L116.678 17.9844H117.854L121.777 38H119.166ZM132.414 36.3184C131.357 37.6217 129.771 38.2734 127.656 38.2734C126.499 38.2734 125.501 37.8542 124.662 37.0156C123.824 36.1771 123.404 35.1426 123.404 33.9121C123.404 32.4264 124.047 31.1732 125.332 30.1523C126.626 29.1315 128.285 28.6211 130.309 28.6211C130.865 28.6211 131.493 28.7305 132.195 28.9492C132.195 26.5794 131.129 25.3945 128.996 25.3945C127.401 25.3945 126.152 25.8366 125.25 26.7207L124.156 24.5605C124.594 24.1868 125.255 23.8451 126.139 23.5352C127.032 23.2253 127.893 23.0703 128.723 23.0703C130.783 23.0703 132.305 23.5397 133.289 24.4785C134.273 25.4173 134.766 26.9759 134.766 29.1543V34.3906C134.766 35.6758 135.148 36.5326 135.914 36.9609V38.2461C134.784 38.2461 133.964 38.0775 133.453 37.7402C132.952 37.403 132.605 36.929 132.414 36.3184ZM132.195 30.8086C131.266 30.6172 130.687 30.5215 130.459 30.5215C129.146 30.5215 128.076 30.8633 127.246 31.5469C126.417 32.2305 126.002 33.028 126.002 33.9395C126.002 35.4707 126.9 36.2363 128.695 36.2363C129.98 36.2363 131.147 35.612 132.195 34.3633V30.8086ZM149.736 24.5605L148.479 26.3789C148.16 26.0964 147.676 25.8411 147.029 25.6133C146.391 25.3763 145.744 25.2578 145.088 25.2578C143.666 25.2578 142.54 25.7591 141.711 26.7617C140.882 27.7643 140.467 29.1224 140.467 30.8359C140.467 32.4948 140.882 33.7891 141.711 34.7188C142.54 35.6393 143.73 36.0996 145.279 36.0996C146.446 36.0996 147.626 35.6393 148.82 34.7188L149.818 36.9062C148.46 37.8177 146.733 38.2734 144.637 38.2734C142.65 38.2734 141.005 37.6035 139.701 36.2637C138.407 34.9147 137.76 33.1055 137.76 30.8359C137.76 28.4388 138.443 26.5475 139.811 25.1621C141.187 23.7676 143.033 23.0703 145.348 23.0703C146.141 23.0703 146.975 23.2344 147.85 23.5625C148.725 23.8906 149.354 24.2233 149.736 24.5605ZM162.588 25.5449H158.391V38H155.793V25.5449H151.582V23.3574H162.588V25.5449ZM177.6 30.9453H167.045C167.045 32.0208 167.227 32.9323 167.592 33.6797C167.956 34.4271 168.48 35.0195 169.164 35.457C169.857 35.8854 170.691 36.0996 171.666 36.0996C173.133 36.0996 174.373 35.6576 175.385 34.7734L176.451 36.8789C175.768 37.4167 175.016 37.7858 174.195 37.9863C173.375 38.1777 172.363 38.2734 171.16 38.2734C169.173 38.2734 167.537 37.5944 166.252 36.2363C164.976 34.8691 164.338 33.0781 164.338 30.8633C164.338 28.5391 165.008 26.6615 166.348 25.2305C167.697 23.7904 169.31 23.0703 171.188 23.0703C173.211 23.0703 174.824 23.64 176.027 24.7793C177.23 25.9095 177.832 27.4316 177.832 29.3457C177.832 29.7285 177.755 30.2617 177.6 30.9453ZM171.297 25.2578C170.158 25.2578 169.196 25.6315 168.412 26.3789C167.637 27.1172 167.209 28.0059 167.127 29.0449H175.221C175.221 27.9329 174.865 27.026 174.154 26.3242C173.443 25.6133 172.491 25.2578 171.297 25.2578ZM183.205 37.1934V43.7422H180.594V23.3574H183.205V24.5605C184.189 23.5671 185.374 23.0703 186.76 23.0703C188.829 23.0703 190.442 23.7266 191.6 25.0391C192.757 26.3424 193.336 28.2383 193.336 30.7266C193.336 32.9688 192.748 34.7871 191.572 36.1816C190.406 37.5762 188.724 38.2734 186.527 38.2734C185.926 38.2734 185.27 38.1641 184.559 37.9453C183.857 37.7266 183.406 37.4759 183.205 37.1934ZM183.205 26.5156V35.0605C183.406 35.3249 183.761 35.5664 184.271 35.7852C184.782 35.9948 185.283 36.0996 185.775 36.0996C189.002 36.0996 190.615 34.2676 190.615 30.6035C190.615 28.7077 190.223 27.3451 189.439 26.5156C188.656 25.6771 187.434 25.2578 185.775 25.2578C185.42 25.2578 184.969 25.3945 184.422 25.668C183.875 25.9414 183.469 26.224 183.205 26.5156Z" fill="black"/>
<path d="M56.5998 71.9C56.5998 69.46 57.7398 67.32 60.0198 65.48C62.2998 63.64 65.4398 62.72 69.4398 62.72C73.4398 62.72 76.5398 63.78 78.7398 65.9C80.9398 67.98 82.0398 70.56 82.0398 73.64C82.0398 76.72 81.0198 79.58 78.9798 82.22C76.9398 84.82 72.3798 89.56 65.2998 96.44C63.9398 97.76 62.8998 98.78 62.1798 99.5H80.4798C82.1598 99.5 82.9998 100.26 82.9998 101.78C82.9998 103.26 82.1598 104 80.4798 104H58.2198C56.5798 104 55.7598 103.14 55.7598 101.42C55.7598 99.98 56.3998 98.78 57.6798 97.82C65.5998 90.3 70.8198 85.08 73.3398 82.16C75.8598 79.2 77.1198 76.64 77.1198 74.48C77.1198 72.28 76.3598 70.54 74.8398 69.26C73.3598 67.94 71.2998 67.28 68.6598 67.28C66.0598 67.28 64.0198 68.08 62.5398 69.68C61.0598 71.28 60.1998 72.98 59.9598 74.78C57.7198 74.78 56.5998 73.82 56.5998 71.9ZM94.501 68.12C97.741 64.52 101.841 62.72 106.801 62.72C111.761 62.72 115.841 64.52 119.041 68.12C122.241 71.68 123.841 76.8 123.841 83.48C123.841 90.12 122.221 95.28 118.981 98.96C115.781 102.64 111.721 104.48 106.801 104.48C101.881 104.48 97.781 102.64 94.501 98.96C91.261 95.28 89.641 90.12 89.641 83.48C89.641 76.84 91.261 71.72 94.501 68.12ZM118.201 83.66C118.201 78.54 117.101 74.56 114.901 71.72C112.741 68.84 110.021 67.4 106.741 67.4C103.461 67.4 100.741 68.84 98.581 71.72C96.461 74.56 95.401 78.54 95.401 83.66C95.401 88.74 96.401 92.72 98.401 95.6C100.401 98.44 103.181 99.86 106.741 99.86C110.341 99.86 113.141 98.44 115.141 95.6C117.181 92.72 118.201 88.74 118.201 83.66ZM135.927 68.12C139.167 64.52 143.267 62.72 148.227 62.72C153.187 62.72 157.267 64.52 160.467 68.12C163.667 71.68 165.267 76.8 165.267 83.48C165.267 90.12 163.647 95.28 160.407 98.96C157.207 102.64 153.147 104.48 148.227 104.48C143.307 104.48 139.207 102.64 135.927 98.96C132.687 95.28 131.067 90.12 131.067 83.48C131.067 76.84 132.687 71.72 135.927 68.12ZM159.627 83.66C159.627 78.54 158.527 74.56 156.327 71.72C154.167 68.84 151.447 67.4 148.167 67.4C144.887 67.4 142.167 68.84 140.007 71.72C137.887 74.56 136.827 78.54 136.827 83.66C136.827 88.74 137.827 92.72 139.827 95.6C141.827 98.44 144.607 99.86 148.167 99.86C151.767 99.86 154.567 98.44 156.567 95.6C158.607 92.72 159.627 88.74 159.627 83.66ZM177.353 68.12C180.593 64.52 184.693 62.72 189.653 62.72C194.613 62.72 198.693 64.52 201.893 68.12C205.093 71.68 206.693 76.8 206.693 83.48C206.693 90.12 205.073 95.28 201.833 98.96C198.633 102.64 194.573 104.48 189.653 104.48C184.733 104.48 180.633 102.64 177.353 98.96C174.113 95.28 172.493 90.12 172.493 83.48C172.493 76.84 174.113 71.72 177.353 68.12ZM201.053 83.66C201.053 78.54 199.953 74.56 197.753 71.72C195.593 68.84 192.873 67.4 189.593 67.4C186.313 67.4 183.593 68.84 181.433 71.72C179.313 74.56 178.253 78.54 178.253 83.66C178.253 88.74 179.253 92.72 181.253 95.6C183.253 98.44 186.033 99.86 189.593 99.86C193.193 99.86 195.993 98.44 197.993 95.6C200.033 92.72 201.053 88.74 201.053 83.66ZM216.138 104V61.16H227.418C232.658 61.16 236.538 62.22 239.058 64.34C241.618 66.46 242.898 69.54 242.898 73.58C242.898 76.3 242.278 78.64 241.038 80.6C239.798 82.52 237.958 84 235.518 85.04C233.118 86.08 230.138 86.6 226.578 86.6H221.538V104H216.138ZM210.918 95.84V91.94H231.438V95.84H210.918ZM210.918 86.6V82.04H224.658V86.6H210.918ZM225.798 82.04C228.238 82.04 230.298 81.78 231.978 81.26C233.698 80.74 235.018 79.88 235.938 78.68C236.858 77.48 237.318 75.84 237.318 73.76C237.318 71.04 236.478 69.02 234.798 67.7C233.118 66.38 230.498 65.72 226.938 65.72H221.538V82.04H225.798Z" fill="black"/>
<path d="M116.493 126.823C117.961 127.296 118.695 128.263 118.695 129.724C118.695 130.669 118.33 131.453 117.6 132.076C116.869 132.692 115.773 133 114.312 133H109.629V121.517C111.247 121.431 112.744 121.388 114.119 121.388C115.415 121.388 116.422 121.653 117.138 122.183C117.854 122.705 118.212 123.472 118.212 124.481C118.212 124.99 118.058 125.455 117.75 125.878C117.442 126.3 117.023 126.616 116.493 126.823ZM111.562 126.179C111.677 126.193 112.501 126.2 114.033 126.2C115.487 126.2 116.214 125.634 116.214 124.503C116.214 124.016 116.042 123.636 115.698 123.364C115.362 123.085 114.885 122.945 114.27 122.945C113.088 122.945 112.186 122.974 111.562 123.031V126.179ZM111.562 131.367C112.372 131.417 113.21 131.442 114.076 131.442C115.788 131.442 116.644 130.819 116.644 129.573C116.644 128.972 116.422 128.51 115.978 128.188C115.534 127.858 114.885 127.693 114.033 127.693C112.938 127.693 112.114 127.711 111.562 127.747V131.367ZM138.59 133L137.376 126.071L133.906 133.193H133.358L129.899 126.179L128.718 133H126.752L128.954 121.291H129.502L133.756 129.874L137.956 121.291H138.482L140.642 133H138.59ZM152.329 127.457H144.036C144.036 128.302 144.179 129.018 144.466 129.605C144.752 130.193 145.164 130.658 145.701 131.002C146.245 131.339 146.901 131.507 147.667 131.507C148.82 131.507 149.794 131.16 150.589 130.465L151.427 132.119C150.89 132.542 150.299 132.832 149.654 132.989C149.01 133.14 148.215 133.215 147.27 133.215C145.708 133.215 144.423 132.681 143.413 131.614C142.41 130.54 141.909 129.133 141.909 127.393C141.909 125.566 142.436 124.091 143.488 122.967C144.548 121.835 145.816 121.27 147.291 121.27C148.881 121.27 150.148 121.717 151.094 122.612C152.039 123.5 152.512 124.696 152.512 126.2C152.512 126.501 152.451 126.92 152.329 127.457ZM147.377 122.988C146.482 122.988 145.726 123.282 145.11 123.869C144.502 124.449 144.165 125.147 144.101 125.964H150.46C150.46 125.09 150.181 124.378 149.622 123.826C149.063 123.268 148.315 122.988 147.377 122.988ZM163.372 122.44L162.384 123.869C162.133 123.647 161.754 123.447 161.245 123.268C160.744 123.081 160.235 122.988 159.72 122.988C158.603 122.988 157.718 123.382 157.066 124.17C156.415 124.958 156.089 126.025 156.089 127.371C156.089 128.674 156.415 129.691 157.066 130.422C157.718 131.145 158.653 131.507 159.87 131.507C160.787 131.507 161.714 131.145 162.652 130.422L163.437 132.141C162.369 132.857 161.012 133.215 159.365 133.215C157.804 133.215 156.511 132.688 155.487 131.636C154.47 130.576 153.962 129.154 153.962 127.371C153.962 125.488 154.499 124.002 155.573 122.913C156.655 121.817 158.105 121.27 159.924 121.27C160.547 121.27 161.202 121.398 161.89 121.656C162.577 121.914 163.071 122.175 163.372 122.44ZM174.243 133H172.288V128.316H171.343C170.269 128.316 169.452 128.538 168.894 128.982C168.335 129.426 167.963 130.186 167.776 131.26C167.562 132.492 166.849 133.107 165.639 133.107C165.374 133.107 165.141 133.093 164.94 133.064V131.281C165.048 131.31 165.188 131.324 165.359 131.324C165.689 131.324 165.893 131.113 165.972 130.69C166.258 129.237 167.092 128.245 168.475 127.715C167.608 127.572 166.928 127.239 166.434 126.716C165.947 126.186 165.703 125.574 165.703 124.879C165.703 124.113 165.918 123.439 166.348 122.859C166.777 122.279 167.332 121.885 168.013 121.678C168.693 121.47 169.531 121.366 170.526 121.366C171.729 121.366 172.968 121.424 174.243 121.538V133ZM172.288 126.866V123.031C171.572 122.96 170.895 122.924 170.258 122.924C169.406 122.924 168.772 123.106 168.356 123.472C167.941 123.83 167.733 124.27 167.733 124.793C167.733 125.48 168.002 125.993 168.539 126.329C169.083 126.659 169.767 126.83 170.591 126.845L172.288 126.866ZM187.295 136.717H185.447V133H177.154V121.495H179.206V131.303H183.911V121.495H185.952V131.303H187.295V136.717Z" fill="black"/>
<path d="M38.958 152.101C39.5049 152.101 39.9697 152.294 40.3525 152.682C40.7399 153.064 40.9336 153.529 40.9336 154.076C40.9336 154.623 40.7399 155.09 40.3525 155.478C39.9697 155.86 39.5049 156.052 38.958 156.052C38.4111 156.052 37.944 155.86 37.5566 155.478C37.1738 155.09 36.9824 154.623 36.9824 154.076C36.9824 153.529 37.1738 153.064 37.5566 152.682C37.944 152.294 38.4111 152.101 38.958 152.101ZM58.7891 160.871H57.5449V158H50.8662V160.871H49.6221V156.852H50.21C50.8525 156.004 51.3835 155.145 51.8027 154.274C52.222 153.399 52.557 152.527 52.8076 151.656C53.0628 150.786 53.359 149.564 53.6963 147.992H57.7227V156.852H58.7891V160.871ZM56.4102 156.852V149.141H54.6328C54.0267 152.344 53.0241 154.915 51.625 156.852H56.4102ZM62.8701 150.535C63.9183 150.535 64.7295 150.875 65.3037 151.554C65.8825 152.228 66.1719 153.149 66.1719 154.315C66.1719 155.514 65.8711 156.451 65.2695 157.125C64.668 157.799 63.8682 158.137 62.8701 158.137C61.8265 158.137 61.013 157.795 60.4297 157.111C59.8464 156.428 59.5547 155.496 59.5547 154.315C59.5547 153.19 59.86 152.278 60.4707 151.581C61.0814 150.884 61.8812 150.535 62.8701 150.535ZM62.8701 157.077C63.4808 157.077 63.9548 156.824 64.292 156.318C64.6338 155.812 64.8047 155.145 64.8047 154.315C64.8047 152.506 64.1598 151.602 62.8701 151.602C62.2594 151.602 61.7786 151.848 61.4277 152.34C61.0814 152.832 60.9082 153.491 60.9082 154.315C60.9082 156.157 61.5622 157.077 62.8701 157.077ZM71.3193 158V157.727L74.457 152.921C75.1133 151.914 75.4414 151.059 75.4414 150.357C75.4414 149.432 74.9196 148.97 73.876 148.97C73.5068 148.97 73.1605 149.068 72.8369 149.264C72.5133 149.455 72.2786 149.699 72.1328 149.995L71.251 149.271C71.4059 148.824 71.709 148.468 72.1602 148.204C72.6159 147.94 73.165 147.808 73.8076 147.808C74.7692 147.808 75.5212 148.031 76.0635 148.478C76.6058 148.92 76.877 149.546 76.877 150.357C76.877 151.109 76.5169 152.057 75.7969 153.201L73.5479 156.77H77.4717V158H71.3193ZM78.627 152.688C78.627 151.248 78.9186 150.075 79.502 149.168C80.0853 148.261 80.9056 147.808 81.9629 147.808C83.0111 147.808 83.7972 148.186 84.3213 148.942C84.8499 149.699 85.1143 151.021 85.1143 152.907C85.1143 154.53 84.8385 155.808 84.2871 156.742C83.7357 157.672 82.929 158.137 81.8672 158.137C80.8053 158.137 79.9987 157.761 79.4473 157.009C78.9004 156.257 78.627 154.817 78.627 152.688ZM79.9941 152.812C79.9941 155.587 80.5866 156.975 81.7715 156.975C82.4505 156.975 82.9495 156.667 83.2686 156.052C83.5876 155.437 83.7471 154.359 83.7471 152.818C83.7471 151.757 83.6855 150.977 83.5625 150.48C83.4395 149.984 83.2412 149.608 82.9678 149.353C82.6943 149.097 82.348 148.97 81.9287 148.97C80.639 148.97 79.9941 150.25 79.9941 152.812ZM94.2812 154.179C95.1927 154.511 95.6484 155.108 95.6484 155.97C95.6484 156.649 95.391 157.18 94.876 157.562C94.3656 157.945 93.6706 158.137 92.791 158.137C91.8203 158.137 90.9248 157.863 90.1045 157.316L90.7607 156.277C91.3395 156.811 92.0368 157.077 92.8525 157.077C93.2946 157.077 93.6455 156.977 93.9053 156.776C94.165 156.571 94.2949 156.302 94.2949 155.97C94.2949 155.095 93.748 154.657 92.6543 154.657C92.3444 154.657 92.0732 154.671 91.8408 154.698V153.659C91.9229 153.668 92.2077 153.673 92.6953 153.673C93.1419 153.673 93.4883 153.586 93.7344 153.413C93.985 153.235 94.1104 152.992 94.1104 152.682C94.1104 152.34 93.9964 152.076 93.7686 151.889C93.5452 151.697 93.2308 151.602 92.8252 151.602C92.21 151.602 91.5697 151.788 90.9043 152.162L90.4258 151.109C91.2643 150.727 92.0869 150.535 92.8936 150.535C93.6136 150.535 94.2174 150.727 94.7051 151.109C95.1927 151.488 95.4365 151.993 95.4365 152.627C95.4365 153.379 95.0514 153.896 94.2812 154.179ZM101.097 157.159C100.568 157.811 99.7751 158.137 98.7178 158.137C98.139 158.137 97.64 157.927 97.2207 157.508C96.8014 157.089 96.5918 156.571 96.5918 155.956C96.5918 155.213 96.9131 154.587 97.5557 154.076C98.2028 153.566 99.0322 153.311 100.044 153.311C100.322 153.311 100.636 153.365 100.987 153.475C100.987 152.29 100.454 151.697 99.3877 151.697C98.5902 151.697 97.9658 151.918 97.5146 152.36L96.9678 151.28C97.1865 151.093 97.5169 150.923 97.959 150.768C98.4056 150.613 98.8363 150.535 99.251 150.535C100.281 150.535 101.042 150.77 101.534 151.239C102.026 151.709 102.272 152.488 102.272 153.577V156.195C102.272 156.838 102.464 157.266 102.847 157.48V158.123C102.282 158.123 101.871 158.039 101.616 157.87C101.366 157.701 101.192 157.465 101.097 157.159ZM100.987 154.404C100.522 154.309 100.233 154.261 100.119 154.261C99.4629 154.261 98.9274 154.432 98.5127 154.773C98.098 155.115 97.8906 155.514 97.8906 155.97C97.8906 156.735 98.3395 157.118 99.2373 157.118C99.8799 157.118 100.463 156.806 100.987 156.182V154.404ZM110.024 158H108.726V151.772H105.533V158H104.228V150.679H110.024V158ZM113.176 157.597V160.871H111.87V150.679H113.176V151.28C113.668 150.784 114.26 150.535 114.953 150.535C115.988 150.535 116.794 150.863 117.373 151.52C117.952 152.171 118.241 153.119 118.241 154.363C118.241 155.484 117.947 156.394 117.359 157.091C116.776 157.788 115.935 158.137 114.837 158.137C114.536 158.137 114.208 158.082 113.853 157.973C113.502 157.863 113.276 157.738 113.176 157.597ZM113.176 152.258V156.53C113.276 156.662 113.454 156.783 113.709 156.893C113.964 156.997 114.215 157.05 114.461 157.05C116.074 157.05 116.881 156.134 116.881 154.302C116.881 153.354 116.685 152.673 116.293 152.258C115.901 151.839 115.29 151.629 114.461 151.629C114.283 151.629 114.058 151.697 113.784 151.834C113.511 151.971 113.308 152.112 113.176 152.258ZM122.521 150.535C123.569 150.535 124.38 150.875 124.954 151.554C125.533 152.228 125.822 153.149 125.822 154.315C125.822 155.514 125.521 156.451 124.92 157.125C124.318 157.799 123.519 158.137 122.521 158.137C121.477 158.137 120.663 157.795 120.08 157.111C119.497 156.428 119.205 155.496 119.205 154.315C119.205 153.19 119.51 152.278 120.121 151.581C120.732 150.884 121.532 150.535 122.521 150.535ZM122.521 157.077C123.131 157.077 123.605 156.824 123.942 156.318C124.284 155.812 124.455 155.145 124.455 154.315C124.455 152.506 123.81 151.602 122.521 151.602C121.91 151.602 121.429 151.848 121.078 152.34C120.732 152.832 120.559 153.491 120.559 154.315C120.559 156.157 121.213 157.077 122.521 157.077ZM132.727 151.28L132.098 152.189C131.938 152.048 131.697 151.921 131.373 151.807C131.054 151.688 130.73 151.629 130.402 151.629C129.691 151.629 129.129 151.88 128.714 152.381C128.299 152.882 128.092 153.561 128.092 154.418C128.092 155.247 128.299 155.895 128.714 156.359C129.129 156.82 129.723 157.05 130.498 157.05C131.081 157.05 131.672 156.82 132.269 156.359L132.768 157.453C132.089 157.909 131.225 158.137 130.177 158.137C129.183 158.137 128.361 157.802 127.709 157.132C127.062 156.457 126.738 155.553 126.738 154.418C126.738 153.219 127.08 152.274 127.764 151.581C128.452 150.884 129.375 150.535 130.532 150.535C130.929 150.535 131.346 150.617 131.783 150.781C132.221 150.945 132.535 151.112 132.727 151.28ZM136.999 150.535C138.047 150.535 138.858 150.875 139.433 151.554C140.011 152.228 140.301 153.149 140.301 154.315C140.301 155.514 140 156.451 139.398 157.125C138.797 157.799 137.997 158.137 136.999 158.137C135.955 158.137 135.142 157.795 134.559 157.111C133.975 156.428 133.684 155.496 133.684 154.315C133.684 153.19 133.989 152.278 134.6 151.581C135.21 150.884 136.01 150.535 136.999 150.535ZM136.999 157.077C137.61 157.077 138.084 156.824 138.421 156.318C138.763 155.812 138.934 155.145 138.934 154.315C138.934 152.506 138.289 151.602 136.999 151.602C136.388 151.602 135.908 151.848 135.557 152.34C135.21 152.832 135.037 153.491 135.037 154.315C135.037 156.157 135.691 157.077 136.999 157.077ZM146.043 154.069C146.977 154.37 147.444 154.985 147.444 155.915C147.444 156.517 147.212 157.016 146.747 157.412C146.282 157.804 145.585 158 144.655 158H141.675V150.692C142.705 150.638 143.657 150.61 144.532 150.61C145.357 150.61 145.997 150.779 146.453 151.116C146.909 151.449 147.137 151.937 147.137 152.579C147.137 152.903 147.039 153.199 146.843 153.468C146.647 153.737 146.38 153.937 146.043 154.069ZM142.905 153.659C142.978 153.668 143.502 153.673 144.478 153.673C145.403 153.673 145.865 153.313 145.865 152.593C145.865 152.283 145.756 152.041 145.537 151.868C145.323 151.69 145.02 151.602 144.628 151.602C143.876 151.602 143.302 151.62 142.905 151.656V153.659ZM142.905 156.961C143.42 156.993 143.953 157.009 144.505 157.009C145.594 157.009 146.139 156.612 146.139 155.819C146.139 155.437 145.997 155.143 145.715 154.938C145.432 154.728 145.02 154.623 144.478 154.623C143.78 154.623 143.256 154.634 142.905 154.657V156.961ZM157.5 154.069C158.434 154.37 158.901 154.985 158.901 155.915C158.901 156.517 158.669 157.016 158.204 157.412C157.739 157.804 157.042 158 156.112 158H153.132V150.692C154.162 150.638 155.114 150.61 155.989 150.61C156.814 150.61 157.454 150.779 157.91 151.116C158.366 151.449 158.594 151.937 158.594 152.579C158.594 152.903 158.496 153.199 158.3 153.468C158.104 153.737 157.837 153.937 157.5 154.069ZM154.362 153.659C154.435 153.668 154.959 153.673 155.935 153.673C156.86 153.673 157.322 153.313 157.322 152.593C157.322 152.283 157.213 152.041 156.994 151.868C156.78 151.69 156.477 151.602 156.085 151.602C155.333 151.602 154.759 151.62 154.362 151.656V153.659ZM154.362 156.961C154.877 156.993 155.41 157.009 155.962 157.009C157.051 157.009 157.596 156.612 157.596 155.819C157.596 155.437 157.454 155.143 157.172 154.938C156.889 154.728 156.477 154.623 155.935 154.623C155.237 154.623 154.713 154.634 154.362 154.657V156.961ZM170.112 151.273L169.47 152.189C169.338 152.057 169.103 151.932 168.766 151.813C168.433 151.695 168.105 151.636 167.781 151.636C167.075 151.636 166.514 151.884 166.1 152.381C165.685 152.873 165.478 153.55 165.478 154.411C165.478 155.268 165.689 155.922 166.113 156.373C166.537 156.82 167.125 157.043 167.877 157.043C168.46 157.043 169.048 156.817 169.641 156.366L170.153 157.46C169.456 157.911 168.592 158.137 167.562 158.137C166.564 158.137 165.74 157.802 165.088 157.132C164.436 156.462 164.11 155.555 164.11 154.411C164.11 153.244 164.448 152.308 165.122 151.602C165.801 150.895 166.729 150.542 167.904 150.542C168.283 150.542 168.693 150.622 169.135 150.781C169.577 150.941 169.903 151.105 170.112 151.273ZM176.032 158V153.399C176.032 152.853 175.898 152.422 175.629 152.107C175.36 151.793 174.982 151.636 174.494 151.636C174.18 151.636 173.863 151.729 173.544 151.916C173.229 152.098 172.988 152.312 172.819 152.559V158H171.521V147.678H172.819V151.485C172.993 151.216 173.271 150.993 173.653 150.815C174.041 150.633 174.439 150.542 174.85 150.542C175.624 150.542 176.23 150.797 176.668 151.308C177.11 151.818 177.331 152.515 177.331 153.399V158H176.032ZM183.312 157.159C182.793 157.811 181.998 158.137 180.927 158.137C180.353 158.137 179.854 157.929 179.43 157.515C179.01 157.095 178.801 156.576 178.801 155.956C178.801 155.213 179.124 154.587 179.771 154.076C180.423 153.561 181.253 153.304 182.26 153.304C182.533 153.304 182.843 153.363 183.189 153.481C183.189 152.297 182.661 151.704 181.604 151.704C180.792 151.704 180.168 151.923 179.73 152.36L179.184 151.273C179.43 151.073 179.769 150.902 180.202 150.761C180.64 150.615 181.057 150.542 181.453 150.542C182.515 150.542 183.285 150.784 183.764 151.267C184.247 151.75 184.488 152.518 184.488 153.57V156.195C184.488 156.838 184.68 157.266 185.062 157.48V158.13C184.534 158.13 184.137 158.055 183.873 157.904C183.613 157.754 183.426 157.506 183.312 157.159ZM183.189 154.404C182.779 154.313 182.492 154.268 182.328 154.268C181.672 154.268 181.136 154.436 180.722 154.773C180.307 155.111 180.1 155.509 180.1 155.97C180.1 156.731 180.549 157.111 181.446 157.111C182.103 157.111 182.684 156.799 183.189 156.175V154.404ZM186.997 151.704H186.149V150.679H186.997V149.147L188.296 148.648V150.679H190.306V151.704H188.296V155.341C188.296 155.956 188.398 156.394 188.604 156.653C188.813 156.913 189.148 157.043 189.608 157.043C189.941 157.043 190.285 156.959 190.641 156.79L190.832 157.932C190.294 158.068 189.704 158.137 189.062 158.137C188.483 158.137 187.993 157.923 187.592 157.494C187.195 157.061 186.997 156.517 186.997 155.86V151.704ZM199.124 148.683L198.557 149.811C197.868 149.3 197.194 149.045 196.533 149.045C195.485 149.045 194.658 149.414 194.052 150.152C193.446 150.891 193.143 151.868 193.143 153.085C193.143 154.243 193.439 155.174 194.031 155.881C194.628 156.587 195.439 156.94 196.465 156.94C197.194 156.94 197.784 156.722 198.235 156.284V153.939H196.848V152.777H199.603V157.139C199.238 157.449 198.73 157.699 198.078 157.891C197.426 158.077 196.793 158.171 196.178 158.171C194.797 158.171 193.705 157.704 192.903 156.77C192.106 155.831 191.707 154.584 191.707 153.03C191.707 151.481 192.145 150.225 193.02 149.264C193.899 148.298 195.084 147.814 196.574 147.814C197.618 147.814 198.468 148.104 199.124 148.683ZM203.027 154.145V158H201.66V147.985C202.695 147.94 203.319 147.917 203.533 147.917C206.441 147.917 207.895 148.89 207.895 150.836C207.895 153.087 206.609 154.213 204.039 154.213C203.884 154.213 203.547 154.19 203.027 154.145ZM203.027 149.216V152.914C203.606 152.96 203.911 152.982 203.943 152.982C205.639 152.982 206.486 152.315 206.486 150.979C206.486 149.758 205.582 149.147 203.772 149.147C203.59 149.147 203.342 149.17 203.027 149.216ZM213.117 149.216V158H211.75V149.216H208.564V147.985H216.446V149.216H213.117Z" fill="black"/>
<path d="M35.5342 180.101C36.0811 180.101 36.5459 180.294 36.9287 180.682C37.3161 181.064 37.5098 181.529 37.5098 182.076C37.5098 182.623 37.3161 183.09 36.9287 183.478C36.5459 183.86 36.0811 184.052 35.5342 184.052C34.9873 184.052 34.5202 183.86 34.1328 183.478C33.75 183.09 33.5586 182.623 33.5586 182.076C33.5586 181.529 33.75 181.064 34.1328 180.682C34.5202 180.294 34.9873 180.101 35.5342 180.101ZM46.5469 180.907C46.5469 179.453 46.9092 178.241 47.6338 177.271C48.363 176.295 49.3451 175.808 50.5801 175.808C51.9792 175.808 53.0456 176.261 53.7793 177.168C54.5176 178.075 54.8867 179.321 54.8867 180.907C54.8867 182.539 54.5153 183.824 53.7725 184.763C53.0342 185.701 51.9701 186.171 50.5801 186.171C49.304 186.171 48.3128 185.679 47.6064 184.694C46.9001 183.71 46.5469 182.448 46.5469 180.907ZM47.9893 180.907C47.9893 182.065 48.2126 183.026 48.6592 183.792C49.1104 184.553 49.7507 184.934 50.5801 184.934C51.5189 184.934 52.2321 184.585 52.7197 183.888C53.2074 183.186 53.4512 182.192 53.4512 180.907C53.4512 178.328 52.4941 177.038 50.5801 177.038C49.7507 177.038 49.1104 177.378 48.6592 178.057C48.2126 178.731 47.9893 179.681 47.9893 180.907ZM61.3535 179.772H59.2549V186H57.9561V179.772H55.8506V178.679H61.3535V179.772ZM68.2305 179.28L67.6016 180.189C67.4421 180.048 67.2005 179.921 66.877 179.807C66.5579 179.688 66.2344 179.629 65.9062 179.629C65.1953 179.629 64.6325 179.88 64.2178 180.381C63.8031 180.882 63.5957 181.561 63.5957 182.418C63.5957 183.247 63.8031 183.895 64.2178 184.359C64.6325 184.82 65.2272 185.05 66.002 185.05C66.5853 185.05 67.1755 184.82 67.7725 184.359L68.2715 185.453C67.5924 185.909 66.7288 186.137 65.6807 186.137C64.6872 186.137 63.8646 185.802 63.2129 185.132C62.5658 184.457 62.2422 183.553 62.2422 182.418C62.2422 181.219 62.584 180.274 63.2676 179.581C63.9557 178.884 64.8786 178.535 66.0361 178.535C66.4326 178.535 66.8496 178.617 67.2871 178.781C67.7246 178.945 68.0391 179.112 68.2305 179.28ZM75.7363 186H74.4375V179.711H72.4756C72.4528 180.741 72.348 181.693 72.1611 182.568C71.9743 183.439 71.7214 184.159 71.4023 184.729C71.0833 185.294 70.737 185.66 70.3633 185.829C69.9896 185.998 69.5407 186.082 69.0166 186.082V184.893C69.8324 184.893 70.4089 184.261 70.7461 182.999C71.0879 181.732 71.2588 180.52 71.2588 179.362V178.679H75.7363V186ZM83.707 182.473H78.4297C78.4297 183.01 78.5208 183.466 78.7031 183.84C78.8854 184.214 79.1475 184.51 79.4893 184.729C79.8356 184.943 80.2526 185.05 80.7402 185.05C81.474 185.05 82.0938 184.829 82.5996 184.387L83.1328 185.439C82.791 185.708 82.415 185.893 82.0049 185.993C81.5947 186.089 81.0889 186.137 80.4873 186.137C79.4938 186.137 78.6758 185.797 78.0332 185.118C77.3952 184.435 77.0762 183.539 77.0762 182.432C77.0762 181.27 77.4111 180.331 78.0811 179.615C78.7555 178.895 79.5622 178.535 80.501 178.535C81.5127 178.535 82.3193 178.82 82.9209 179.39C83.5225 179.955 83.8232 180.716 83.8232 181.673C83.8232 181.864 83.7845 182.131 83.707 182.473ZM80.5557 179.629C79.986 179.629 79.5052 179.816 79.1133 180.189C78.7259 180.559 78.5117 181.003 78.4707 181.522H82.5176C82.5176 180.966 82.3398 180.513 81.9844 180.162C81.6289 179.807 81.1527 179.629 80.5557 179.629ZM94.0361 186.041C93.9085 186.059 93.7559 186.068 93.5781 186.068C92.7715 186.068 92.3089 185.645 92.1904 184.797C92.0811 184.031 91.8623 183.487 91.5342 183.163C91.2061 182.835 90.7253 182.671 90.0918 182.671V186H88.8613V182.671C88.1868 182.671 87.681 182.828 87.3438 183.143C87.0111 183.452 86.7878 184.004 86.6738 184.797C86.5508 185.645 86.0882 186.068 85.2861 186.068C85.1175 186.068 84.9694 186.059 84.8418 186.041V184.906C84.9284 184.924 85.0264 184.934 85.1357 184.934C85.3682 184.934 85.5072 184.799 85.5527 184.53C85.7943 183.236 86.4027 182.438 87.3779 182.138C86.8949 182.019 86.5098 181.807 86.2227 181.502C85.9401 181.197 85.7419 180.745 85.6279 180.148C85.5778 179.88 85.4502 179.745 85.2451 179.745C85.0628 179.745 84.9603 179.75 84.9375 179.759V178.638C85.0697 178.619 85.2246 178.61 85.4023 178.61C86.1634 178.61 86.6146 179.025 86.7559 179.854C86.8743 180.515 87.0931 180.976 87.4121 181.235C87.7357 181.491 88.2188 181.618 88.8613 181.618V178.679H90.0918V181.618C90.7207 181.618 91.1947 181.481 91.5137 181.208C91.8327 180.935 92.0446 180.488 92.1494 179.868C92.2952 179.03 92.7441 178.61 93.4961 178.61C93.6647 178.61 93.8128 178.619 93.9404 178.638V179.759C93.9176 179.75 93.8105 179.745 93.6191 179.745C93.4232 179.745 93.2979 179.884 93.2432 180.162C93.0472 181.201 92.4867 181.86 91.5615 182.138C92.0492 182.311 92.4342 182.582 92.7168 182.951C93.0039 183.316 93.2113 183.847 93.3389 184.544C93.3844 184.804 93.5189 184.934 93.7422 184.934C93.8698 184.934 93.9678 184.924 94.0361 184.906V186.041ZM101.686 186H100.387V180.989L95.8203 186.198H95.5264V178.679H96.832V183.689L101.392 178.48H101.686V186ZM107.906 182.069C108.84 182.37 109.308 182.985 109.308 183.915C109.308 184.517 109.075 185.016 108.61 185.412C108.146 185.804 107.448 186 106.519 186H103.538V178.692C104.568 178.638 105.521 178.61 106.396 178.61C107.22 178.61 107.861 178.779 108.316 179.116C108.772 179.449 109 179.937 109 180.579C109 180.903 108.902 181.199 108.706 181.468C108.51 181.737 108.243 181.937 107.906 182.069ZM104.769 181.659C104.841 181.668 105.366 181.673 106.341 181.673C107.266 181.673 107.729 181.313 107.729 180.593C107.729 180.283 107.619 180.041 107.4 179.868C107.186 179.69 106.883 179.602 106.491 179.602C105.739 179.602 105.165 179.62 104.769 179.656V181.659ZM104.769 184.961C105.284 184.993 105.817 185.009 106.368 185.009C107.457 185.009 108.002 184.612 108.002 183.819C108.002 183.437 107.861 183.143 107.578 182.938C107.296 182.728 106.883 182.623 106.341 182.623C105.644 182.623 105.119 182.634 104.769 182.657V184.961ZM114.831 185.159C114.302 185.811 113.509 186.137 112.452 186.137C111.873 186.137 111.374 185.927 110.955 185.508C110.536 185.089 110.326 184.571 110.326 183.956C110.326 183.213 110.647 182.587 111.29 182.076C111.937 181.566 112.767 181.311 113.778 181.311C114.056 181.311 114.371 181.365 114.722 181.475C114.722 180.29 114.188 179.697 113.122 179.697C112.325 179.697 111.7 179.918 111.249 180.36L110.702 179.28C110.921 179.093 111.251 178.923 111.693 178.768C112.14 178.613 112.571 178.535 112.985 178.535C114.015 178.535 114.776 178.77 115.269 179.239C115.761 179.709 116.007 180.488 116.007 181.577V184.195C116.007 184.838 116.198 185.266 116.581 185.48V186.123C116.016 186.123 115.606 186.039 115.351 185.87C115.1 185.701 114.927 185.465 114.831 185.159ZM114.722 182.404C114.257 182.309 113.967 182.261 113.854 182.261C113.197 182.261 112.662 182.432 112.247 182.773C111.832 183.115 111.625 183.514 111.625 183.97C111.625 184.735 112.074 185.118 112.972 185.118C113.614 185.118 114.198 184.806 114.722 184.182V182.404ZM124.121 186H122.822V180.989L118.256 186.198H117.962V178.679H119.268V183.689L123.827 178.48H124.121V186ZM123.622 175.138C123.317 176.537 122.499 177.236 121.168 177.236C119.842 177.236 119.026 176.537 118.721 175.138L119.883 174.871C120.051 175.805 120.48 176.272 121.168 176.272C121.938 176.272 122.387 175.81 122.515 174.885L123.622 175.138ZM130.971 179.772H128.872V186H127.573V179.772H125.468V178.679H130.971V179.772ZM138.477 182.473H133.199C133.199 183.01 133.29 183.466 133.473 183.84C133.655 184.214 133.917 184.51 134.259 184.729C134.605 184.943 135.022 185.05 135.51 185.05C136.243 185.05 136.863 184.829 137.369 184.387L137.902 185.439C137.561 185.708 137.185 185.893 136.774 185.993C136.364 186.089 135.858 186.137 135.257 186.137C134.263 186.137 133.445 185.797 132.803 185.118C132.165 184.435 131.846 183.539 131.846 182.432C131.846 181.27 132.181 180.331 132.851 179.615C133.525 178.895 134.332 178.535 135.271 178.535C136.282 178.535 137.089 178.82 137.69 179.39C138.292 179.955 138.593 180.716 138.593 181.673C138.593 181.864 138.554 182.131 138.477 182.473ZM135.325 179.629C134.756 179.629 134.275 179.816 133.883 180.189C133.495 180.559 133.281 181.003 133.24 181.522H137.287C137.287 180.966 137.109 180.513 136.754 180.162C136.398 179.807 135.922 179.629 135.325 179.629ZM151.034 188.393H149.886V186H144.704V188.393H143.556V184.961H144.116C144.681 184.3 145.117 183.493 145.422 182.541C145.727 181.584 145.88 180.613 145.88 179.629V178.679H150.207V184.961H151.034V188.393ZM148.956 184.961V179.711H146.96C146.96 180.673 146.821 181.627 146.543 182.575C146.27 183.523 145.88 184.318 145.374 184.961H148.956ZM155.136 178.535C156.184 178.535 156.995 178.875 157.569 179.554C158.148 180.228 158.438 181.149 158.438 182.315C158.438 183.514 158.137 184.451 157.535 185.125C156.934 185.799 156.134 186.137 155.136 186.137C154.092 186.137 153.279 185.795 152.695 185.111C152.112 184.428 151.82 183.496 151.82 182.315C151.82 181.19 152.126 180.278 152.736 179.581C153.347 178.884 154.147 178.535 155.136 178.535ZM155.136 185.077C155.746 185.077 156.22 184.824 156.558 184.318C156.899 183.812 157.07 183.145 157.07 182.315C157.07 180.506 156.425 179.602 155.136 179.602C154.525 179.602 154.044 179.848 153.693 180.34C153.347 180.832 153.174 181.491 153.174 182.315C153.174 184.157 153.828 185.077 155.136 185.077ZM166.518 186V178.323L164.48 179.595V178.316C164.995 178.057 165.542 177.699 166.121 177.243C166.704 176.787 167.156 176.354 167.475 175.944H167.885V186H166.518ZM172.041 181.112L171.576 180.791V175.944H176.56V177.106H172.875V179.54C173.212 179.289 173.641 179.164 174.16 179.164C175.09 179.164 175.799 179.442 176.286 179.998C176.778 180.554 177.024 181.345 177.024 182.37C177.024 184.881 175.906 186.137 173.668 186.137C172.734 186.137 171.959 185.877 171.344 185.357L171.87 184.216C172.49 184.722 173.087 184.975 173.661 184.975C174.946 184.975 175.589 184.173 175.589 182.568C175.589 181.074 174.955 180.326 173.688 180.326C173.078 180.326 172.529 180.588 172.041 181.112ZM184.25 185.597V188.871H182.944V178.679H184.25V179.28C184.742 178.784 185.335 178.535 186.027 178.535C187.062 178.535 187.868 178.863 188.447 179.52C189.026 180.171 189.315 181.119 189.315 182.363C189.315 183.484 189.021 184.394 188.434 185.091C187.85 185.788 187.009 186.137 185.911 186.137C185.61 186.137 185.282 186.082 184.927 185.973C184.576 185.863 184.35 185.738 184.25 185.597ZM184.25 180.258V184.53C184.35 184.662 184.528 184.783 184.783 184.893C185.038 184.997 185.289 185.05 185.535 185.05C187.148 185.05 187.955 184.134 187.955 182.302C187.955 181.354 187.759 180.673 187.367 180.258C186.975 179.839 186.365 179.629 185.535 179.629C185.357 179.629 185.132 179.697 184.858 179.834C184.585 179.971 184.382 180.112 184.25 180.258ZM196.91 182.473H191.633C191.633 183.01 191.724 183.466 191.906 183.84C192.089 184.214 192.351 184.51 192.692 184.729C193.039 184.943 193.456 185.05 193.943 185.05C194.677 185.05 195.297 184.829 195.803 184.387L196.336 185.439C195.994 185.708 195.618 185.893 195.208 185.993C194.798 186.089 194.292 186.137 193.69 186.137C192.697 186.137 191.879 185.797 191.236 185.118C190.598 184.435 190.279 183.539 190.279 182.432C190.279 181.27 190.614 180.331 191.284 179.615C191.959 178.895 192.765 178.535 193.704 178.535C194.716 178.535 195.522 178.82 196.124 179.39C196.726 179.955 197.026 180.716 197.026 181.673C197.026 181.864 196.988 182.131 196.91 182.473ZM193.759 179.629C193.189 179.629 192.708 179.816 192.316 180.189C191.929 180.559 191.715 181.003 191.674 181.522H195.721C195.721 180.966 195.543 180.513 195.188 180.162C194.832 179.807 194.356 179.629 193.759 179.629ZM204.177 186.041C204.049 186.059 203.89 186.068 203.698 186.068C202.841 186.068 202.352 185.64 202.229 184.783C202.124 184.054 201.878 183.521 201.49 183.184C201.103 182.842 200.547 182.671 199.822 182.671H199.713V186H198.407V178.679H199.713V181.604H199.891C200.57 181.604 201.091 181.465 201.456 181.188C201.821 180.905 202.055 180.47 202.16 179.882C202.306 179.034 202.787 178.61 203.603 178.61C203.757 178.61 203.908 178.619 204.054 178.638V179.759C203.994 179.75 203.881 179.745 203.712 179.745C203.507 179.745 203.377 179.884 203.322 180.162C203.117 181.183 202.511 181.841 201.504 182.138C202.557 182.498 203.204 183.3 203.445 184.544C203.505 184.804 203.632 184.934 203.828 184.934C204.006 184.934 204.122 184.924 204.177 184.906V186.041ZM211.717 186H210.418V179.711H208.456C208.433 180.741 208.328 181.693 208.142 182.568C207.955 183.439 207.702 184.159 207.383 184.729C207.064 185.294 206.717 185.66 206.344 185.829C205.97 185.998 205.521 186.082 204.997 186.082V184.893C205.813 184.893 206.389 184.261 206.727 182.999C207.068 181.732 207.239 180.52 207.239 179.362V178.679H211.717V186ZM217.589 185.159C217.06 185.811 216.267 186.137 215.21 186.137C214.631 186.137 214.132 185.927 213.713 185.508C213.294 185.089 213.084 184.571 213.084 183.956C213.084 183.213 213.405 182.587 214.048 182.076C214.695 181.566 215.524 181.311 216.536 181.311C216.814 181.311 217.129 181.365 217.479 181.475C217.479 180.29 216.946 179.697 215.88 179.697C215.082 179.697 214.458 179.918 214.007 180.36L213.46 179.28C213.679 179.093 214.009 178.923 214.451 178.768C214.898 178.613 215.328 178.535 215.743 178.535C216.773 178.535 217.534 178.77 218.026 179.239C218.519 179.709 218.765 180.488 218.765 181.577V184.195C218.765 184.838 218.956 185.266 219.339 185.48V186.123C218.774 186.123 218.364 186.039 218.108 185.87C217.858 185.701 217.685 185.465 217.589 185.159ZM217.479 182.404C217.015 182.309 216.725 182.261 216.611 182.261C215.955 182.261 215.42 182.432 215.005 182.773C214.59 183.115 214.383 183.514 214.383 183.97C214.383 184.735 214.832 185.118 215.729 185.118C216.372 185.118 216.955 184.806 217.479 184.182V182.404ZM227.692 186L226.92 181.591L224.712 186.123H224.363L222.162 181.659L221.41 186H220.159L221.561 178.549H221.909L224.616 184.011L227.289 178.549H227.624L228.998 186H227.692ZM236.258 186H234.952V182.698H231.582V186H230.276V178.679H231.582V181.618H234.952V178.679H236.258V186ZM245.855 186H244.577V178.679H245.855V186ZM239.389 181.365C239.762 181.311 240.177 181.283 240.633 181.283C241.572 181.283 242.287 181.486 242.779 181.892C243.271 182.297 243.518 182.896 243.518 183.689C243.518 184.086 243.406 184.473 243.183 184.852C242.959 185.225 242.633 185.51 242.205 185.706C241.777 185.902 241.243 186 240.605 186H238.11V178.679H239.389V181.365ZM239.389 184.947C239.699 184.979 240.113 184.995 240.633 184.995C241.116 184.995 241.501 184.879 241.788 184.646C242.08 184.414 242.226 184.086 242.226 183.662C242.226 183.202 242.073 182.858 241.768 182.63C241.467 182.402 241.066 182.288 240.564 182.288C240.291 182.288 239.899 182.318 239.389 182.377V184.947ZM253.771 186H252.158L250.285 183.197L248.467 186H246.922L249.643 182.247L247.147 178.679H248.672L250.312 181.256L252.049 178.679H253.519L250.941 182.192L253.771 186ZM52.6924 204.041C52.5648 204.059 52.4053 204.068 52.2139 204.068C51.3571 204.068 50.8672 203.64 50.7441 202.783C50.6393 202.054 50.3932 201.521 50.0059 201.184C49.6185 200.842 49.0625 200.671 48.3379 200.671H48.2285V204H46.9229V196.679H48.2285V199.604H48.4062C49.0853 199.604 49.6071 199.465 49.9717 199.188C50.3363 198.905 50.571 198.47 50.6758 197.882C50.8216 197.034 51.3024 196.61 52.1182 196.61C52.2731 196.61 52.4235 196.619 52.5693 196.638V197.759C52.5101 197.75 52.3962 197.745 52.2275 197.745C52.0225 197.745 51.8926 197.884 51.8379 198.162C51.6328 199.183 51.0267 199.841 50.0195 200.138C51.0723 200.498 51.7194 201.3 51.9609 202.544C52.0202 202.804 52.1478 202.934 52.3438 202.934C52.5215 202.934 52.6377 202.924 52.6924 202.906V204.041ZM56.999 196.535C58.0472 196.535 58.8584 196.875 59.4326 197.554C60.0114 198.228 60.3008 199.149 60.3008 200.315C60.3008 201.514 60 202.451 59.3984 203.125C58.7969 203.799 57.9971 204.137 56.999 204.137C55.9554 204.137 55.1419 203.795 54.5586 203.111C53.9753 202.428 53.6836 201.496 53.6836 200.315C53.6836 199.19 53.9889 198.278 54.5996 197.581C55.2103 196.884 56.0101 196.535 56.999 196.535ZM56.999 203.077C57.6097 203.077 58.0837 202.824 58.4209 202.318C58.7627 201.812 58.9336 201.145 58.9336 200.315C58.9336 198.506 58.2887 197.602 56.999 197.602C56.3883 197.602 55.9076 197.848 55.5566 198.34C55.2103 198.832 55.0371 199.491 55.0371 200.315C55.0371 202.157 55.6911 203.077 56.999 203.077ZM68.6475 204L67.875 199.591L65.667 204.123H65.3184L63.1172 199.659L62.3652 204H61.1143L62.5156 196.549H62.8643L65.5713 202.011L68.2441 196.549H68.5791L69.9531 204H68.6475ZM77.0283 204H75.7295V197.772H72.5371V204H71.2314V196.679H77.0283V204ZM82.9346 203.159C82.4059 203.811 81.613 204.137 80.5557 204.137C79.9769 204.137 79.4779 203.927 79.0586 203.508C78.6393 203.089 78.4297 202.571 78.4297 201.956C78.4297 201.213 78.751 200.587 79.3936 200.076C80.0407 199.566 80.8701 199.311 81.8818 199.311C82.1598 199.311 82.4743 199.365 82.8252 199.475C82.8252 198.29 82.292 197.697 81.2256 197.697C80.4281 197.697 79.8037 197.918 79.3525 198.36L78.8057 197.28C79.0244 197.093 79.3548 196.923 79.7969 196.768C80.2435 196.613 80.6742 196.535 81.0889 196.535C82.1188 196.535 82.8799 196.77 83.3721 197.239C83.8643 197.709 84.1104 198.488 84.1104 199.577V202.195C84.1104 202.838 84.3018 203.266 84.6846 203.48V204.123C84.1195 204.123 83.7093 204.039 83.4541 203.87C83.2035 203.701 83.0303 203.465 82.9346 203.159ZM82.8252 200.404C82.3604 200.309 82.071 200.261 81.957 200.261C81.3008 200.261 80.7653 200.432 80.3506 200.773C79.9359 201.115 79.7285 201.514 79.7285 201.97C79.7285 202.735 80.1774 203.118 81.0752 203.118C81.7178 203.118 82.3011 202.806 82.8252 202.182V200.404ZM92.0469 204H90.7412V200.698H87.3711V204H86.0654V196.679H87.3711V199.618H90.7412V196.679H92.0469V204ZM100.059 204H98.7598V198.989L94.1934 204.198H93.8994V196.679H95.2051V201.689L99.7646 196.48H100.059V204ZM108.07 204H106.771V198.989L102.205 204.198H101.911V196.679H103.217V201.689L107.776 196.48H108.07V204ZM107.571 193.138C107.266 194.537 106.448 195.236 105.117 195.236C103.791 195.236 102.975 194.537 102.67 193.138L103.832 192.871C104.001 193.805 104.429 194.272 105.117 194.272C105.887 194.272 106.336 193.81 106.464 192.885L107.571 193.138ZM116.991 196.535C118.039 196.535 118.851 196.875 119.425 197.554C120.004 198.228 120.293 199.149 120.293 200.315C120.293 201.514 119.992 202.451 119.391 203.125C118.789 203.799 117.989 204.137 116.991 204.137C115.948 204.137 115.134 203.795 114.551 203.111C113.967 202.428 113.676 201.496 113.676 200.315C113.676 199.19 113.981 198.278 114.592 197.581C115.202 196.884 116.002 196.535 116.991 196.535ZM116.991 203.077C117.602 203.077 118.076 202.824 118.413 202.318C118.755 201.812 118.926 201.145 118.926 200.315C118.926 198.506 118.281 197.602 116.991 197.602C116.381 197.602 115.9 197.848 115.549 198.34C115.202 198.832 115.029 199.491 115.029 200.315C115.029 202.157 115.683 203.077 116.991 203.077ZM128.503 206.393H127.354V204H122.173V206.393H121.024V202.961H121.585C122.15 202.3 122.585 201.493 122.891 200.541C123.196 199.584 123.349 198.613 123.349 197.629V196.679H127.676V202.961H128.503V206.393ZM126.425 202.961V197.711H124.429C124.429 198.673 124.29 199.627 124.012 200.575C123.738 201.523 123.349 202.318 122.843 202.961H126.425ZM135.742 204H134.437V200.698H131.066V204H129.761V196.679H131.066V199.618H134.437V196.679H135.742V204ZM140.438 196.535C141.487 196.535 142.298 196.875 142.872 197.554C143.451 198.228 143.74 199.149 143.74 200.315C143.74 201.514 143.439 202.451 142.838 203.125C142.236 203.799 141.437 204.137 140.438 204.137C139.395 204.137 138.581 203.795 137.998 203.111C137.415 202.428 137.123 201.496 137.123 200.315C137.123 199.19 137.428 198.278 138.039 197.581C138.65 196.884 139.45 196.535 140.438 196.535ZM140.438 203.077C141.049 203.077 141.523 202.824 141.86 202.318C142.202 201.812 142.373 201.145 142.373 200.315C142.373 198.506 141.728 197.602 140.438 197.602C139.828 197.602 139.347 197.848 138.996 198.34C138.65 198.832 138.477 199.491 138.477 200.315C138.477 202.157 139.131 203.077 140.438 203.077ZM149.482 200.069C150.417 200.37 150.884 200.985 150.884 201.915C150.884 202.517 150.651 203.016 150.187 203.412C149.722 203.804 149.024 204 148.095 204H145.114V196.692C146.144 196.638 147.097 196.61 147.972 196.61C148.797 196.61 149.437 196.779 149.893 197.116C150.348 197.449 150.576 197.937 150.576 198.579C150.576 198.903 150.478 199.199 150.282 199.468C150.086 199.737 149.82 199.937 149.482 200.069ZM146.345 199.659C146.418 199.668 146.942 199.673 147.917 199.673C148.842 199.673 149.305 199.313 149.305 198.593C149.305 198.283 149.195 198.041 148.977 197.868C148.762 197.69 148.459 197.602 148.067 197.602C147.315 197.602 146.741 197.62 146.345 197.656V199.659ZM146.345 202.961C146.86 202.993 147.393 203.009 147.944 203.009C149.034 203.009 149.578 202.612 149.578 201.819C149.578 201.437 149.437 201.143 149.154 200.938C148.872 200.728 148.459 200.623 147.917 200.623C147.22 200.623 146.696 200.634 146.345 200.657V202.961ZM153.652 203.597V206.871H152.347V196.679H153.652V197.28C154.145 196.784 154.737 196.535 155.43 196.535C156.464 196.535 157.271 196.863 157.85 197.52C158.428 198.171 158.718 199.119 158.718 200.363C158.718 201.484 158.424 202.394 157.836 203.091C157.253 203.788 156.412 204.137 155.313 204.137C155.013 204.137 154.685 204.082 154.329 203.973C153.978 203.863 153.753 203.738 153.652 203.597ZM153.652 198.258V202.53C153.753 202.662 153.93 202.783 154.186 202.893C154.441 202.997 154.691 203.05 154.938 203.05C156.551 203.05 157.357 202.134 157.357 200.302C157.357 199.354 157.161 198.673 156.77 198.258C156.378 197.839 155.767 197.629 154.938 197.629C154.76 197.629 154.534 197.697 154.261 197.834C153.987 197.971 153.785 198.112 153.652 198.258ZM166.312 200.473H161.035C161.035 201.01 161.126 201.466 161.309 201.84C161.491 202.214 161.753 202.51 162.095 202.729C162.441 202.943 162.858 203.05 163.346 203.05C164.079 203.05 164.699 202.829 165.205 202.387L165.738 203.439C165.396 203.708 165.021 203.893 164.61 203.993C164.2 204.089 163.694 204.137 163.093 204.137C162.099 204.137 161.281 203.797 160.639 203.118C160.001 202.435 159.682 201.539 159.682 200.432C159.682 199.27 160.017 198.331 160.687 197.615C161.361 196.895 162.168 196.535 163.106 196.535C164.118 196.535 164.925 196.82 165.526 197.39C166.128 197.955 166.429 198.716 166.429 199.673C166.429 199.864 166.39 200.131 166.312 200.473ZM163.161 197.629C162.591 197.629 162.111 197.816 161.719 198.189C161.331 198.559 161.117 199.003 161.076 199.522H165.123C165.123 198.966 164.945 198.513 164.59 198.162C164.234 197.807 163.758 197.629 163.161 197.629ZM174.782 204L174.01 199.591L171.802 204.123H171.453L169.252 199.659L168.5 204H167.249L168.65 196.549H168.999L171.706 202.011L174.379 196.549H174.714L176.088 204H174.782ZM183.525 200.473H178.248C178.248 201.01 178.339 201.466 178.521 201.84C178.704 202.214 178.966 202.51 179.308 202.729C179.654 202.943 180.071 203.05 180.559 203.05C181.292 203.05 181.912 202.829 182.418 202.387L182.951 203.439C182.609 203.708 182.233 203.893 181.823 203.993C181.413 204.089 180.907 204.137 180.306 204.137C179.312 204.137 178.494 203.797 177.852 203.118C177.214 202.435 176.895 201.539 176.895 200.432C176.895 199.27 177.229 198.331 177.899 197.615C178.574 196.895 179.381 196.535 180.319 196.535C181.331 196.535 182.138 196.82 182.739 197.39C183.341 197.955 183.642 198.716 183.642 199.673C183.642 199.864 183.603 200.131 183.525 200.473ZM180.374 197.629C179.804 197.629 179.324 197.816 178.932 198.189C178.544 198.559 178.33 199.003 178.289 199.522H182.336C182.336 198.966 182.158 198.513 181.803 198.162C181.447 197.807 180.971 197.629 180.374 197.629ZM191.004 204H189.698V200.698H186.328V204H185.022V196.679H186.328V199.618H189.698V196.679H191.004V204ZM198.838 204H197.532V200.698H194.162V204H192.856V196.679H194.162V199.618H197.532V196.679H198.838V204ZM203.534 196.535C204.582 196.535 205.394 196.875 205.968 197.554C206.547 198.228 206.836 199.149 206.836 200.315C206.836 201.514 206.535 202.451 205.934 203.125C205.332 203.799 204.532 204.137 203.534 204.137C202.491 204.137 201.677 203.795 201.094 203.111C200.51 202.428 200.219 201.496 200.219 200.315C200.219 199.19 200.524 198.278 201.135 197.581C201.745 196.884 202.545 196.535 203.534 196.535ZM203.534 203.077C204.145 203.077 204.619 202.824 204.956 202.318C205.298 201.812 205.469 201.145 205.469 200.315C205.469 198.506 204.824 197.602 203.534 197.602C202.924 197.602 202.443 197.848 202.092 198.34C201.745 198.832 201.572 199.491 201.572 200.315C201.572 202.157 202.226 203.077 203.534 203.077Z" fill="black"/>
</svg>
