<svg width="1000" height="300" viewBox="0 0 1000 300" fill="none" xmlns="http://www.w3.org/2000/svg">
<g clip-path="url(#clip0_237_378)">
<rect width="1000" height="300" fill="#5EABF1"/>
<path d="M86.1065 90.84C82.6065 90.84 79.7598 90.1867 77.5665 88.88C75.4198 87.5267 73.8565 85.6367 72.8765 83.21C71.8965 80.7367 71.4065 77.8667 71.4065 74.6V72.64H81.0665C81.0665 72.8733 81.0665 73.2 81.0665 73.62C81.0665 73.9933 81.0665 74.3667 81.0665 74.74C81.1132 77.3533 81.4865 79.3367 82.1865 80.69C82.8865 82.0433 84.2398 82.72 86.2465 82.72C87.6932 82.72 88.7665 82.37 89.4665 81.67C90.2132 80.97 90.7032 79.9667 90.9365 78.66C91.2165 77.3067 91.3565 75.6967 91.3565 73.83C91.3565 70.9367 90.8198 68.65 89.7465 66.97C88.7198 65.2433 86.6432 64.31 83.5165 64.17C83.3765 64.1233 83.1432 64.1 82.8165 64.1C82.5365 64.1 82.2098 64.1 81.8365 64.1C81.4632 64.1 81.1132 64.1 80.7865 64.1V57.24C81.0665 57.24 81.3465 57.24 81.6265 57.24C81.9065 57.24 82.1865 57.24 82.4665 57.24C82.7932 57.24 83.0498 57.24 83.2365 57.24C86.4098 57.1 88.5565 56.26 89.6765 54.72C90.7965 53.18 91.3565 50.94 91.3565 48C91.3565 45.62 90.9365 43.7533 90.0965 42.4C89.3032 41.0467 87.8565 40.37 85.7565 40.37C83.7965 40.37 82.3965 41.07 81.5565 42.47C80.7632 43.87 80.2965 45.7133 80.1565 48C80.1565 48.1867 80.1565 48.5367 80.1565 49.05C80.1565 49.5167 80.1565 50.0067 80.1565 50.52H70.4965V47.79C70.4965 44.57 71.1032 41.84 72.3165 39.6C73.5298 37.3133 75.2565 35.5867 77.4965 34.42C79.7832 33.2067 82.5132 32.6 85.6865 32.6C88.9065 32.6 91.6365 33.2067 93.8765 34.42C96.1632 35.5867 97.9132 37.29 99.1265 39.53C100.34 41.7233 100.946 44.43 100.946 47.65C100.946 51.01 100.223 53.7867 98.7765 55.98C97.3765 58.1733 95.6032 59.5733 93.4565 60.18C94.9032 60.74 96.1865 61.58 97.3065 62.7C98.4732 63.7733 99.3598 65.22 99.9665 67.04C100.62 68.8133 100.946 71.03 100.946 73.69C100.946 77.0967 100.456 80.1067 99.4765 82.72C98.4965 85.2867 96.9098 87.2933 94.7165 88.74C92.5698 90.14 89.6998 90.84 86.1065 90.84ZM104.86 100.64V84.05C106.353 83.1633 107.66 82.0667 108.78 80.76C109.947 79.4067 110.95 77.75 111.79 75.79C112.63 73.83 113.283 71.4733 113.75 68.72C114.263 65.9667 114.567 62.7 114.66 58.92L115.36 49.54H135.73V83.84H141.12V100.64H134.26L133.56 90H112.49L111.86 100.64H104.86ZM114.8 83.84H126.84V55.63H122.57L122.08 61.09C121.987 64.7767 121.73 67.9033 121.31 70.47C120.89 73.0367 120.353 75.1833 119.7 76.91C119.047 78.6367 118.3 80.0367 117.46 81.11C116.62 82.1833 115.733 83.0933 114.8 83.84ZM158.251 90.63C155.218 90.63 152.745 90.07 150.831 88.95C148.918 87.7833 147.495 86.1033 146.561 83.91C145.675 81.67 145.231 78.9867 145.231 75.86V63.68C145.231 60.46 145.675 57.7533 146.561 55.56C147.495 53.3667 148.918 51.71 150.831 50.59C152.791 49.47 155.265 48.91 158.251 48.91C161.471 48.91 163.968 49.5167 165.741 50.73C167.561 51.9433 168.845 53.7167 169.591 56.05C170.385 58.3367 170.781 61.1367 170.781 64.45V70.19H154.681V78.17C154.681 79.4767 154.798 80.55 155.031 81.39C155.311 82.23 155.731 82.8367 156.291 83.21C156.851 83.5833 157.528 83.77 158.321 83.77C159.161 83.77 159.838 83.5833 160.351 83.21C160.865 82.79 161.238 82.2067 161.471 81.46C161.705 80.6667 161.821 79.6867 161.821 78.52V75.16H170.711V77.89C170.711 81.9967 169.685 85.1467 167.631 87.34C165.578 89.5333 162.451 90.63 158.251 90.63ZM154.681 65.5H161.821V61.65C161.821 60.25 161.705 59.13 161.471 58.29C161.238 57.4033 160.865 56.7733 160.351 56.4C159.838 55.98 159.115 55.77 158.181 55.77C157.341 55.77 156.665 55.98 156.151 56.4C155.638 56.82 155.265 57.52 155.031 58.5C154.798 59.48 154.681 60.88 154.681 62.7V65.5ZM189.422 90.63C186.295 90.63 183.775 90.0467 181.862 88.88C179.995 87.6667 178.618 85.9633 177.732 83.77C176.892 81.53 176.472 78.8933 176.472 75.86V63.68C176.472 60.5533 176.892 57.8933 177.732 55.7C178.618 53.5067 180.018 51.8267 181.932 50.66C183.845 49.4933 186.342 48.91 189.422 48.91C192.315 48.91 194.672 49.3767 196.492 50.31C198.358 51.1967 199.712 52.5733 200.552 54.44C201.392 56.26 201.812 58.57 201.812 61.37V64.73H192.852V61.16C192.852 59.76 192.735 58.6633 192.502 57.87C192.315 57.03 191.965 56.4467 191.452 56.12C190.938 55.7467 190.262 55.56 189.422 55.56C188.582 55.56 187.905 55.7933 187.392 56.26C186.878 56.68 186.505 57.38 186.272 58.36C186.085 59.34 185.992 60.6933 185.992 62.42V77.26C185.992 79.8733 186.272 81.6467 186.832 82.58C187.392 83.4667 188.278 83.91 189.492 83.91C190.425 83.91 191.125 83.7 191.592 83.28C192.105 82.86 192.432 82.2533 192.572 81.46C192.758 80.62 192.852 79.6167 192.852 78.45V74.11H201.812V77.96C201.812 80.6667 201.368 82.9767 200.482 84.89C199.642 86.8033 198.288 88.25 196.422 89.23C194.602 90.1633 192.268 90.63 189.422 90.63ZM208.072 90V49.54H217.592V65.99C217.685 65.99 217.778 65.99 217.872 65.99C217.965 65.99 218.058 65.99 218.152 65.99C218.245 65.99 218.315 65.99 218.362 65.99C221.162 66.0367 223.565 66.2467 225.572 66.62C227.625 66.9467 229.305 67.5533 230.612 68.44C231.965 69.3267 232.968 70.54 233.622 72.08C234.275 73.5733 234.602 75.51 234.602 77.89C234.602 80.0833 234.298 81.95 233.692 83.49C233.132 85.03 232.175 86.29 230.822 87.27C229.515 88.2033 227.788 88.9033 225.642 89.37C223.542 89.79 220.998 90 218.012 90H208.072ZM217.592 84.54H217.942C219.995 84.54 221.605 84.3533 222.772 83.98C223.938 83.56 224.755 82.8833 225.222 81.95C225.735 80.97 225.992 79.64 225.992 77.96C225.992 76.3733 225.758 75.1367 225.292 74.25C224.825 73.3167 224.008 72.64 222.842 72.22C221.722 71.8 220.158 71.59 218.152 71.59C218.105 71.59 218.012 71.59 217.872 71.59C217.778 71.59 217.685 71.59 217.592 71.59V84.54ZM254.499 100.64V84.05C255.992 83.1633 257.299 82.0667 258.419 80.76C259.585 79.4067 260.589 77.75 261.429 75.79C262.269 73.83 262.922 71.4733 263.389 68.72C263.902 65.9667 264.205 62.7 264.299 58.92L264.999 49.54H285.369V83.84H290.759V100.64H283.899L283.199 90H262.129L261.499 100.64H254.499ZM264.439 83.84H276.479V55.63H272.209L271.719 61.09C271.625 64.7767 271.369 67.9033 270.949 70.47C270.529 73.0367 269.992 75.1833 269.339 76.91C268.685 78.6367 267.939 80.0367 267.099 81.11C266.259 82.1833 265.372 83.0933 264.439 83.84ZM307.138 90.63C304.198 90.63 301.771 90.0933 299.858 89.02C297.945 87.9 296.498 86.29 295.518 84.19C294.585 82.09 294.118 79.5467 294.118 76.56V62.98C294.118 59.9933 294.585 57.45 295.518 55.35C296.498 53.25 297.945 51.6633 299.858 50.59C301.771 49.47 304.198 48.91 307.138 48.91C310.078 48.91 312.505 49.47 314.418 50.59C316.378 51.6633 317.825 53.25 318.758 55.35C319.738 57.45 320.228 59.9933 320.228 62.98V76.56C320.228 79.5467 319.738 82.09 318.758 84.19C317.825 86.29 316.378 87.9 314.418 89.02C312.505 90.0933 310.078 90.63 307.138 90.63ZM307.208 84.05C308.281 84.05 309.075 83.7467 309.588 83.14C310.101 82.5333 310.428 81.7167 310.568 80.69C310.708 79.6167 310.778 78.45 310.778 77.19V62.35C310.778 61.09 310.708 59.9467 310.568 58.92C310.428 57.8933 310.101 57.0767 309.588 56.47C309.075 55.8167 308.281 55.49 307.208 55.49C306.135 55.49 305.341 55.8167 304.828 56.47C304.315 57.0767 303.965 57.8933 303.778 58.92C303.638 59.9467 303.568 61.09 303.568 62.35V77.19C303.568 78.45 303.638 79.6167 303.778 80.69C303.965 81.7167 304.315 82.5333 304.828 83.14C305.341 83.7467 306.135 84.05 307.208 84.05ZM323.675 90.42V83.49C325.122 83.49 326.288 83.2333 327.175 82.72C328.062 82.2067 328.762 81.3433 329.275 80.13C329.788 78.87 330.185 77.19 330.465 75.09C330.745 72.9433 331.002 70.26 331.235 67.04L332.355 49.54H355.875V90H346.355V56.26H340.545L339.705 68.16C339.425 72.5933 339.005 76.2567 338.445 79.15C337.932 82.0433 337.138 84.3067 336.065 85.94C335.038 87.5733 333.638 88.74 331.865 89.44C330.092 90.0933 327.828 90.42 325.075 90.42H323.675ZM359.959 90L368.989 69.49L360.519 49.54H369.059L376.549 68.86H377.249V49.54H385.089V68.86H385.789L393.489 49.54H402.099L393.349 69.49L402.589 90H394.399L385.789 70.33H385.089V90H377.249V70.33H376.479L368.149 90H359.959ZM406.656 90V49.54H416.176V65.85H424.366V49.54H433.886V90H424.366V72.57H416.176V90H406.656ZM449.017 90.63C447.197 90.63 445.634 90.1633 444.327 89.23C443.02 88.25 442.017 87.0367 441.317 85.59C440.617 84.0967 440.267 82.5567 440.267 80.97C440.267 78.45 440.734 76.3267 441.667 74.6C442.6 72.8733 443.837 71.4267 445.377 70.26C446.917 69.0933 448.667 68.09 450.627 67.25C452.587 66.3633 454.57 65.57 456.577 64.87V61.37C456.577 60.2033 456.484 59.2233 456.297 58.43C456.157 57.6367 455.854 57.03 455.387 56.61C454.967 56.19 454.29 55.98 453.357 55.98C452.564 55.98 451.91 56.1667 451.397 56.54C450.93 56.9133 450.58 57.45 450.347 58.15C450.16 58.8033 450.044 59.5733 449.997 60.46L449.857 62.91L440.827 62.56C440.967 57.8933 442.11 54.4633 444.257 52.27C446.45 50.03 449.764 48.91 454.197 48.91C458.257 48.91 461.197 50.03 463.017 52.27C464.884 54.51 465.817 57.5433 465.817 61.37V80.06C465.817 81.5533 465.84 82.9067 465.887 84.12C465.98 85.3333 466.074 86.43 466.167 87.41C466.307 88.39 466.424 89.2533 466.517 90H457.977C457.837 89.0667 457.65 88.0167 457.417 86.85C457.23 85.6367 457.09 84.75 456.997 84.19C456.53 85.8233 455.644 87.3167 454.337 88.67C453.03 89.9767 451.257 90.63 449.017 90.63ZM452.517 83.56C453.124 83.56 453.684 83.42 454.197 83.14C454.757 82.8133 455.247 82.44 455.667 82.02C456.087 81.6 456.39 81.2267 456.577 80.9V69.63C455.55 70.2367 454.57 70.8433 453.637 71.45C452.75 72.0567 451.957 72.7333 451.257 73.48C450.604 74.18 450.09 74.95 449.717 75.79C449.39 76.63 449.227 77.61 449.227 78.73C449.227 80.2233 449.507 81.4133 450.067 82.3C450.674 83.14 451.49 83.56 452.517 83.56ZM502.169 90.63C499.089 90.5833 496.616 89.9767 494.749 88.81C492.929 87.6433 491.599 85.94 490.759 83.7C489.966 81.46 489.569 78.73 489.569 75.51V52.34C489.569 48.7 489.896 45.76 490.549 43.52C491.249 41.28 492.229 39.53 493.489 38.27C494.749 37.01 496.312 36.03 498.179 35.33C500.046 34.5833 501.819 34.0467 503.499 33.72C505.226 33.3467 506.882 32.95 508.469 32.53C510.056 32.0633 511.596 31.3633 513.089 30.43L514.069 38.2C512.622 38.9933 511.082 39.5767 509.449 39.95C507.816 40.3233 506.206 40.65 504.619 40.93C503.079 41.21 501.632 41.6533 500.279 42.26C498.972 42.82 497.992 43.7533 497.339 45.06C496.732 46.3667 496.429 48.1633 496.429 50.45V55.21C497.036 54.5567 497.806 53.9733 498.739 53.46C499.719 52.9467 500.792 52.55 501.959 52.27C503.172 51.99 504.409 51.85 505.669 51.85C507.769 51.85 509.542 52.3167 510.989 53.25C512.482 54.1367 513.602 55.6533 514.349 57.8C515.142 59.9 515.539 62.7933 515.539 66.48V75.3C515.539 79.5 514.979 82.72 513.859 84.96C512.739 87.1533 511.176 88.6467 509.169 89.44C507.162 90.2333 504.829 90.63 502.169 90.63ZM502.729 84.19C503.709 84.19 504.456 83.9567 504.969 83.49C505.482 82.9767 505.832 82.1367 506.019 80.97C506.252 79.7567 506.369 78.03 506.369 75.79V64.31C506.369 62.6767 506.276 61.3933 506.089 60.46C505.902 59.48 505.576 58.78 505.109 58.36C504.642 57.8933 503.989 57.66 503.149 57.66C502.682 57.66 502.192 57.7767 501.679 58.01C501.166 58.2433 500.676 58.6167 500.209 59.13C499.789 59.6433 499.346 60.32 498.879 61.16V75.44C498.879 77.68 498.996 79.43 499.229 80.69C499.462 81.95 499.859 82.86 500.419 83.42C500.979 83.9333 501.749 84.19 502.729 84.19ZM522.115 90V49.54H531.635V65.99C531.728 65.99 531.821 65.99 531.915 65.99C532.008 65.99 532.101 65.99 532.195 65.99C532.288 65.99 532.358 65.99 532.405 65.99C535.205 66.0367 537.608 66.2467 539.615 66.62C541.668 66.9933 543.348 67.6233 544.655 68.51C546.008 69.3967 547.011 70.61 547.665 72.15C548.318 73.6433 548.645 75.58 548.645 77.96C548.645 80.1533 548.341 82.02 547.735 83.56C547.175 85.0533 546.218 86.29 544.865 87.27C543.558 88.2033 541.831 88.9033 539.685 89.37C537.585 89.79 535.041 90 532.055 90H522.115ZM531.635 84.54H531.985C534.038 84.54 535.648 84.3533 536.815 83.98C537.981 83.56 538.798 82.8833 539.265 81.95C539.778 80.97 540.035 79.64 540.035 77.96C540.035 76.3733 539.801 75.1367 539.335 74.25C538.868 73.3167 538.051 72.64 536.885 72.22C535.765 71.8 534.201 71.59 532.195 71.59C532.148 71.59 532.055 71.59 531.915 71.59C531.821 71.59 531.728 71.59 531.635 71.59V84.54ZM553.125 90V49.54H562.645V90H553.125ZM574.658 90V56.19H567.238V49.54H591.598V56.19H584.108V90H574.658ZM596.216 90V49.54H605.736V65.99C605.83 65.99 605.923 65.99 606.016 65.99C606.11 65.99 606.203 65.99 606.296 65.99C606.39 65.99 606.46 65.99 606.506 65.99C609.306 66.0367 611.71 66.2467 613.716 66.62C615.77 66.9467 617.45 67.5533 618.756 68.44C620.11 69.3267 621.113 70.54 621.766 72.08C622.42 73.5733 622.746 75.51 622.746 77.89C622.746 80.0833 622.443 81.95 621.836 83.49C621.276 85.03 620.32 86.29 618.966 87.27C617.66 88.2033 615.933 88.9033 613.786 89.37C611.686 89.79 609.143 90 606.156 90H596.216ZM605.736 84.54H606.086C608.14 84.54 609.75 84.3533 610.916 83.98C612.083 83.56 612.9 82.8833 613.366 81.95C613.88 80.97 614.136 79.64 614.136 77.96C614.136 76.3733 613.903 75.1367 613.436 74.25C612.97 73.3167 612.153 72.64 610.986 72.22C609.866 71.8 608.303 71.59 606.296 71.59C606.25 71.59 606.156 71.59 606.016 71.59C605.923 71.59 605.83 71.59 605.736 71.59V84.54ZM657.273 90.63C654.146 90.63 651.626 90.0467 649.713 88.88C647.846 87.6667 646.47 85.9633 645.583 83.77C644.743 81.53 644.323 78.8933 644.323 75.86V63.68C644.323 60.5533 644.743 57.8933 645.583 55.7C646.47 53.5067 647.87 51.8267 649.783 50.66C651.696 49.4933 654.193 48.91 657.273 48.91C660.166 48.91 662.523 49.3767 664.343 50.31C666.21 51.1967 667.563 52.5733 668.403 54.44C669.243 56.26 669.663 58.57 669.663 61.37V64.73H660.703V61.16C660.703 59.76 660.586 58.6633 660.353 57.87C660.166 57.03 659.816 56.4467 659.303 56.12C658.79 55.7467 658.113 55.56 657.273 55.56C656.433 55.56 655.756 55.7933 655.243 56.26C654.73 56.68 654.356 57.38 654.123 58.36C653.936 59.34 653.843 60.6933 653.843 62.42V77.26C653.843 79.8733 654.123 81.6467 654.683 82.58C655.243 83.4667 656.13 83.91 657.343 83.91C658.276 83.91 658.976 83.7 659.443 83.28C659.956 82.86 660.283 82.2533 660.423 81.46C660.61 80.62 660.703 79.6167 660.703 78.45V74.11H669.663V77.96C669.663 80.6667 669.22 82.9767 668.333 84.89C667.493 86.8033 666.14 88.25 664.273 89.23C662.453 90.1633 660.12 90.63 657.273 90.63ZM680.683 90V56.19H673.263V49.54H697.623V56.19H690.133V90H680.683ZM702.242 90V49.54H710.012V73.9L721.352 49.54H728.772V90H721.002V65.64L709.872 90H702.242ZM733.489 90.42V83.49C734.936 83.49 736.103 83.2333 736.989 82.72C737.876 82.2067 738.576 81.3433 739.089 80.13C739.603 78.87 739.999 77.19 740.279 75.09C740.559 72.9433 740.816 70.26 741.049 67.04L742.169 49.54H765.689V90H756.169V56.26H750.359L749.519 68.16C749.239 72.5933 748.819 76.2567 748.259 79.15C747.746 82.0433 746.953 84.3067 745.879 85.94C744.853 87.5733 743.453 88.74 741.679 89.44C739.906 90.0933 737.643 90.42 734.889 90.42H733.489ZM772.994 90V49.54H782.514V65.99C782.607 65.99 782.7 65.99 782.794 65.99C782.887 65.99 782.98 65.99 783.074 65.99C783.167 65.99 783.237 65.99 783.284 65.99C786.084 66.0367 788.487 66.2467 790.494 66.62C792.547 66.9467 794.227 67.5533 795.534 68.44C796.887 69.3267 797.89 70.54 798.544 72.08C799.197 73.5733 799.524 75.51 799.524 77.89C799.524 80.0833 799.22 81.95 798.614 83.49C798.054 85.03 797.097 86.29 795.744 87.27C794.437 88.2033 792.71 88.9033 790.564 89.37C788.464 89.79 785.92 90 782.934 90H772.994ZM782.514 84.54H782.864C784.917 84.54 786.527 84.3533 787.694 83.98C788.86 83.56 789.677 82.8833 790.144 81.95C790.657 80.97 790.914 79.64 790.914 77.96C790.914 76.3733 790.68 75.1367 790.214 74.25C789.747 73.3167 788.93 72.64 787.764 72.22C786.644 71.8 785.08 71.59 783.074 71.59C783.027 71.59 782.934 71.59 782.794 71.59C782.7 71.59 782.607 71.59 782.514 71.59V84.54ZM804.849 90V49.54H814.369V65.85H822.559V49.54H832.079V90H822.559V72.57H814.369V90H804.849ZM847.21 90.63C845.39 90.63 843.827 90.1633 842.52 89.23C841.214 88.25 840.21 87.0367 839.51 85.59C838.81 84.0967 838.46 82.5567 838.46 80.97C838.46 78.45 838.927 76.3267 839.86 74.6C840.794 72.8733 842.03 71.4267 843.57 70.26C845.11 69.0933 846.86 68.09 848.82 67.25C850.78 66.3633 852.764 65.57 854.77 64.87V61.37C854.77 60.2033 854.677 59.2233 854.49 58.43C854.35 57.6367 854.047 57.03 853.58 56.61C853.16 56.19 852.484 55.98 851.55 55.98C850.757 55.98 850.104 56.1667 849.59 56.54C849.124 56.9133 848.774 57.45 848.54 58.15C848.354 58.8033 848.237 59.5733 848.19 60.46L848.05 62.91L839.02 62.56C839.16 57.8933 840.304 54.4633 842.45 52.27C844.644 50.03 847.957 48.91 852.39 48.91C856.45 48.91 859.39 50.03 861.21 52.27C863.077 54.51 864.01 57.5433 864.01 61.37V80.06C864.01 81.5533 864.034 82.9067 864.08 84.12C864.174 85.3333 864.267 86.43 864.36 87.41C864.5 88.39 864.617 89.2533 864.71 90H856.17C856.03 89.0667 855.844 88.0167 855.61 86.85C855.424 85.6367 855.284 84.75 855.19 84.19C854.724 85.8233 853.837 87.3167 852.53 88.67C851.224 89.9767 849.45 90.63 847.21 90.63ZM850.71 83.56C851.317 83.56 851.877 83.42 852.39 83.14C852.95 82.8133 853.44 82.44 853.86 82.02C854.28 81.6 854.584 81.2267 854.77 80.9V69.63C853.744 70.2367 852.764 70.8433 851.83 71.45C850.944 72.0567 850.15 72.7333 849.45 73.48C848.797 74.18 848.284 74.95 847.91 75.79C847.584 76.63 847.42 77.61 847.42 78.73C847.42 80.2233 847.7 81.4133 848.26 82.3C848.867 83.14 849.684 83.56 850.71 83.56ZM868.361 90L875.291 73.06C874.078 72.5 873.074 71.7067 872.281 70.68C871.534 69.6067 870.974 68.3467 870.601 66.9C870.228 65.4067 870.041 63.7733 870.041 62C870.041 59.9933 870.298 58.22 870.811 56.68C871.371 55.14 872.258 53.8567 873.471 52.83C874.684 51.7567 876.271 50.94 878.231 50.38C880.191 49.82 882.571 49.54 885.371 49.54H896.921V90H887.541V74.81C887.074 74.81 886.491 74.81 885.791 74.81C885.091 74.7633 884.508 74.7167 884.041 74.67L878.441 90H868.361ZM886.841 69.28C886.934 69.28 887.051 69.28 887.191 69.28C887.378 69.28 887.494 69.28 887.541 69.28V54.93C887.494 54.93 887.378 54.93 887.191 54.93C887.051 54.93 886.958 54.93 886.911 54.93C884.951 54.93 883.341 55.1867 882.081 55.7C880.868 56.1667 879.981 56.9133 879.421 57.94C878.908 58.9667 878.651 60.2967 878.651 61.93C878.651 64.4033 879.281 66.2467 880.541 67.46C881.848 68.6267 883.948 69.2333 886.841 69.28ZM110.181 194V153.54H119.701V170.06H121.591L128.451 153.54H138.531L130.341 172.86L138.671 194H128.731L121.591 175.59H119.701V194H110.181ZM150.492 194.63C148.672 194.63 147.108 194.163 145.802 193.23C144.495 192.25 143.492 191.037 142.792 189.59C142.092 188.097 141.742 186.557 141.742 184.97C141.742 182.45 142.208 180.327 143.142 178.6C144.075 176.873 145.312 175.427 146.852 174.26C148.392 173.093 150.142 172.09 152.102 171.25C154.062 170.363 156.045 169.57 158.052 168.87V165.37C158.052 164.203 157.958 163.223 157.772 162.43C157.632 161.637 157.328 161.03 156.862 160.61C156.442 160.19 155.765 159.98 154.832 159.98C154.038 159.98 153.385 160.167 152.872 160.54C152.405 160.913 152.055 161.45 151.822 162.15C151.635 162.803 151.518 163.573 151.472 164.46L151.332 166.91L142.302 166.56C142.442 161.893 143.585 158.463 145.732 156.27C147.925 154.03 151.238 152.91 155.672 152.91C159.732 152.91 162.672 154.03 164.492 156.27C166.358 158.51 167.292 161.543 167.292 165.37V184.06C167.292 185.553 167.315 186.907 167.362 188.12C167.455 189.333 167.548 190.43 167.642 191.41C167.782 192.39 167.898 193.253 167.992 194H159.452C159.312 193.067 159.125 192.017 158.892 190.85C158.705 189.637 158.565 188.75 158.472 188.19C158.005 189.823 157.118 191.317 155.812 192.67C154.505 193.977 152.732 194.63 150.492 194.63ZM153.992 187.56C154.598 187.56 155.158 187.42 155.672 187.14C156.232 186.813 156.722 186.44 157.142 186.02C157.562 185.6 157.865 185.227 158.052 184.9V173.63C157.025 174.237 156.045 174.843 155.112 175.45C154.225 176.057 153.432 176.733 152.732 177.48C152.078 178.18 151.565 178.95 151.192 179.79C150.865 180.63 150.702 181.61 150.702 182.73C150.702 184.223 150.982 185.413 151.542 186.3C152.148 187.14 152.965 187.56 153.992 187.56ZM174.302 207.3V153.54H183.822V156.62C184.989 155.5 186.272 154.613 187.672 153.96C189.072 153.26 190.542 152.91 192.082 152.91C193.902 152.91 195.395 153.33 196.562 154.17C197.729 155.01 198.639 156.13 199.292 157.53C199.945 158.883 200.389 160.353 200.622 161.94C200.902 163.48 201.042 164.973 201.042 166.42V180.14C201.042 182.8 200.715 185.227 200.062 187.42C199.455 189.613 198.452 191.363 197.052 192.67C195.699 193.977 193.879 194.63 191.592 194.63C190.145 194.63 188.769 194.28 187.462 193.58C186.202 192.88 184.989 191.993 183.822 190.92V207.3H174.302ZM188.022 187.98C189.049 187.98 189.795 187.653 190.262 187C190.775 186.3 191.102 185.39 191.242 184.27C191.429 183.103 191.522 181.843 191.522 180.49V166C191.522 164.74 191.429 163.62 191.242 162.64C191.055 161.613 190.705 160.797 190.192 160.19C189.679 159.583 188.932 159.28 187.952 159.28C187.205 159.28 186.459 159.467 185.712 159.84C185.012 160.167 184.382 160.563 183.822 161.03V186.58C184.429 187 185.082 187.35 185.782 187.63C186.482 187.863 187.229 187.98 188.022 187.98ZM212.353 194V160.19H204.933V153.54H229.293V160.19H221.803V194H212.353ZM233.911 194V153.54H241.681V177.9L253.021 153.54H260.441V194H252.671V169.64L241.541 194H233.911ZM267.749 194V153.54H277.269V169.85H285.459V153.54H294.979V194H285.459V176.57H277.269V194H267.749ZM302.271 194V153.54H311.791V170.06H313.681L320.541 153.54H330.621L322.431 172.86L330.761 194H320.821L313.681 175.59H311.791V194H302.271ZM342.582 194.63C340.762 194.63 339.198 194.163 337.892 193.23C336.585 192.25 335.582 191.037 334.882 189.59C334.182 188.097 333.832 186.557 333.832 184.97C333.832 182.45 334.298 180.327 335.232 178.6C336.165 176.873 337.402 175.427 338.942 174.26C340.482 173.093 342.232 172.09 344.192 171.25C346.152 170.363 348.135 169.57 350.142 168.87V165.37C350.142 164.203 350.048 163.223 349.862 162.43C349.722 161.637 349.418 161.03 348.952 160.61C348.532 160.19 347.855 159.98 346.922 159.98C346.128 159.98 345.475 160.167 344.962 160.54C344.495 160.913 344.145 161.45 343.912 162.15C343.725 162.803 343.608 163.573 343.562 164.46L343.422 166.91L334.392 166.56C334.532 161.893 335.675 158.463 337.822 156.27C340.015 154.03 343.328 152.91 347.762 152.91C351.822 152.91 354.762 154.03 356.582 156.27C358.448 158.51 359.382 161.543 359.382 165.37V184.06C359.382 185.553 359.405 186.907 359.452 188.12C359.545 189.333 359.638 190.43 359.732 191.41C359.872 192.39 359.988 193.253 360.082 194H351.542C351.402 193.067 351.215 192.017 350.982 190.85C350.795 189.637 350.655 188.75 350.562 188.19C350.095 189.823 349.208 191.317 347.902 192.67C346.595 193.977 344.822 194.63 342.582 194.63ZM346.082 187.56C346.688 187.56 347.248 187.42 347.762 187.14C348.322 186.813 348.812 186.44 349.232 186.02C349.652 185.6 349.955 185.227 350.142 184.9V173.63C349.115 174.237 348.135 174.843 347.202 175.45C346.315 176.057 345.522 176.733 344.822 177.48C344.168 178.18 343.655 178.95 343.282 179.79C342.955 180.63 342.792 181.61 342.792 182.73C342.792 184.223 343.072 185.413 343.632 186.3C344.238 187.14 345.055 187.56 346.082 187.56ZM367.162 203.52L366.182 200.02C367.442 199.647 368.515 198.97 369.402 197.99C370.289 197.057 370.732 195.727 370.732 194H365.692V184.55H375.002V193.16C375.002 196.147 374.349 198.48 373.042 200.16C371.735 201.887 369.775 203.007 367.162 203.52ZM398.316 194V153.54H407.836V169.85H416.026V153.54H425.546V194H416.026V176.57H407.836V194H398.316ZM445.087 194.63C442.147 194.63 439.721 194.093 437.807 193.02C435.894 191.9 434.447 190.29 433.467 188.19C432.534 186.09 432.067 183.547 432.067 180.56V166.98C432.067 163.993 432.534 161.45 433.467 159.35C434.447 157.25 435.894 155.663 437.807 154.59C439.721 153.47 442.147 152.91 445.087 152.91C448.027 152.91 450.454 153.47 452.367 154.59C454.327 155.663 455.774 157.25 456.707 159.35C457.687 161.45 458.177 163.993 458.177 166.98V180.56C458.177 183.547 457.687 186.09 456.707 188.19C455.774 190.29 454.327 191.9 452.367 193.02C450.454 194.093 448.027 194.63 445.087 194.63ZM445.157 188.05C446.231 188.05 447.024 187.747 447.537 187.14C448.051 186.533 448.377 185.717 448.517 184.69C448.657 183.617 448.727 182.45 448.727 181.19V166.35C448.727 165.09 448.657 163.947 448.517 162.92C448.377 161.893 448.051 161.077 447.537 160.47C447.024 159.817 446.231 159.49 445.157 159.49C444.084 159.49 443.291 159.817 442.777 160.47C442.264 161.077 441.914 161.893 441.727 162.92C441.587 163.947 441.517 165.09 441.517 166.35V181.19C441.517 182.45 441.587 183.617 441.727 184.69C441.914 185.717 442.264 186.533 442.777 187.14C443.291 187.747 444.084 188.05 445.157 188.05ZM481.574 194L481.854 153.54H488.924L497.464 175.59L506.144 153.54H513.144L513.424 194H505.794V171.32L499.004 188.82H496.134L489.274 171.39V194H481.574ZM520.611 194V153.54H530.131V169.99C530.224 169.99 530.317 169.99 530.411 169.99C530.504 169.99 530.597 169.99 530.691 169.99C530.784 169.99 530.854 169.99 530.901 169.99C533.701 170.037 536.104 170.247 538.111 170.62C540.164 170.993 541.844 171.623 543.151 172.51C544.504 173.397 545.507 174.61 546.161 176.15C546.814 177.643 547.141 179.58 547.141 181.96C547.141 184.153 546.837 186.02 546.231 187.56C545.671 189.053 544.714 190.29 543.361 191.27C542.054 192.203 540.327 192.903 538.181 193.37C536.081 193.79 533.537 194 530.551 194H520.611ZM530.131 188.54H530.481C532.534 188.54 534.144 188.353 535.311 187.98C536.477 187.56 537.294 186.883 537.761 185.95C538.274 184.97 538.531 183.64 538.531 181.96C538.531 180.373 538.297 179.137 537.831 178.25C537.364 177.317 536.547 176.64 535.381 176.22C534.261 175.8 532.697 175.59 530.691 175.59C530.644 175.59 530.551 175.59 530.411 175.59C530.317 175.59 530.224 175.59 530.131 175.59V188.54ZM551.621 194V153.54H561.141V194H551.621ZM596.265 194.77C593.932 194.77 591.995 194.443 590.455 193.79C588.915 193.137 587.679 192.203 586.745 190.99C585.859 189.777 585.229 188.33 584.855 186.65C584.529 184.97 584.365 183.103 584.365 181.05H592.135C592.135 183.523 592.485 185.32 593.185 186.44C593.932 187.56 595.029 188.12 596.475 188.12C597.642 188.12 598.505 187.84 599.065 187.28C599.625 186.72 599.999 185.95 600.185 184.97C600.372 183.99 600.465 182.893 600.465 181.68C600.465 180.14 600.209 178.95 599.695 178.11C599.229 177.27 598.412 176.71 597.245 176.43C596.125 176.103 594.562 175.94 592.555 175.94V170.27C595.589 170.27 597.595 169.85 598.575 169.01C599.555 168.17 600.045 166.723 600.045 164.67C600.045 162.99 599.695 161.73 598.995 160.89C598.342 160.05 597.362 159.63 596.055 159.63C594.609 159.63 593.535 160.05 592.835 160.89C592.135 161.73 591.785 163.34 591.785 165.72H584.085C584.085 162.967 584.482 160.657 585.275 158.79C586.115 156.877 587.445 155.43 589.265 154.45C591.085 153.423 593.489 152.91 596.475 152.91C599.322 152.91 601.632 153.423 603.405 154.45C605.179 155.43 606.462 156.76 607.255 158.44C608.095 160.12 608.515 161.963 608.515 163.97C608.515 166.023 608.189 167.68 607.535 168.94C606.929 170.2 606.135 171.133 605.155 171.74C604.175 172.347 603.172 172.767 602.145 173C603.265 173.327 604.315 173.793 605.295 174.4C606.275 174.96 607.069 175.893 607.675 177.2C608.329 178.507 608.655 180.397 608.655 182.87C608.655 186.51 607.652 189.403 605.645 191.55C603.685 193.697 600.559 194.77 596.265 194.77ZM622.24 194.63C620.42 194.63 618.856 194.163 617.55 193.23C616.243 192.25 615.24 191.037 614.54 189.59C613.84 188.097 613.49 186.557 613.49 184.97C613.49 182.45 613.956 180.327 614.89 178.6C615.823 176.873 617.06 175.427 618.6 174.26C620.14 173.093 621.89 172.09 623.85 171.25C625.81 170.363 627.793 169.57 629.8 168.87V165.37C629.8 164.203 629.706 163.223 629.52 162.43C629.38 161.637 629.076 161.03 628.61 160.61C628.19 160.19 627.513 159.98 626.58 159.98C625.786 159.98 625.133 160.167 624.62 160.54C624.153 160.913 623.803 161.45 623.57 162.15C623.383 162.803 623.266 163.573 623.22 164.46L623.08 166.91L614.05 166.56C614.19 161.893 615.333 158.463 617.48 156.27C619.673 154.03 622.986 152.91 627.42 152.91C631.48 152.91 634.42 154.03 636.24 156.27C638.106 158.51 639.04 161.543 639.04 165.37V184.06C639.04 185.553 639.063 186.907 639.11 188.12C639.203 189.333 639.296 190.43 639.39 191.41C639.53 192.39 639.646 193.253 639.74 194H631.2C631.06 193.067 630.873 192.017 630.64 190.85C630.453 189.637 630.313 188.75 630.22 188.19C629.753 189.823 628.866 191.317 627.56 192.67C626.253 193.977 624.48 194.63 622.24 194.63ZM625.74 187.56C626.346 187.56 626.906 187.42 627.42 187.14C627.98 186.813 628.47 186.44 628.89 186.02C629.31 185.6 629.613 185.227 629.8 184.9V173.63C628.773 174.237 627.793 174.843 626.86 175.45C625.973 176.057 625.18 176.733 624.48 177.48C623.826 178.18 623.313 178.95 622.94 179.79C622.613 180.63 622.45 181.61 622.45 182.73C622.45 184.223 622.73 185.413 623.29 186.3C623.896 187.14 624.713 187.56 625.74 187.56ZM658.37 194.63C655.29 194.583 652.817 193.977 650.95 192.81C649.13 191.643 647.8 189.94 646.96 187.7C646.167 185.46 645.77 182.73 645.77 179.51V156.34C645.77 152.7 646.097 149.76 646.75 147.52C647.45 145.28 648.43 143.53 649.69 142.27C650.95 141.01 652.513 140.03 654.38 139.33C656.247 138.583 658.02 138.047 659.7 137.72C661.427 137.347 663.083 136.95 664.67 136.53C666.257 136.063 667.797 135.363 669.29 134.43L670.27 142.2C668.823 142.993 667.283 143.577 665.65 143.95C664.017 144.323 662.407 144.65 660.82 144.93C659.28 145.21 657.833 145.653 656.48 146.26C655.173 146.82 654.193 147.753 653.54 149.06C652.933 150.367 652.63 152.163 652.63 154.45V159.21C653.237 158.557 654.007 157.973 654.94 157.46C655.92 156.947 656.993 156.55 658.16 156.27C659.373 155.99 660.61 155.85 661.87 155.85C663.97 155.85 665.743 156.317 667.19 157.25C668.683 158.137 669.803 159.653 670.55 161.8C671.343 163.9 671.74 166.793 671.74 170.48V179.3C671.74 183.5 671.18 186.72 670.06 188.96C668.94 191.153 667.377 192.647 665.37 193.44C663.363 194.233 661.03 194.63 658.37 194.63ZM658.93 188.19C659.91 188.19 660.657 187.957 661.17 187.49C661.683 186.977 662.033 186.137 662.22 184.97C662.453 183.757 662.57 182.03 662.57 179.79V168.31C662.57 166.677 662.477 165.393 662.29 164.46C662.103 163.48 661.777 162.78 661.31 162.36C660.843 161.893 660.19 161.66 659.35 161.66C658.883 161.66 658.393 161.777 657.88 162.01C657.367 162.243 656.877 162.617 656.41 163.13C655.99 163.643 655.547 164.32 655.08 165.16V179.44C655.08 181.68 655.197 183.43 655.43 184.69C655.663 185.95 656.06 186.86 656.62 187.42C657.18 187.933 657.95 188.19 658.93 188.19ZM678.316 194V153.54H686.086V177.9L697.426 153.54H704.846V194H697.076V169.64L685.946 194H678.316ZM709.564 194.42V187.49C711.01 187.49 712.177 187.233 713.064 186.72C713.95 186.207 714.65 185.343 715.164 184.13C715.677 182.87 716.074 181.19 716.354 179.09C716.634 176.943 716.89 174.26 717.124 171.04L718.244 153.54H741.764V194H732.244V160.26H726.434L725.594 172.16C725.314 176.593 724.894 180.257 724.334 183.15C723.82 186.043 723.027 188.307 721.954 189.94C720.927 191.573 719.527 192.74 717.754 193.44C715.98 194.093 713.717 194.42 710.964 194.42H709.564ZM749.068 194V153.54H756.838V177.9L768.178 153.54H775.598V194H767.828V169.64L756.698 194H749.068ZM799.927 194V153.54H809.447V169.85H817.637V153.54H827.157V194H817.637V176.57H809.447V194H799.927ZM842.289 194.63C840.469 194.63 838.905 194.163 837.599 193.23C836.292 192.25 835.289 191.037 834.589 189.59C833.889 188.097 833.539 186.557 833.539 184.97C833.539 182.45 834.005 180.327 834.939 178.6C835.872 176.873 837.109 175.427 838.649 174.26C840.189 173.093 841.939 172.09 843.899 171.25C845.859 170.363 847.842 169.57 849.849 168.87V165.37C849.849 164.203 849.755 163.223 849.569 162.43C849.429 161.637 849.125 161.03 848.659 160.61C848.239 160.19 847.562 159.98 846.629 159.98C845.835 159.98 845.182 160.167 844.669 160.54C844.202 160.913 843.852 161.45 843.619 162.15C843.432 162.803 843.315 163.573 843.269 164.46L843.129 166.91L834.099 166.56C834.239 161.893 835.382 158.463 837.529 156.27C839.722 154.03 843.035 152.91 847.469 152.91C851.529 152.91 854.469 154.03 856.289 156.27C858.155 158.51 859.089 161.543 859.089 165.37V184.06C859.089 185.553 859.112 186.907 859.159 188.12C859.252 189.333 859.345 190.43 859.439 191.41C859.579 192.39 859.695 193.253 859.789 194H851.249C851.109 193.067 850.922 192.017 850.689 190.85C850.502 189.637 850.362 188.75 850.269 188.19C849.802 189.823 848.915 191.317 847.609 192.67C846.302 193.977 844.529 194.63 842.289 194.63ZM845.789 187.56C846.395 187.56 846.955 187.42 847.469 187.14C848.029 186.813 848.519 186.44 848.939 186.02C849.359 185.6 849.662 185.227 849.849 184.9V173.63C848.822 174.237 847.842 174.843 846.909 175.45C846.022 176.057 845.229 176.733 844.529 177.48C843.875 178.18 843.362 178.95 842.989 179.79C842.662 180.63 842.499 181.61 842.499 182.73C842.499 184.223 842.779 185.413 843.339 186.3C843.945 187.14 844.762 187.56 845.789 187.56ZM348.824 298V257.54H358.344V274.06H360.234L367.094 257.54H377.174L368.984 276.86L377.314 298H367.374L360.234 279.59H358.344V298H348.824ZM393.613 298.63C390.673 298.63 388.246 298.093 386.333 297.02C384.419 295.9 382.973 294.29 381.993 292.19C381.059 290.09 380.593 287.547 380.593 284.56V270.98C380.593 267.993 381.059 265.45 381.993 263.35C382.973 261.25 384.419 259.663 386.333 258.59C388.246 257.47 390.673 256.91 393.613 256.91C396.553 256.91 398.979 257.47 400.893 258.59C402.853 259.663 404.299 261.25 405.233 263.35C406.213 265.45 406.703 267.993 406.703 270.98V284.56C406.703 287.547 406.213 290.09 405.233 292.19C404.299 294.29 402.853 295.9 400.893 297.02C398.979 298.093 396.553 298.63 393.613 298.63ZM393.683 292.05C394.756 292.05 395.549 291.747 396.063 291.14C396.576 290.533 396.903 289.717 397.043 288.69C397.183 287.617 397.253 286.45 397.253 285.19V270.35C397.253 269.09 397.183 267.947 397.043 266.92C396.903 265.893 396.576 265.077 396.063 264.47C395.549 263.817 394.756 263.49 393.683 263.49C392.609 263.49 391.816 263.817 391.303 264.47C390.789 265.077 390.439 265.893 390.253 266.92C390.113 267.947 390.043 269.09 390.043 270.35V285.19C390.043 286.45 390.113 287.617 390.253 288.69C390.439 289.717 390.789 290.533 391.303 291.14C391.816 291.747 392.609 292.05 393.683 292.05ZM413.218 298V257.54H422.738V273.85H430.928V257.54H440.448V298H430.928V280.57H422.738V298H413.218ZM452.5 298V264.19H445.08V257.54H469.44V264.19H461.95V298H452.5ZM485.693 298.63C482.659 298.63 480.186 298.07 478.273 296.95C476.359 295.783 474.936 294.103 474.003 291.91C473.116 289.67 472.673 286.987 472.673 283.86V271.68C472.673 268.46 473.116 265.753 474.003 263.56C474.936 261.367 476.359 259.71 478.273 258.59C480.233 257.47 482.706 256.91 485.693 256.91C488.913 256.91 491.409 257.517 493.183 258.73C495.003 259.943 496.286 261.717 497.033 264.05C497.826 266.337 498.223 269.137 498.223 272.45V278.19H482.123V286.17C482.123 287.477 482.239 288.55 482.473 289.39C482.753 290.23 483.173 290.837 483.733 291.21C484.293 291.583 484.969 291.77 485.763 291.77C486.603 291.77 487.279 291.583 487.793 291.21C488.306 290.79 488.679 290.207 488.913 289.46C489.146 288.667 489.263 287.687 489.263 286.52V283.16H498.153V285.89C498.153 289.997 497.126 293.147 495.073 295.34C493.019 297.533 489.893 298.63 485.693 298.63ZM482.123 273.5H489.263V269.65C489.263 268.25 489.146 267.13 488.913 266.29C488.679 265.403 488.306 264.773 487.793 264.4C487.279 263.98 486.556 263.77 485.623 263.77C484.783 263.77 484.106 263.98 483.593 264.4C483.079 264.82 482.706 265.52 482.473 266.5C482.239 267.48 482.123 268.88 482.123 270.7V273.5ZM504.683 298V257.54H514.203V273.85H522.393V257.54H531.913V298H522.393V280.57H514.203V298H504.683ZM543.964 298V264.19H536.544V257.54H560.904V264.19H553.414V298H543.964ZM564.123 311.02V304.44C565.569 304.44 566.713 303.717 567.553 302.27C568.439 300.823 569.093 298.817 569.513 296.25C569.933 293.637 570.213 290.603 570.353 287.15C570.493 283.697 570.563 279.963 570.563 275.95C570.563 271.937 570.493 268.203 570.353 264.75C570.213 261.25 569.933 258.217 569.513 255.65C569.139 253.037 568.509 251.007 567.623 249.56C566.783 248.067 565.616 247.297 564.123 247.25V240.74C567.016 240.74 569.396 241.37 571.263 242.63C573.176 243.843 574.693 245.593 575.813 247.88C576.933 250.12 577.749 252.733 578.263 255.72C578.776 258.66 579.103 261.857 579.243 265.31C579.383 268.717 579.453 272.263 579.453 275.95C579.453 279.45 579.383 282.903 579.243 286.31C579.103 289.717 578.776 292.913 578.263 295.9C577.749 298.887 576.933 301.5 575.813 303.74C574.693 306.027 573.176 307.8 571.263 309.06C569.396 310.367 567.016 311.02 564.123 311.02ZM584.767 311.02V304.44C586.214 304.44 587.357 303.717 588.197 302.27C589.084 300.823 589.737 298.817 590.157 296.25C590.577 293.637 590.857 290.603 590.997 287.15C591.137 283.697 591.207 279.963 591.207 275.95C591.207 271.937 591.137 268.203 590.997 264.75C590.857 261.25 590.577 258.217 590.157 255.65C589.784 253.037 589.154 251.007 588.267 249.56C587.427 248.067 586.261 247.297 584.767 247.25V240.74C587.661 240.74 590.041 241.37 591.907 242.63C593.821 243.843 595.337 245.593 596.457 247.88C597.577 250.12 598.394 252.733 598.907 255.72C599.421 258.66 599.747 261.857 599.887 265.31C600.027 268.717 600.097 272.263 600.097 275.95C600.097 279.45 600.027 282.903 599.887 286.31C599.747 289.717 599.421 292.913 598.907 295.9C598.394 298.887 597.577 301.5 596.457 303.74C595.337 306.027 593.821 307.8 591.907 309.06C590.041 310.367 587.661 311.02 584.767 311.02ZM605.412 311.02V304.44C606.859 304.44 608.002 303.717 608.842 302.27C609.729 300.823 610.382 298.817 610.802 296.25C611.222 293.637 611.502 290.603 611.642 287.15C611.782 283.697 611.852 279.963 611.852 275.95C611.852 271.937 611.782 268.203 611.642 264.75C611.502 261.25 611.222 258.217 610.802 255.65C610.429 253.037 609.799 251.007 608.912 249.56C608.072 248.067 606.905 247.297 605.412 247.25V240.74C608.305 240.74 610.685 241.37 612.552 242.63C614.465 243.843 615.982 245.593 617.102 247.88C618.222 250.12 619.039 252.733 619.552 255.72C620.065 258.66 620.392 261.857 620.532 265.31C620.672 268.717 620.742 272.263 620.742 275.95C620.742 279.45 620.672 282.903 620.532 286.31C620.392 289.717 620.065 292.913 619.552 295.9C619.039 298.887 618.222 301.5 617.102 303.74C615.982 306.027 614.465 307.8 612.552 309.06C610.685 310.367 608.305 311.02 605.412 311.02Z" fill="#0B0A0A"/>
</g>
<defs>
<clipPath id="clip0_237_378">
<rect width="1000" height="300" fill="white"/>
</clipPath>
</defs>
</svg>
