<svg width="580" height="580" viewBox="0 0 580 580" fill="none" xmlns="http://www.w3.org/2000/svg">
<rect width="580" height="580" fill="#5EABF1"/>
<path d="M26.6924 141.84C23.1924 141.84 20.3458 141.187 18.1524 139.88C16.0058 138.527 14.4424 136.637 13.4624 134.21C12.4824 131.737 11.9924 128.867 11.9924 125.6V123.64H21.6524C21.6524 123.873 21.6524 124.2 21.6524 124.62C21.6524 124.993 21.6524 125.367 21.6524 125.74C21.6991 128.353 22.0724 130.337 22.7724 131.69C23.4724 133.043 24.8258 133.72 26.8324 133.72C28.2791 133.72 29.3524 133.37 30.0524 132.67C30.7991 131.97 31.2891 130.967 31.5224 129.66C31.8024 128.307 31.9424 126.697 31.9424 124.83C31.9424 121.937 31.4058 119.65 30.3324 117.97C29.3058 116.243 27.2291 115.31 24.1024 115.17C23.9624 115.123 23.7291 115.1 23.4024 115.1C23.1224 115.1 22.7958 115.1 22.4224 115.1C22.0491 115.1 21.6991 115.1 21.3724 115.1V108.24C21.6524 108.24 21.9324 108.24 22.2124 108.24C22.4924 108.24 22.7724 108.24 23.0524 108.24C23.3791 108.24 23.6358 108.24 23.8224 108.24C26.9958 108.1 29.1424 107.26 30.2624 105.72C31.3824 104.18 31.9424 101.94 31.9424 99C31.9424 96.62 31.5224 94.7533 30.6824 93.4C29.8891 92.0467 28.4424 91.37 26.3424 91.37C24.3824 91.37 22.9824 92.07 22.1424 93.47C21.3491 94.87 20.8824 96.7133 20.7424 99C20.7424 99.1867 20.7424 99.5367 20.7424 100.05C20.7424 100.517 20.7424 101.007 20.7424 101.52H11.0824V98.79C11.0824 95.57 11.6891 92.84 12.9024 90.6C14.1158 88.3133 15.8424 86.5867 18.0824 85.42C20.3691 84.2067 23.0991 83.6 26.2724 83.6C29.4924 83.6 32.2224 84.2067 34.4624 85.42C36.7491 86.5867 38.4991 88.29 39.7124 90.53C40.9258 92.7233 41.5324 95.43 41.5324 98.65C41.5324 102.01 40.8091 104.787 39.3624 106.98C37.9624 109.173 36.1891 110.573 34.0424 111.18C35.4891 111.74 36.7724 112.58 37.8924 113.7C39.0591 114.773 39.9458 116.22 40.5524 118.04C41.2058 119.813 41.5324 122.03 41.5324 124.69C41.5324 128.097 41.0424 131.107 40.0624 133.72C39.0824 136.287 37.4958 138.293 35.3024 139.74C33.1558 141.14 30.2858 141.84 26.6924 141.84ZM45.4459 151.64V135.05C46.9392 134.163 48.2459 133.067 49.3659 131.76C50.5325 130.407 51.5359 128.75 52.3759 126.79C53.2159 124.83 53.8692 122.473 54.3359 119.72C54.8492 116.967 55.1525 113.7 55.2459 109.92L55.9459 100.54H76.3159V134.84H81.7059V151.64H74.8459L74.1459 141H53.0759L52.4459 151.64H45.4459ZM55.3859 134.84H67.4259V106.63H63.1559L62.6659 112.09C62.5725 115.777 62.3159 118.903 61.8959 121.47C61.4759 124.037 60.9392 126.183 60.2859 127.91C59.6325 129.637 58.8859 131.037 58.0459 132.11C57.2059 133.183 56.3192 134.093 55.3859 134.84ZM98.8373 141.63C95.8039 141.63 93.3306 141.07 91.4173 139.95C89.5039 138.783 88.0806 137.103 87.1473 134.91C86.2606 132.67 85.8173 129.987 85.8173 126.86V114.68C85.8173 111.46 86.2606 108.753 87.1473 106.56C88.0806 104.367 89.5039 102.71 91.4173 101.59C93.3773 100.47 95.8506 99.91 98.8373 99.91C102.057 99.91 104.554 100.517 106.327 101.73C108.147 102.943 109.431 104.717 110.177 107.05C110.971 109.337 111.367 112.137 111.367 115.45V121.19H95.2673V129.17C95.2673 130.477 95.3839 131.55 95.6173 132.39C95.8973 133.23 96.3173 133.837 96.8773 134.21C97.4373 134.583 98.1139 134.77 98.9073 134.77C99.7473 134.77 100.424 134.583 100.937 134.21C101.451 133.79 101.824 133.207 102.057 132.46C102.291 131.667 102.407 130.687 102.407 129.52V126.16H111.297V128.89C111.297 132.997 110.271 136.147 108.217 138.34C106.164 140.533 103.037 141.63 98.8373 141.63ZM95.2673 116.5H102.407V112.65C102.407 111.25 102.291 110.13 102.057 109.29C101.824 108.403 101.451 107.773 100.937 107.4C100.424 106.98 99.7006 106.77 98.7673 106.77C97.9273 106.77 97.2506 106.98 96.7373 107.4C96.2239 107.82 95.8506 108.52 95.6173 109.5C95.3839 110.48 95.2673 111.88 95.2673 113.7V116.5ZM130.008 141.63C126.881 141.63 124.361 141.047 122.448 139.88C120.581 138.667 119.204 136.963 118.318 134.77C117.478 132.53 117.058 129.893 117.058 126.86V114.68C117.058 111.553 117.478 108.893 118.318 106.7C119.204 104.507 120.604 102.827 122.518 101.66C124.431 100.493 126.928 99.91 130.008 99.91C132.901 99.91 135.258 100.377 137.078 101.31C138.944 102.197 140.298 103.573 141.138 105.44C141.978 107.26 142.398 109.57 142.398 112.37V115.73H133.438V112.16C133.438 110.76 133.321 109.663 133.088 108.87C132.901 108.03 132.551 107.447 132.038 107.12C131.524 106.747 130.848 106.56 130.008 106.56C129.168 106.56 128.491 106.793 127.978 107.26C127.464 107.68 127.091 108.38 126.858 109.36C126.671 110.34 126.578 111.693 126.578 113.42V128.26C126.578 130.873 126.858 132.647 127.418 133.58C127.978 134.467 128.864 134.91 130.078 134.91C131.011 134.91 131.711 134.7 132.177 134.28C132.691 133.86 133.018 133.253 133.158 132.46C133.344 131.62 133.438 130.617 133.438 129.45V125.11H142.398V128.96C142.398 131.667 141.954 133.977 141.068 135.89C140.228 137.803 138.874 139.25 137.008 140.23C135.188 141.163 132.854 141.63 130.008 141.63ZM148.658 141V100.54H158.178V116.99C158.271 116.99 158.364 116.99 158.458 116.99C158.551 116.99 158.644 116.99 158.738 116.99C158.831 116.99 158.901 116.99 158.948 116.99C161.748 117.037 164.151 117.247 166.158 117.62C168.211 117.947 169.891 118.553 171.198 119.44C172.551 120.327 173.554 121.54 174.208 123.08C174.861 124.573 175.188 126.51 175.188 128.89C175.188 131.083 174.884 132.95 174.278 134.49C173.718 136.03 172.761 137.29 171.408 138.27C170.101 139.203 168.374 139.903 166.228 140.37C164.128 140.79 161.584 141 158.598 141H148.658ZM158.178 135.54H158.528C160.581 135.54 162.191 135.353 163.358 134.98C164.524 134.56 165.341 133.883 165.808 132.95C166.321 131.97 166.578 130.64 166.578 128.96C166.578 127.373 166.344 126.137 165.878 125.25C165.411 124.317 164.594 123.64 163.428 123.22C162.308 122.8 160.744 122.59 158.738 122.59C158.691 122.59 158.598 122.59 158.458 122.59C158.364 122.59 158.271 122.59 158.178 122.59V135.54ZM195.085 151.64V135.05C196.578 134.163 197.885 133.067 199.005 131.76C200.171 130.407 201.175 128.75 202.015 126.79C202.855 124.83 203.508 122.473 203.975 119.72C204.488 116.967 204.791 113.7 204.885 109.92L205.585 100.54H225.955V134.84H231.345V151.64H224.485L223.785 141H202.715L202.085 151.64H195.085ZM205.025 134.84H217.065V106.63H212.795L212.305 112.09C212.211 115.777 211.955 118.903 211.535 121.47C211.115 124.037 210.578 126.183 209.925 127.91C209.271 129.637 208.525 131.037 207.685 132.11C206.845 133.183 205.958 134.093 205.025 134.84ZM247.724 141.63C244.784 141.63 242.357 141.093 240.444 140.02C238.531 138.9 237.084 137.29 236.104 135.19C235.171 133.09 234.704 130.547 234.704 127.56V113.98C234.704 110.993 235.171 108.45 236.104 106.35C237.084 104.25 238.531 102.663 240.444 101.59C242.357 100.47 244.784 99.91 247.724 99.91C250.664 99.91 253.091 100.47 255.004 101.59C256.964 102.663 258.411 104.25 259.344 106.35C260.324 108.45 260.814 110.993 260.814 113.98V127.56C260.814 130.547 260.324 133.09 259.344 135.19C258.411 137.29 256.964 138.9 255.004 140.02C253.091 141.093 250.664 141.63 247.724 141.63ZM247.794 135.05C248.867 135.05 249.661 134.747 250.174 134.14C250.687 133.533 251.014 132.717 251.154 131.69C251.294 130.617 251.364 129.45 251.364 128.19V113.35C251.364 112.09 251.294 110.947 251.154 109.92C251.014 108.893 250.687 108.077 250.174 107.47C249.661 106.817 248.867 106.49 247.794 106.49C246.721 106.49 245.927 106.817 245.414 107.47C244.901 108.077 244.551 108.893 244.364 109.92C244.224 110.947 244.154 112.09 244.154 113.35V128.19C244.154 129.45 244.224 130.617 244.364 131.69C244.551 132.717 244.901 133.533 245.414 134.14C245.927 134.747 246.721 135.05 247.794 135.05ZM264.261 141.42V134.49C265.708 134.49 266.874 134.233 267.761 133.72C268.648 133.207 269.348 132.343 269.861 131.13C270.374 129.87 270.771 128.19 271.051 126.09C271.331 123.943 271.588 121.26 271.821 118.04L272.941 100.54H296.461V141H286.941V107.26H281.131L280.291 119.16C280.011 123.593 279.591 127.257 279.031 130.15C278.518 133.043 277.724 135.307 276.651 136.94C275.624 138.573 274.224 139.74 272.451 140.44C270.678 141.093 268.414 141.42 265.661 141.42H264.261ZM300.545 141L309.575 120.49L301.105 100.54H309.645L317.135 119.86H317.835V100.54H325.675V119.86H326.375L334.075 100.54H342.685L333.935 120.49L343.175 141H334.985L326.375 121.33H325.675V141H317.835V121.33H317.065L308.735 141H300.545ZM347.242 141V100.54H356.762V116.85H364.952V100.54H374.472V141H364.952V123.57H356.762V141H347.242ZM389.603 141.63C387.783 141.63 386.22 141.163 384.913 140.23C383.606 139.25 382.603 138.037 381.903 136.59C381.203 135.097 380.853 133.557 380.853 131.97C380.853 129.45 381.32 127.327 382.253 125.6C383.186 123.873 384.423 122.427 385.963 121.26C387.503 120.093 389.253 119.09 391.213 118.25C393.173 117.363 395.156 116.57 397.163 115.87V112.37C397.163 111.203 397.07 110.223 396.883 109.43C396.743 108.637 396.44 108.03 395.973 107.61C395.553 107.19 394.876 106.98 393.943 106.98C393.15 106.98 392.496 107.167 391.983 107.54C391.516 107.913 391.166 108.45 390.933 109.15C390.746 109.803 390.63 110.573 390.583 111.46L390.443 113.91L381.413 113.56C381.553 108.893 382.696 105.463 384.843 103.27C387.036 101.03 390.35 99.91 394.783 99.91C398.843 99.91 401.783 101.03 403.603 103.27C405.47 105.51 406.403 108.543 406.403 112.37V131.06C406.403 132.553 406.426 133.907 406.473 135.12C406.566 136.333 406.66 137.43 406.753 138.41C406.893 139.39 407.01 140.253 407.103 141H398.563C398.423 140.067 398.236 139.017 398.003 137.85C397.816 136.637 397.676 135.75 397.583 135.19C397.116 136.823 396.23 138.317 394.923 139.67C393.616 140.977 391.843 141.63 389.603 141.63ZM393.103 134.56C393.71 134.56 394.27 134.42 394.783 134.14C395.343 133.813 395.833 133.44 396.253 133.02C396.673 132.6 396.976 132.227 397.163 131.9V120.63C396.136 121.237 395.156 121.843 394.223 122.45C393.336 123.057 392.543 123.733 391.843 124.48C391.19 125.18 390.676 125.95 390.303 126.79C389.976 127.63 389.813 128.61 389.813 129.73C389.813 131.223 390.093 132.413 390.653 133.3C391.26 134.14 392.076 134.56 393.103 134.56ZM442.755 141.63C439.675 141.583 437.202 140.977 435.335 139.81C433.515 138.643 432.185 136.94 431.345 134.7C430.552 132.46 430.155 129.73 430.155 126.51V103.34C430.155 99.7 430.482 96.76 431.135 94.52C431.835 92.28 432.815 90.53 434.075 89.27C435.335 88.01 436.898 87.03 438.765 86.33C440.632 85.5833 442.405 85.0467 444.085 84.72C445.812 84.3467 447.468 83.95 449.055 83.53C450.642 83.0633 452.182 82.3633 453.675 81.43L454.655 89.2C453.208 89.9933 451.668 90.5767 450.035 90.95C448.402 91.3233 446.792 91.65 445.205 91.93C443.665 92.21 442.218 92.6533 440.865 93.26C439.558 93.82 438.578 94.7533 437.925 96.06C437.318 97.3667 437.015 99.1633 437.015 101.45V106.21C437.622 105.557 438.392 104.973 439.325 104.46C440.305 103.947 441.378 103.55 442.545 103.27C443.758 102.99 444.995 102.85 446.255 102.85C448.355 102.85 450.128 103.317 451.575 104.25C453.068 105.137 454.188 106.653 454.935 108.8C455.728 110.9 456.125 113.793 456.125 117.48V126.3C456.125 130.5 455.565 133.72 454.445 135.96C453.325 138.153 451.762 139.647 449.755 140.44C447.748 141.233 445.415 141.63 442.755 141.63ZM443.315 135.19C444.295 135.19 445.042 134.957 445.555 134.49C446.068 133.977 446.418 133.137 446.605 131.97C446.838 130.757 446.955 129.03 446.955 126.79V115.31C446.955 113.677 446.862 112.393 446.675 111.46C446.488 110.48 446.162 109.78 445.695 109.36C445.228 108.893 444.575 108.66 443.735 108.66C443.268 108.66 442.778 108.777 442.265 109.01C441.752 109.243 441.262 109.617 440.795 110.13C440.375 110.643 439.932 111.32 439.465 112.16V126.44C439.465 128.68 439.582 130.43 439.815 131.69C440.048 132.95 440.445 133.86 441.005 134.42C441.565 134.933 442.335 135.19 443.315 135.19ZM462.701 141V100.54H472.221V116.99C472.314 116.99 472.407 116.99 472.501 116.99C472.594 116.99 472.687 116.99 472.781 116.99C472.874 116.99 472.944 116.99 472.991 116.99C475.791 117.037 478.194 117.247 480.201 117.62C482.254 117.993 483.934 118.623 485.241 119.51C486.594 120.397 487.597 121.61 488.251 123.15C488.904 124.643 489.231 126.58 489.231 128.96C489.231 131.153 488.927 133.02 488.321 134.56C487.761 136.053 486.804 137.29 485.451 138.27C484.144 139.203 482.417 139.903 480.271 140.37C478.171 140.79 475.627 141 472.641 141H462.701ZM472.221 135.54H472.571C474.624 135.54 476.234 135.353 477.401 134.98C478.567 134.56 479.384 133.883 479.851 132.95C480.364 131.97 480.621 130.64 480.621 128.96C480.621 127.373 480.387 126.137 479.921 125.25C479.454 124.317 478.637 123.64 477.471 123.22C476.351 122.8 474.787 122.59 472.781 122.59C472.734 122.59 472.641 122.59 472.501 122.59C472.407 122.59 472.314 122.59 472.221 122.59V135.54ZM493.711 141V100.54H503.231V141H493.711ZM515.244 141V107.19H507.824V100.54H532.184V107.19H524.694V141H515.244ZM536.802 141V100.54H546.322V116.99C546.415 116.99 546.509 116.99 546.602 116.99C546.695 116.99 546.789 116.99 546.882 116.99C546.975 116.99 547.045 116.99 547.092 116.99C549.892 117.037 552.295 117.247 554.302 117.62C556.355 117.947 558.035 118.553 559.342 119.44C560.695 120.327 561.699 121.54 562.352 123.08C563.005 124.573 563.332 126.51 563.332 128.89C563.332 131.083 563.029 132.95 562.422 134.49C561.862 136.03 560.905 137.29 559.552 138.27C558.245 139.203 556.519 139.903 554.372 140.37C552.272 140.79 549.729 141 546.742 141H536.802ZM546.322 135.54H546.672C548.725 135.54 550.335 135.353 551.502 134.98C552.669 134.56 553.485 133.883 553.952 132.95C554.465 131.97 554.722 130.64 554.722 128.96C554.722 127.373 554.489 126.137 554.022 125.25C553.555 124.317 552.739 123.64 551.572 123.22C550.452 122.8 548.889 122.59 546.882 122.59C546.835 122.59 546.742 122.59 546.602 122.59C546.509 122.59 546.415 122.59 546.322 122.59V135.54ZM29.1774 245.63C26.0508 245.63 23.5308 245.047 21.6174 243.88C19.7508 242.667 18.3741 240.963 17.4874 238.77C16.6474 236.53 16.2274 233.893 16.2274 230.86V218.68C16.2274 215.553 16.6474 212.893 17.4874 210.7C18.3741 208.507 19.7741 206.827 21.6874 205.66C23.6008 204.493 26.0974 203.91 29.1774 203.91C32.0708 203.91 34.4274 204.377 36.2474 205.31C38.1141 206.197 39.4674 207.573 40.3074 209.44C41.1474 211.26 41.5674 213.57 41.5674 216.37V219.73H32.6074V216.16C32.6074 214.76 32.4908 213.663 32.2574 212.87C32.0708 212.03 31.7208 211.447 31.2074 211.12C30.6941 210.747 30.0174 210.56 29.1774 210.56C28.3374 210.56 27.6608 210.793 27.1474 211.26C26.6341 211.68 26.2608 212.38 26.0274 213.36C25.8408 214.34 25.7474 215.693 25.7474 217.42V232.26C25.7474 234.873 26.0274 236.647 26.5874 237.58C27.1474 238.467 28.0341 238.91 29.2474 238.91C30.1808 238.91 30.8808 238.7 31.3474 238.28C31.8608 237.86 32.1874 237.253 32.3274 236.46C32.5141 235.62 32.6074 234.617 32.6074 233.45V229.11H41.5674V232.96C41.5674 235.667 41.1241 237.977 40.2374 239.89C39.3974 241.803 38.0441 243.25 36.1774 244.23C34.3574 245.163 32.0241 245.63 29.1774 245.63ZM52.5875 245V211.19H45.1675V204.54H69.5275V211.19H62.0375V245H52.5875ZM74.1459 245V204.54H81.9159V228.9L93.2559 204.54H100.676V245H92.9059V220.64L81.7759 245H74.1459ZM105.394 245.42V238.49C106.84 238.49 108.007 238.233 108.894 237.72C109.78 237.207 110.48 236.343 110.994 235.13C111.507 233.87 111.904 232.19 112.184 230.09C112.464 227.943 112.72 225.26 112.954 222.04L114.074 204.54H137.594V245H128.074V211.26H122.264L121.424 223.16C121.144 227.593 120.724 231.257 120.164 234.15C119.65 237.043 118.857 239.307 117.784 240.94C116.757 242.573 115.357 243.74 113.584 244.44C111.81 245.093 109.547 245.42 106.794 245.42H105.394ZM144.898 245V204.54H154.418V220.99C154.511 220.99 154.604 220.99 154.698 220.99C154.791 220.99 154.884 220.99 154.978 220.99C155.071 220.99 155.141 220.99 155.188 220.99C157.988 221.037 160.391 221.247 162.398 221.62C164.451 221.947 166.131 222.553 167.438 223.44C168.791 224.327 169.794 225.54 170.448 227.08C171.101 228.573 171.428 230.51 171.428 232.89C171.428 235.083 171.124 236.95 170.518 238.49C169.958 240.03 169.001 241.29 167.648 242.27C166.341 243.203 164.614 243.903 162.468 244.37C160.368 244.79 157.824 245 154.838 245H144.898ZM154.418 239.54H154.768C156.821 239.54 158.431 239.353 159.598 238.98C160.764 238.56 161.581 237.883 162.048 236.95C162.561 235.97 162.818 234.64 162.818 232.96C162.818 231.373 162.584 230.137 162.118 229.25C161.651 228.317 160.834 227.64 159.668 227.22C158.548 226.8 156.984 226.59 154.978 226.59C154.931 226.59 154.838 226.59 154.698 226.59C154.604 226.59 154.511 226.59 154.418 226.59V239.54ZM176.753 245V204.54H186.273V220.85H194.463V204.54H203.983V245H194.463V227.57H186.273V245H176.753ZM219.115 245.63C217.295 245.63 215.731 245.163 214.425 244.23C213.118 243.25 212.115 242.037 211.415 240.59C210.715 239.097 210.365 237.557 210.365 235.97C210.365 233.45 210.831 231.327 211.765 229.6C212.698 227.873 213.935 226.427 215.475 225.26C217.015 224.093 218.765 223.09 220.725 222.25C222.685 221.363 224.668 220.57 226.675 219.87V216.37C226.675 215.203 226.581 214.223 226.395 213.43C226.255 212.637 225.951 212.03 225.485 211.61C225.065 211.19 224.388 210.98 223.455 210.98C222.661 210.98 222.008 211.167 221.495 211.54C221.028 211.913 220.678 212.45 220.445 213.15C220.258 213.803 220.141 214.573 220.095 215.46L219.955 217.91L210.925 217.56C211.065 212.893 212.208 209.463 214.355 207.27C216.548 205.03 219.861 203.91 224.295 203.91C228.355 203.91 231.295 205.03 233.115 207.27C234.981 209.51 235.915 212.543 235.915 216.37V235.06C235.915 236.553 235.938 237.907 235.985 239.12C236.078 240.333 236.171 241.43 236.265 242.41C236.405 243.39 236.521 244.253 236.615 245H228.075C227.935 244.067 227.748 243.017 227.515 241.85C227.328 240.637 227.188 239.75 227.095 239.19C226.628 240.823 225.741 242.317 224.435 243.67C223.128 244.977 221.355 245.63 219.115 245.63ZM222.615 238.56C223.221 238.56 223.781 238.42 224.295 238.14C224.855 237.813 225.345 237.44 225.765 237.02C226.185 236.6 226.488 236.227 226.675 235.9V224.63C225.648 225.237 224.668 225.843 223.735 226.45C222.848 227.057 222.055 227.733 221.355 228.48C220.701 229.18 220.188 229.95 219.815 230.79C219.488 231.63 219.325 232.61 219.325 233.73C219.325 235.223 219.605 236.413 220.165 237.3C220.771 238.14 221.588 238.56 222.615 238.56ZM240.265 245L247.195 228.06C245.982 227.5 244.978 226.707 244.185 225.68C243.438 224.607 242.878 223.347 242.505 221.9C242.132 220.407 241.945 218.773 241.945 217C241.945 214.993 242.202 213.22 242.715 211.68C243.275 210.14 244.162 208.857 245.375 207.83C246.588 206.757 248.175 205.94 250.135 205.38C252.095 204.82 254.475 204.54 257.275 204.54H268.825V245H259.445V229.81C258.978 229.81 258.395 229.81 257.695 229.81C256.995 229.763 256.412 229.717 255.945 229.67L250.345 245H240.265ZM258.745 224.28C258.838 224.28 258.955 224.28 259.095 224.28C259.282 224.28 259.398 224.28 259.445 224.28V209.93C259.398 209.93 259.282 209.93 259.095 209.93C258.955 209.93 258.862 209.93 258.815 209.93C256.855 209.93 255.245 210.187 253.985 210.7C252.772 211.167 251.885 211.913 251.325 212.94C250.812 213.967 250.555 215.297 250.555 216.93C250.555 219.403 251.185 221.247 252.445 222.46C253.752 223.627 255.852 224.233 258.745 224.28ZM293.169 245V204.54H302.689V221.06H304.579L311.439 204.54H321.519L313.329 223.86L321.659 245H311.719L304.579 226.59H302.689V245H293.169ZM333.48 245.63C331.66 245.63 330.097 245.163 328.79 244.23C327.483 243.25 326.48 242.037 325.78 240.59C325.08 239.097 324.73 237.557 324.73 235.97C324.73 233.45 325.197 231.327 326.13 229.6C327.063 227.873 328.3 226.427 329.84 225.26C331.38 224.093 333.13 223.09 335.09 222.25C337.05 221.363 339.033 220.57 341.04 219.87V216.37C341.04 215.203 340.947 214.223 340.76 213.43C340.62 212.637 340.317 212.03 339.85 211.61C339.43 211.19 338.753 210.98 337.82 210.98C337.027 210.98 336.373 211.167 335.86 211.54C335.393 211.913 335.043 212.45 334.81 213.15C334.623 213.803 334.507 214.573 334.46 215.46L334.32 217.91L325.29 217.56C325.43 212.893 326.573 209.463 328.72 207.27C330.913 205.03 334.227 203.91 338.66 203.91C342.72 203.91 345.66 205.03 347.48 207.27C349.347 209.51 350.28 212.543 350.28 216.37V235.06C350.28 236.553 350.303 237.907 350.35 239.12C350.443 240.333 350.537 241.43 350.63 242.41C350.77 243.39 350.887 244.253 350.98 245H342.44C342.3 244.067 342.113 243.017 341.88 241.85C341.693 240.637 341.553 239.75 341.46 239.19C340.993 240.823 340.107 242.317 338.8 243.67C337.493 244.977 335.72 245.63 333.48 245.63ZM336.98 238.56C337.587 238.56 338.147 238.42 338.66 238.14C339.22 237.813 339.71 237.44 340.13 237.02C340.55 236.6 340.853 236.227 341.04 235.9V224.63C340.013 225.237 339.033 225.843 338.1 226.45C337.213 227.057 336.42 227.733 335.72 228.48C335.067 229.18 334.553 229.95 334.18 230.79C333.853 231.63 333.69 232.61 333.69 233.73C333.69 235.223 333.97 236.413 334.53 237.3C335.137 238.14 335.953 238.56 336.98 238.56ZM357.29 258.3V204.54H366.81V207.62C367.977 206.5 369.26 205.613 370.66 204.96C372.06 204.26 373.53 203.91 375.07 203.91C376.89 203.91 378.384 204.33 379.55 205.17C380.717 206.01 381.627 207.13 382.28 208.53C382.934 209.883 383.377 211.353 383.61 212.94C383.89 214.48 384.03 215.973 384.03 217.42V231.14C384.03 233.8 383.704 236.227 383.05 238.42C382.444 240.613 381.44 242.363 380.04 243.67C378.687 244.977 376.867 245.63 374.58 245.63C373.134 245.63 371.757 245.28 370.45 244.58C369.19 243.88 367.977 242.993 366.81 241.92V258.3H357.29ZM371.01 238.98C372.037 238.98 372.784 238.653 373.25 238C373.764 237.3 374.09 236.39 374.23 235.27C374.417 234.103 374.51 232.843 374.51 231.49V217C374.51 215.74 374.417 214.62 374.23 213.64C374.044 212.613 373.694 211.797 373.18 211.19C372.667 210.583 371.92 210.28 370.94 210.28C370.194 210.28 369.447 210.467 368.7 210.84C368 211.167 367.37 211.563 366.81 212.03V237.58C367.417 238 368.07 238.35 368.77 238.63C369.47 238.863 370.217 238.98 371.01 238.98ZM395.341 245V211.19H387.921V204.54H412.281V211.19H404.791V245H395.341ZM416.9 245V204.54H424.67V228.9L436.01 204.54H443.43V245H435.66V220.64L424.53 245H416.9ZM450.738 245V204.54H460.258V220.85H468.448V204.54H477.968V245H468.448V227.57H460.258V245H450.738ZM485.259 245V204.54H494.779V221.06H496.669L503.529 204.54H513.609L505.419 223.86L513.749 245H503.809L496.669 226.59H494.779V245H485.259ZM525.57 245.63C523.75 245.63 522.187 245.163 520.88 244.23C519.573 243.25 518.57 242.037 517.87 240.59C517.17 239.097 516.82 237.557 516.82 235.97C516.82 233.45 517.287 231.327 518.22 229.6C519.153 227.873 520.39 226.427 521.93 225.26C523.47 224.093 525.22 223.09 527.18 222.25C529.14 221.363 531.123 220.57 533.13 219.87V216.37C533.13 215.203 533.037 214.223 532.85 213.43C532.71 212.637 532.407 212.03 531.94 211.61C531.52 211.19 530.843 210.98 529.91 210.98C529.117 210.98 528.463 211.167 527.95 211.54C527.483 211.913 527.133 212.45 526.9 213.15C526.713 213.803 526.597 214.573 526.55 215.46L526.41 217.91L517.38 217.56C517.52 212.893 518.663 209.463 520.81 207.27C523.003 205.03 526.317 203.91 530.75 203.91C534.81 203.91 537.75 205.03 539.57 207.27C541.437 209.51 542.37 212.543 542.37 216.37V235.06C542.37 236.553 542.393 237.907 542.44 239.12C542.533 240.333 542.627 241.43 542.72 242.41C542.86 243.39 542.977 244.253 543.07 245H534.53C534.39 244.067 534.203 243.017 533.97 241.85C533.783 240.637 533.643 239.75 533.55 239.19C533.083 240.823 532.197 242.317 530.89 243.67C529.583 244.977 527.81 245.63 525.57 245.63ZM529.07 238.56C529.677 238.56 530.237 238.42 530.75 238.14C531.31 237.813 531.8 237.44 532.22 237.02C532.64 236.6 532.943 236.227 533.13 235.9V224.63C532.103 225.237 531.123 225.843 530.19 226.45C529.303 227.057 528.51 227.733 527.81 228.48C527.157 229.18 526.643 229.95 526.27 230.79C525.943 231.63 525.78 232.61 525.78 233.73C525.78 235.223 526.06 236.413 526.62 237.3C527.227 238.14 528.043 238.56 529.07 238.56ZM550.15 254.52L549.17 251.02C550.43 250.647 551.504 249.97 552.39 248.99C553.277 248.057 553.72 246.727 553.72 245H548.68V235.55H557.99V244.16C557.99 247.147 557.337 249.48 556.03 251.16C554.724 252.887 552.764 254.007 550.15 254.52ZM56.7484 349V308.54H66.2684V324.85H74.4584V308.54H83.9784V349H74.4584V331.57H66.2684V349H56.7484ZM103.52 349.63C100.58 349.63 98.1532 349.093 96.2399 348.02C94.3265 346.9 92.8799 345.29 91.8999 343.19C90.9665 341.09 90.4999 338.547 90.4999 335.56V321.98C90.4999 318.993 90.9665 316.45 91.8999 314.35C92.8799 312.25 94.3265 310.663 96.2399 309.59C98.1532 308.47 100.58 307.91 103.52 307.91C106.46 307.91 108.887 308.47 110.8 309.59C112.76 310.663 114.207 312.25 115.14 314.35C116.12 316.45 116.61 318.993 116.61 321.98V335.56C116.61 338.547 116.12 341.09 115.14 343.19C114.207 345.29 112.76 346.9 110.8 348.02C108.887 349.093 106.46 349.63 103.52 349.63ZM103.59 343.05C104.663 343.05 105.457 342.747 105.97 342.14C106.483 341.533 106.81 340.717 106.95 339.69C107.09 338.617 107.16 337.45 107.16 336.19V321.35C107.16 320.09 107.09 318.947 106.95 317.92C106.81 316.893 106.483 316.077 105.97 315.47C105.457 314.817 104.663 314.49 103.59 314.49C102.517 314.49 101.723 314.817 101.21 315.47C100.697 316.077 100.347 316.893 100.16 317.92C100.02 318.947 99.9499 320.09 99.9499 321.35V336.19C99.9499 337.45 100.02 338.617 100.16 339.69C100.347 340.717 100.697 341.533 101.21 342.14C101.723 342.747 102.517 343.05 103.59 343.05ZM140.007 349L140.287 308.54H147.357L155.897 330.59L164.577 308.54H171.577L171.857 349H164.227V326.32L157.437 343.82H154.567L147.707 326.39V349H140.007ZM179.043 349V308.54H188.563V324.99C188.657 324.99 188.75 324.99 188.843 324.99C188.937 324.99 189.03 324.99 189.123 324.99C189.217 324.99 189.287 324.99 189.333 324.99C192.133 325.037 194.537 325.247 196.543 325.62C198.597 325.993 200.277 326.623 201.583 327.51C202.937 328.397 203.94 329.61 204.593 331.15C205.247 332.643 205.573 334.58 205.573 336.96C205.573 339.153 205.27 341.02 204.663 342.56C204.103 344.053 203.147 345.29 201.793 346.27C200.487 347.203 198.76 347.903 196.613 348.37C194.513 348.79 191.97 349 188.983 349H179.043ZM188.563 343.54H188.913C190.967 343.54 192.577 343.353 193.743 342.98C194.91 342.56 195.727 341.883 196.193 340.95C196.707 339.97 196.963 338.64 196.963 336.96C196.963 335.373 196.73 334.137 196.263 333.25C195.797 332.317 194.98 331.64 193.813 331.22C192.693 330.8 191.13 330.59 189.123 330.59C189.077 330.59 188.983 330.59 188.843 330.59C188.75 330.59 188.657 330.59 188.563 330.59V343.54ZM210.053 349V308.54H219.573V349H210.053ZM254.698 349.77C252.365 349.77 250.428 349.443 248.888 348.79C247.348 348.137 246.111 347.203 245.178 345.99C244.291 344.777 243.661 343.33 243.288 341.65C242.961 339.97 242.798 338.103 242.798 336.05H250.568C250.568 338.523 250.918 340.32 251.618 341.44C252.365 342.56 253.461 343.12 254.908 343.12C256.075 343.12 256.938 342.84 257.498 342.28C258.058 341.72 258.431 340.95 258.618 339.97C258.805 338.99 258.898 337.893 258.898 336.68C258.898 335.14 258.641 333.95 258.128 333.11C257.661 332.27 256.845 331.71 255.678 331.43C254.558 331.103 252.995 330.94 250.988 330.94V325.27C254.021 325.27 256.028 324.85 257.008 324.01C257.988 323.17 258.478 321.723 258.478 319.67C258.478 317.99 258.128 316.73 257.428 315.89C256.775 315.05 255.795 314.63 254.488 314.63C253.041 314.63 251.968 315.05 251.268 315.89C250.568 316.73 250.218 318.34 250.218 320.72H242.518C242.518 317.967 242.915 315.657 243.708 313.79C244.548 311.877 245.878 310.43 247.698 309.45C249.518 308.423 251.921 307.91 254.908 307.91C257.755 307.91 260.065 308.423 261.838 309.45C263.611 310.43 264.895 311.76 265.688 313.44C266.528 315.12 266.948 316.963 266.948 318.97C266.948 321.023 266.621 322.68 265.968 323.94C265.361 325.2 264.568 326.133 263.588 326.74C262.608 327.347 261.605 327.767 260.578 328C261.698 328.327 262.748 328.793 263.728 329.4C264.708 329.96 265.501 330.893 266.108 332.2C266.761 333.507 267.088 335.397 267.088 337.87C267.088 341.51 266.085 344.403 264.078 346.55C262.118 348.697 258.991 349.77 254.698 349.77ZM280.672 349.63C278.852 349.63 277.289 349.163 275.982 348.23C274.676 347.25 273.672 346.037 272.972 344.59C272.272 343.097 271.922 341.557 271.922 339.97C271.922 337.45 272.389 335.327 273.322 333.6C274.256 331.873 275.492 330.427 277.032 329.26C278.572 328.093 280.322 327.09 282.282 326.25C284.242 325.363 286.226 324.57 288.232 323.87V320.37C288.232 319.203 288.139 318.223 287.952 317.43C287.812 316.637 287.509 316.03 287.042 315.61C286.622 315.19 285.946 314.98 285.012 314.98C284.219 314.98 283.566 315.167 283.052 315.54C282.586 315.913 282.236 316.45 282.002 317.15C281.816 317.803 281.699 318.573 281.652 319.46L281.512 321.91L272.482 321.56C272.622 316.893 273.766 313.463 275.912 311.27C278.106 309.03 281.419 307.91 285.852 307.91C289.912 307.91 292.852 309.03 294.672 311.27C296.539 313.51 297.472 316.543 297.472 320.37V339.06C297.472 340.553 297.496 341.907 297.542 343.12C297.636 344.333 297.729 345.43 297.822 346.41C297.962 347.39 298.079 348.253 298.172 349H289.632C289.492 348.067 289.306 347.017 289.072 345.85C288.886 344.637 288.746 343.75 288.652 343.19C288.186 344.823 287.299 346.317 285.992 347.67C284.686 348.977 282.912 349.63 280.672 349.63ZM284.172 342.56C284.779 342.56 285.339 342.42 285.852 342.14C286.412 341.813 286.902 341.44 287.322 341.02C287.742 340.6 288.046 340.227 288.232 339.9V328.63C287.206 329.237 286.226 329.843 285.292 330.45C284.406 331.057 283.612 331.733 282.912 332.48C282.259 333.18 281.746 333.95 281.372 334.79C281.046 335.63 280.882 336.61 280.882 337.73C280.882 339.223 281.162 340.413 281.722 341.3C282.329 342.14 283.146 342.56 284.172 342.56ZM316.803 349.63C313.723 349.583 311.249 348.977 309.383 347.81C307.563 346.643 306.233 344.94 305.393 342.7C304.599 340.46 304.203 337.73 304.203 334.51V311.34C304.203 307.7 304.529 304.76 305.183 302.52C305.883 300.28 306.863 298.53 308.123 297.27C309.383 296.01 310.946 295.03 312.813 294.33C314.679 293.583 316.453 293.047 318.133 292.72C319.859 292.347 321.516 291.95 323.103 291.53C324.689 291.063 326.229 290.363 327.723 289.43L328.703 297.2C327.256 297.993 325.716 298.577 324.083 298.95C322.449 299.323 320.839 299.65 319.253 299.93C317.713 300.21 316.266 300.653 314.913 301.26C313.606 301.82 312.626 302.753 311.973 304.06C311.366 305.367 311.063 307.163 311.063 309.45V314.21C311.669 313.557 312.439 312.973 313.373 312.46C314.353 311.947 315.426 311.55 316.593 311.27C317.806 310.99 319.043 310.85 320.303 310.85C322.403 310.85 324.176 311.317 325.623 312.25C327.116 313.137 328.236 314.653 328.983 316.8C329.776 318.9 330.173 321.793 330.173 325.48V334.3C330.173 338.5 329.613 341.72 328.493 343.96C327.373 346.153 325.809 347.647 323.803 348.44C321.796 349.233 319.463 349.63 316.803 349.63ZM317.363 343.19C318.343 343.19 319.089 342.957 319.603 342.49C320.116 341.977 320.466 341.137 320.653 339.97C320.886 338.757 321.003 337.03 321.003 334.79V323.31C321.003 321.677 320.909 320.393 320.723 319.46C320.536 318.48 320.209 317.78 319.743 317.36C319.276 316.893 318.623 316.66 317.783 316.66C317.316 316.66 316.826 316.777 316.313 317.01C315.799 317.243 315.309 317.617 314.843 318.13C314.423 318.643 313.979 319.32 313.513 320.16V334.44C313.513 336.68 313.629 338.43 313.863 339.69C314.096 340.95 314.493 341.86 315.053 342.42C315.613 342.933 316.383 343.19 317.363 343.19ZM336.748 349V308.54H344.518V332.9L355.858 308.54H363.278V349H355.508V324.64L344.378 349H336.748ZM367.996 349.42V342.49C369.443 342.49 370.61 342.233 371.496 341.72C372.383 341.207 373.083 340.343 373.596 339.13C374.11 337.87 374.506 336.19 374.786 334.09C375.066 331.943 375.323 329.26 375.556 326.04L376.676 308.54H400.196V349H390.676V315.26H384.866L384.026 327.16C383.746 331.593 383.326 335.257 382.766 338.15C382.253 341.043 381.46 343.307 380.386 344.94C379.36 346.573 377.96 347.74 376.186 348.44C374.413 349.093 372.15 349.42 369.396 349.42H367.996ZM407.5 349V308.54H415.27V332.9L426.61 308.54H434.03V349H426.26V324.64L415.13 349H407.5ZM458.36 349V308.54H467.88V324.85H476.07V308.54H485.59V349H476.07V331.57H467.88V349H458.36ZM500.721 349.63C498.901 349.63 497.338 349.163 496.031 348.23C494.725 347.25 493.721 346.037 493.021 344.59C492.321 343.097 491.971 341.557 491.971 339.97C491.971 337.45 492.438 335.327 493.371 333.6C494.305 331.873 495.541 330.427 497.081 329.26C498.621 328.093 500.371 327.09 502.331 326.25C504.291 325.363 506.275 324.57 508.281 323.87V320.37C508.281 319.203 508.188 318.223 508.001 317.43C507.861 316.637 507.558 316.03 507.091 315.61C506.671 315.19 505.995 314.98 505.061 314.98C504.268 314.98 503.615 315.167 503.101 315.54C502.635 315.913 502.285 316.45 502.051 317.15C501.865 317.803 501.748 318.573 501.701 319.46L501.561 321.91L492.531 321.56C492.671 316.893 493.815 313.463 495.961 311.27C498.155 309.03 501.468 307.91 505.901 307.91C509.961 307.91 512.901 309.03 514.721 311.27C516.588 313.51 517.521 316.543 517.521 320.37V339.06C517.521 340.553 517.545 341.907 517.591 343.12C517.685 344.333 517.778 345.43 517.871 346.41C518.011 347.39 518.128 348.253 518.221 349H509.681C509.541 348.067 509.355 347.017 509.121 345.85C508.935 344.637 508.795 343.75 508.701 343.19C508.235 344.823 507.348 346.317 506.041 347.67C504.735 348.977 502.961 349.63 500.721 349.63ZM504.221 342.56C504.828 342.56 505.388 342.42 505.901 342.14C506.461 341.813 506.951 341.44 507.371 341.02C507.791 340.6 508.095 340.227 508.281 339.9V328.63C507.255 329.237 506.275 329.843 505.341 330.45C504.455 331.057 503.661 331.733 502.961 332.48C502.308 333.18 501.795 333.95 501.421 334.79C501.095 335.63 500.931 336.61 500.931 337.73C500.931 339.223 501.211 340.413 501.771 341.3C502.378 342.14 503.195 342.56 504.221 342.56ZM151.324 453V412.54H160.844V429.06H162.734L169.594 412.54H179.674L171.484 431.86L179.814 453H169.874L162.734 434.59H160.844V453H151.324ZM196.113 453.63C193.173 453.63 190.746 453.093 188.833 452.02C186.919 450.9 185.473 449.29 184.493 447.19C183.559 445.09 183.093 442.547 183.093 439.56V425.98C183.093 422.993 183.559 420.45 184.493 418.35C185.473 416.25 186.919 414.663 188.833 413.59C190.746 412.47 193.173 411.91 196.113 411.91C199.053 411.91 201.479 412.47 203.393 413.59C205.353 414.663 206.799 416.25 207.733 418.35C208.713 420.45 209.203 422.993 209.203 425.98V439.56C209.203 442.547 208.713 445.09 207.733 447.19C206.799 449.29 205.353 450.9 203.393 452.02C201.479 453.093 199.053 453.63 196.113 453.63ZM196.183 447.05C197.256 447.05 198.049 446.747 198.563 446.14C199.076 445.533 199.403 444.717 199.543 443.69C199.683 442.617 199.753 441.45 199.753 440.19V425.35C199.753 424.09 199.683 422.947 199.543 421.92C199.403 420.893 199.076 420.077 198.563 419.47C198.049 418.817 197.256 418.49 196.183 418.49C195.109 418.49 194.316 418.817 193.803 419.47C193.289 420.077 192.939 420.893 192.753 421.92C192.613 422.947 192.543 424.09 192.543 425.35V440.19C192.543 441.45 192.613 442.617 192.753 443.69C192.939 444.717 193.289 445.533 193.803 446.14C194.316 446.747 195.109 447.05 196.183 447.05ZM215.718 453V412.54H225.238V428.85H233.428V412.54H242.948V453H233.428V435.57H225.238V453H215.718ZM255 453V419.19H247.58V412.54H271.94V419.19H264.45V453H255ZM288.193 453.63C285.159 453.63 282.686 453.07 280.773 451.95C278.859 450.783 277.436 449.103 276.503 446.91C275.616 444.67 275.173 441.987 275.173 438.86V426.68C275.173 423.46 275.616 420.753 276.503 418.56C277.436 416.367 278.859 414.71 280.773 413.59C282.733 412.47 285.206 411.91 288.193 411.91C291.413 411.91 293.909 412.517 295.683 413.73C297.503 414.943 298.786 416.717 299.533 419.05C300.326 421.337 300.723 424.137 300.723 427.45V433.19H284.623V441.17C284.623 442.477 284.739 443.55 284.973 444.39C285.253 445.23 285.673 445.837 286.233 446.21C286.793 446.583 287.469 446.77 288.263 446.77C289.103 446.77 289.779 446.583 290.293 446.21C290.806 445.79 291.179 445.207 291.413 444.46C291.646 443.667 291.763 442.687 291.763 441.52V438.16H300.653V440.89C300.653 444.997 299.626 448.147 297.573 450.34C295.519 452.533 292.393 453.63 288.193 453.63ZM284.623 428.5H291.763V424.65C291.763 423.25 291.646 422.13 291.413 421.29C291.179 420.403 290.806 419.773 290.293 419.4C289.779 418.98 289.056 418.77 288.123 418.77C287.283 418.77 286.606 418.98 286.093 419.4C285.579 419.82 285.206 420.52 284.973 421.5C284.739 422.48 284.623 423.88 284.623 425.7V428.5ZM307.183 453V412.54H316.703V428.85H324.893V412.54H334.413V453H324.893V435.57H316.703V453H307.183ZM346.464 453V419.19H339.044V412.54H363.404V419.19H355.914V453H346.464ZM366.623 466.02V459.44C368.069 459.44 369.213 458.717 370.053 457.27C370.939 455.823 371.593 453.817 372.013 451.25C372.433 448.637 372.713 445.603 372.853 442.15C372.993 438.697 373.063 434.963 373.063 430.95C373.063 426.937 372.993 423.203 372.853 419.75C372.713 416.25 372.433 413.217 372.013 410.65C371.639 408.037 371.009 406.007 370.123 404.56C369.283 403.067 368.116 402.297 366.623 402.25V395.74C369.516 395.74 371.896 396.37 373.763 397.63C375.676 398.843 377.193 400.593 378.313 402.88C379.433 405.12 380.249 407.733 380.763 410.72C381.276 413.66 381.603 416.857 381.743 420.31C381.883 423.717 381.953 427.263 381.953 430.95C381.953 434.45 381.883 437.903 381.743 441.31C381.603 444.717 381.276 447.913 380.763 450.9C380.249 453.887 379.433 456.5 378.313 458.74C377.193 461.027 375.676 462.8 373.763 464.06C371.896 465.367 369.516 466.02 366.623 466.02ZM387.267 466.02V459.44C388.714 459.44 389.857 458.717 390.697 457.27C391.584 455.823 392.237 453.817 392.657 451.25C393.077 448.637 393.357 445.603 393.497 442.15C393.637 438.697 393.707 434.963 393.707 430.95C393.707 426.937 393.637 423.203 393.497 419.75C393.357 416.25 393.077 413.217 392.657 410.65C392.284 408.037 391.654 406.007 390.767 404.56C389.927 403.067 388.761 402.297 387.267 402.25V395.74C390.161 395.74 392.541 396.37 394.407 397.63C396.321 398.843 397.837 400.593 398.957 402.88C400.077 405.12 400.894 407.733 401.407 410.72C401.921 413.66 402.247 416.857 402.387 420.31C402.527 423.717 402.597 427.263 402.597 430.95C402.597 434.45 402.527 437.903 402.387 441.31C402.247 444.717 401.921 447.913 401.407 450.9C400.894 453.887 400.077 456.5 398.957 458.74C397.837 461.027 396.321 462.8 394.407 464.06C392.541 465.367 390.161 466.02 387.267 466.02ZM407.912 466.02V459.44C409.359 459.44 410.502 458.717 411.342 457.27C412.229 455.823 412.882 453.817 413.302 451.25C413.722 448.637 414.002 445.603 414.142 442.15C414.282 438.697 414.352 434.963 414.352 430.95C414.352 426.937 414.282 423.203 414.142 419.75C414.002 416.25 413.722 413.217 413.302 410.65C412.929 408.037 412.299 406.007 411.412 404.56C410.572 403.067 409.405 402.297 407.912 402.25V395.74C410.805 395.74 413.185 396.37 415.052 397.63C416.965 398.843 418.482 400.593 419.602 402.88C420.722 405.12 421.539 407.733 422.052 410.72C422.565 413.66 422.892 416.857 423.032 420.31C423.172 423.717 423.242 427.263 423.242 430.95C423.242 434.45 423.172 437.903 423.032 441.31C422.892 444.717 422.565 447.913 422.052 450.9C421.539 453.887 420.722 456.5 419.602 458.74C418.482 461.027 416.965 462.8 415.052 464.06C413.185 465.367 410.805 466.02 407.912 466.02Z" fill="#0B0A0A"/>
</svg>
